Source-HROTx_VROTx.ufo
<glyph name="exclam" format="2">
  <advance width="205"/>
  <unicode hex="0021"/>
  <outline>
    <contour>
      <point x="8.16687922375762" y="190.7751145642339" type="line"/>
      <point x="74.73542171868144" y="63.495893950655336" type="line" smooth="yes"/>
      <point x="78.1849202288299" y="56.90044412669566"/>
      <point x="71.5476281324925" y="49.58142614722831"/>
      <point x="64.64738332371219" y="52.371698522962724" type="curve" smooth="yes"/>
      <point x="31.423032599822562" y="65.80672736550713" type="line"/>
      <point x="37.421159171211656" y="80.6398820412191" type="line"/>
      <point x="70.64550989510128" y="67.2048531986747" type="line" smooth="yes"/>
      <point x="77.54575470388157" y="64.4145808229403"/>
      <point x="64.00697001028048" y="49.48520794702244"/>
      <point x="60.55747150013204" y="56.08065777098209" type="curve" smooth="yes"/>
      <point x="-6.0110709947917815" y="183.35987838456066" type="line"/>
    </contour>
    <contour>
      <point x="-78.694309075511" y="81.19013132123182" type="line"/>
      <point x="68.37423341941279" y="67.75510247868742" type="line" smooth="yes"/>
      <point x="71.97194934171712" y="67.426443362581"/>
      <point x="58.889150026693" y="59.1871658587457"/>
      <point x="60.14705424520575" y="62.57379451409748" type="curve" smooth="yes"/>
      <point x="107.4227035213161" y="189.85301512767603" type="line"/>
      <point x="122.42148824971807" y="184.28197782111852" type="line"/>
      <point x="75.14583897360772" y="57.00275720753995" type="line" smooth="yes"/>
      <point x="73.88793475509497" y="53.616128552188165"/>
      <point x="70.51637572170502" y="51.492790126843595"/>
      <point x="66.91865979940069" y="51.82144924295002" type="curve" smooth="yes"/>
      <point x="-80.1498826955231" y="65.25647808549441" type="line"/>
    </contour>
    <contour>
      <point x="172.1144739619849" y="221.3847834377493" type="line"/>
      <point x="329.61447396198486" y="444.1234195115117" type="line"/>
      <point x="342.6784192568285" y="434.88581520447775" type="line"/>
      <point x="185.17841925682853" y="212.14717913071527" type="line"/>
    </contour>
    <contour>
      <point x="149.74173440641397" y="260.3399155751294" type="line"/>
      <point x="184.5579682223404" y="222.15614939105583" type="line" smooth="yes"/>
      <point x="190.14401885065365" y="216.02979890146497"/>
      <point x="183.86901109385465" y="206.49656298769904"/>
      <point x="176.0331166436878" y="209.20486321279103" type="curve" smooth="yes"/>
      <point x="65.55645724080081" y="247.3886293968646" type="line"/>
      <point x="70.78311717223862" y="262.5108655397471" type="line"/>
      <point x="181.25977657512564" y="224.32709935567354" type="line" smooth="yes"/>
      <point x="189.0956710252925" y="221.61879913058155"/>
      <point x="178.32097562478629" y="205.24946268781787"/>
      <point x="172.73492499647304" y="211.37581317740873" type="curve" smooth="yes"/>
      <point x="137.9186911805466" y="249.5595793614823" type="line"/>
    </contour>
    <contour>
      <point x="257.816439868035" y="558.8144049221754" type="line"/>
      <point x="342.57737051838393" y="444.26310636995476" type="line" smooth="yes"/>
      <point x="346.2771868154714" y="439.26293992553065"/>
      <point x="326.374674041495" y="436.8208204235849"/>
      <point x="328.75585148906714" y="442.56714960553336" type="curve" smooth="yes"/>
      <point x="376.22388892060263" y="557.118448157754" type="line"/>
      <point x="391.0050791612817" y="550.9933836626768" type="line"/>
      <point x="343.5370417297462" y="436.4420851104561" type="line" smooth="yes"/>
      <point x="341.15586428217404" y="430.69575592850765"/>
      <point x="333.41533899751687" y="429.7459619016106"/>
      <point x="329.7155227004294" y="434.7461283460347" type="curve" smooth="yes"/>
      <point x="244.95459205008044" y="549.2974268982554" type="line"/>
    </contour>
  </outline>
</glyph>
<glyph name="quotedbl" format="2">
  <advance width="366"/>
  <unicode hex="0022"/>
  <outline>
    <contour>
      <point x="244.9791746408714" y="321.0868395850525" type="line"/>
      <point x="331.97917464087135" y="444.1234195115117" type="line"/>
      <point x="345.04311993571497" y="434.88581520447775" type="line"/>
      <point x="258.043119935715" y="311.8492352780185" type="line"/>
    </contour>
    <contour>
      <point x="220.32349962481533" y="360.21404914121854" type="line"/>
      <point x="257.2610537843014" y="322.030282957145" type="line" smooth="yes"/>
      <point x="263.13188113520255" y="315.96138359510365"/>
      <point x="256.81606884915726" y="306.11642110925254"/>
      <point x="248.85225822930096" y="308.9228198089635" type="curve" smooth="yes"/>
      <point x="140.49691916997358" y="347.106585993037" type="line"/>
      <point x="145.8146972879581" y="362.19702123818104" type="line"/>
      <point x="254.17003634728547" y="324.0132550541075" type="line" smooth="yes"/>
      <point x="262.13384696714144" y="321.2068563543967"/>
      <point x="251.63206814318593" y="304.83689254388486"/>
      <point x="245.76124079228504" y="310.905791905926" type="curve" smooth="yes"/>
      <point x="208.82368663279897" y="349.0895580899995" type="line"/>
    </contour>
    <contour>
      <point x="266.71610483318176" y="558.5741631050757" type="line"/>
      <point x="345.1130744528518" y="444.022864552855" type="line" smooth="yes"/>
      <point x="348.80021874750906" y="438.6353199965865"/>
      <point x="328.7763064748649" y="436.0617197799925"/>
      <point x="330.9812366693053" y="442.2065511229219" type="curve" smooth="yes"/>
      <point x="372.0853130701619" y="556.7578496751426" type="line"/>
      <point x="387.1451343081376" y="551.3539821452882" type="line"/>
      <point x="346.041057907281" y="436.80268359306757" type="line" smooth="yes"/>
      <point x="343.8361277128406" y="430.65785225013815"/>
      <point x="335.59636441839183" y="429.5988256068659"/>
      <point x="331.90922012373454" y="434.98637016313444" type="curve" smooth="yes"/>
      <point x="253.51225050406453" y="549.537668715355" type="line"/>
    </contour>
    <contour>
      <point x="401.2497732830984" y="321.0868395850525" type="line"/>
      <point x="488.24977328309836" y="444.1234195115117" type="line"/>
      <point x="501.313718577942" y="434.88581520447775" type="line"/>
      <point x="414.31371857794204" y="311.8492352780185" type="line"/>
    </contour>
    <contour>
      <point x="376.59409826704234" y="360.21404914121854" type="line"/>
      <point x="413.5316524265284" y="322.030282957145" type="line" smooth="yes"/>
      <point x="419.4024797774292" y="315.961383595104"/>
      <point x="413.08666749138376" y="306.1164211092527"/>
      <point x="405.122856871528" y="308.9228198089635" type="curve" smooth="yes"/>
      <point x="296.7675178122006" y="347.106585993037" type="line"/>
      <point x="302.0852959301851" y="362.19702123818104" type="line"/>
      <point x="410.4406349895125" y="324.0132550541075" type="line" smooth="yes"/>
      <point x="418.4044456093683" y="321.20685635439673"/>
      <point x="407.90266678541286" y="304.83689254388497"/>
      <point x="402.03183943451205" y="310.905791905926" type="curve" smooth="yes"/>
      <point x="365.094285275026" y="349.0895580899995" type="line"/>
    </contour>
    <contour>
      <point x="422.9867034754088" y="558.5741631050757" type="line"/>
      <point x="501.3836730950788" y="444.022864552855" type="line" smooth="yes"/>
      <point x="505.0708173897361" y="438.6353199965865"/>
      <point x="485.0469051170919" y="436.0617197799925"/>
      <point x="487.2518353115323" y="442.2065511229219" type="curve" smooth="yes"/>
      <point x="528.3559117123889" y="556.7578496751426" type="line"/>
      <point x="543.4157329503646" y="551.3539821452882" type="line"/>
      <point x="502.31165654950803" y="436.80268359306757" type="line" smooth="yes"/>
      <point x="500.1067263550676" y="430.65785225013815"/>
      <point x="491.86696306061884" y="429.5988256068659"/>
      <point x="488.17981876596156" y="434.98637016313444" type="curve" smooth="yes"/>
      <point x="409.78284914629154" y="549.537668715355" type="line"/>
    </contour>
  </outline>
</glyph>
<glyph name="dollar" format="2">
  <advance width="382"/>
  <unicode hex="0024"/>
  <outline>
    <contour>
      <point x="503.6252588128117" y="403.8874037735622" type="line"/>
      <point x="483.3407185679204" y="412.7341045612196"/>
      <point x="459.63237397801913" y="417.36248173426384"/>
      <point x="425.6066017177982" y="417.36248173426384" type="curve"/>
      <point x="425.6066017177982" y="417.36248173426384"/>
      <point x="425.6066017177982" y="417.36248173426384"/>
      <point x="425.6066017177982" y="417.36248173426384" type="curve"/>
      <point x="386.1775016017651" y="417.36248173426384"/>
      <point x="175.54669055918117" y="277.9027739732793"/>
      <point x="248.6517893449707" y="347.70974427803395" type="curve"/>
      <point x="248.6517893449707" y="347.70974427803395"/>
      <point x="248.6517893449707" y="347.70974427803395"/>
      <point x="248.6517893449707" y="347.70974427803395" type="curve"/>
      <point x="334.4613657805539" y="429.6480311224903"/>
      <point x="218.51639977745305" y="337.5800929815142"/>
      <point x="245.904625427389" y="320.41872824500444" type="curve"/>
      <point x="245.904625427389" y="320.41872824500444"/>
      <point x="245.904625427389" y="320.41872824500444"/>
      <point x="245.904625427389" y="320.41872824500444" type="curve"/>
      <point x="284.5968229186354" y="296.1743349757419"/>
      <point x="356.9613368039835" y="269.94387890061"/>
      <point x="338.04815643470187" y="144.15868026663065" type="curve"/>
      <point x="338.04815643470187" y="144.15868026663065"/>
      <point x="338.04815643470187" y="144.15868026663065"/>
      <point x="338.04815643470187" y="144.15868026663065" type="curve"/>
      <point x="327.0273834677398" y="70.86322758851654"/>
      <point x="224.97166298285129" y="51.08116907963216"/>
      <point x="143.27207793864216" y="51.08116907963216" type="curve"/>
      <point x="143.27207793864216" y="51.08116907963216"/>
      <point x="143.27207793864216" y="51.08116907963216"/>
      <point x="143.27207793864216" y="51.08116907963216" type="curve"/>
      <point x="110.96237509771267" y="51.08116907963216"/>
      <point x="80.16290343257684" y="56.28990450572137"/>
      <point x="54.90743801922063" y="67.30457592876552" type="curve"/>
      <point x="61.30367337532274" y="81.97046060270692" type="line"/>
      <point x="84.68551273199374" y="71.77293410438581"/>
      <point x="113.35933354356688" y="67.08116907963216"/>
      <point x="143.27207793864216" y="67.08116907963216" type="curve"/>
      <point x="143.27207793864216" y="67.08116907963216"/>
      <point x="143.27207793864216" y="67.08116907963216"/>
      <point x="143.27207793864216" y="67.08116907963216" type="curve"/>
      <point x="214.2164478145299" y="67.08116907963216"/>
      <point x="312.6560531435633" y="82.89112602067786"/>
      <point x="322.22601354499335" y="146.5377125021513" type="curve"/>
      <point x="322.22601354499335" y="146.5377125021513"/>
      <point x="322.22601354499335" y="146.5377125021513"/>
      <point x="322.22601354499335" y="146.5377125021513" type="curve"/>
      <point x="339.709835065504" y="262.81672639081427"/>
      <point x="273.1771274705189" y="284.44836302192437"/>
      <point x="237.40908307159575" y="306.8604923685741" type="curve"/>
      <point x="237.40908307159575" y="306.8604923685741"/>
      <point x="237.40908307159575" y="306.8604923685741"/>
      <point x="237.40908307159575" y="306.8604923685741" type="curve"/>
      <point x="173.06353098617498" y="347.1791863440116"/>
      <point x="295.67499951757713" y="370.4886182960176"/>
      <point x="259.7014576733036" y="336.1380188304684" type="curve"/>
      <point x="259.7014576733036" y="336.1380188304684"/>
      <point x="259.7014576733036" y="336.1380188304684"/>
      <point x="259.7014576733036" y="336.1380188304684" type="curve"/>
      <point x="231.90810206860334" y="309.59855740313577"/>
      <point x="322.1498025971667" y="433.36248173426384"/>
      <point x="425.6066017177982" y="433.36248173426384" type="curve"/>
      <point x="425.6066017177982" y="433.36248173426384"/>
      <point x="425.6066017177982" y="433.36248173426384"/>
      <point x="425.6066017177982" y="433.36248173426384" type="curve"/>
      <point x="462.2854850748674" y="433.36248173426384"/>
      <point x="488.1552958089148" y="428.0897981203415"/>
      <point x="510.0214941689138" y="418.5532884475036" type="curve"/>
    </contour>
    <contour>
      <point x="419.2702438299649" y="430.2461861394559" type="line"/>
      <point x="479.21999129827066" y="508.0279320699761" type="line"/>
      <point x="491.89270707393723" y="498.26052325959193" type="line"/>
      <point x="431.9429596056315" y="420.47877732907176" type="line"/>
    </contour>
    <contour>
      <point x="72.29160748638148" y="-19.457239459221277" type="line"/>
      <point x="136.94846173587385" y="63.98136072079132" type="line"/>
      <point x="149.59569414141046" y="54.180977438473" type="line"/>
      <point x="84.9388398919181" y="-29.2576227415396" type="line"/>
    </contour>
    <contour>
      <point x="536.5116528334559" y="519.9752032376007" type="line"/>
      <point x="514.6710323998898" y="409.6665453724993" type="line" smooth="yes"/>
      <point x="513.9835770469414" y="406.19447013743087"/>
      <point x="511.0962545444874" y="403.5868400720781"/>
      <point x="507.5723217602496" y="403.2554807015342" type="curve" smooth="yes"/>
      <point x="447.4129421938157" y="397.5986264520418" type="line"/>
      <point x="445.91505165504196" y="413.5283572700391" type="line"/>
      <point x="506.0744312214759" y="419.18521151953155" type="line" smooth="yes"/>
      <point x="509.5983640057136" y="419.5165708900754"/>
      <point x="498.28826522888744" y="409.3020716134981"/>
      <point x="498.9757205818358" y="412.7741468485665" type="curve" smooth="yes"/>
      <point x="520.8163410154018" y="523.0828047136679" type="line"/>
    </contour>
    <contour>
      <point x="-62.30550649713808" y="112.80692367483097" type="line"/>
      <point x="60.03511393642785" y="82.40133208380944" type="line" smooth="yes"/>
      <point x="65.94345563068501" y="80.93291853564259"/>
      <point x="51.94089513449954" y="66.69637854461689"/>
      <point x="50.374780930047336" y="72.57957718338054" type="curve" smooth="yes"/>
      <point x="11.034160496481373" y="220.36489445136897" type="line"/>
      <point x="26.495710030930073" y="224.48077661608033" type="line"/>
      <point x="65.83633046449603" y="76.6954593480919" type="line" smooth="yes"/>
      <point x="67.40244466894823" y="70.81226070932826"/>
      <point x="62.08433915237267" y="65.40529089949615"/>
      <point x="56.17599745811552" y="66.873704447663" type="curve" smooth="yes"/>
      <point x="-66.16462297545041" y="97.27929603868454" type="line"/>
    </contour>
    <contour>
      <point x="431.1802535717338" y="621.4761493378567" type="line"/>
      <point x="492.60666044292657" y="506.92485078563595" type="line" smooth="yes"/>
      <point x="496.0459501462163" y="500.5110766178703"/>
      <point x="475.98215917837894" y="498.1143073439208"/>
      <point x="477.8138848667412" y="505.15774356077173" type="curve" smooth="yes"/>
      <point x="507.60425276861304" y="619.7090421129924" type="line"/>
      <point x="523.0891814073385" y="615.6820103210171" type="line"/>
      <point x="493.2988135054667" y="501.1307117687963" type="line" smooth="yes"/>
      <point x="491.4670878171044" y="494.08727555194537"/>
      <point x="481.94532763257104" y="492.9498303761664"/>
      <point x="478.5060379292813" y="499.36360454393207" type="curve" smooth="yes"/>
      <point x="417.0796310580885" y="613.9149030961528" type="line"/>
    </contour>
    <contour>
      <point x="44.61430313113868" y="9.076974652893764" type="line"/>
      <point x="83.18789625994583" y="-17.79308303219503" type="line" smooth="yes"/>
      <point x="90.3285056439878" y="-22.767174644951865"/>
      <point x="85.51499235185774" y="-33.95550810302422"/>
      <point x="76.99340195853549" y="-32.1913122760243" type="curve" smooth="yes"/>
      <point x="-52.796965943336296" y="-5.321254590935502" type="line"/>
      <point x="-49.55332248210768" y="10.346507760352218" type="line"/>
      <point x="80.23704541976409" y="-16.523549924736578" type="line" smooth="yes"/>
      <point x="88.75863581308634" y="-18.2877457517365"/>
      <point x="81.18316050239571" y="-35.89587078132268"/>
      <point x="74.04255111835374" y="-30.921779168565845" type="curve" smooth="yes"/>
      <point x="35.468957989546595" y="-4.051721483477049" type="line"/>
    </contour>
    <contour>
      <point x="368.2897063649835" y="539.0083880008988" type="line"/>
      <point x="432.5090064549898" y="429.40683691698393" type="line" smooth="yes"/>
      <point x="436.1472999389674" y="423.19744801701825"/>
      <point x="416.13841575274887" y="420.24905387050995"/>
      <point x="417.83099874451096" y="427.24397008177147" type="curve" smooth="yes"/>
      <point x="445.2071530840097" y="540.381055071619" type="line"/>
      <point x="460.75835903058413" y="536.6180783766039" type="line"/>
      <point x="433.3822046910854" y="423.4809933867562" type="line" smooth="yes"/>
      <point x="431.6896216993233" y="416.4860771754947"/>
      <point x="422.3424904645842" y="415.10873765157805"/>
      <point x="418.7041969806066" y="421.31812655154374" type="curve" smooth="yes"/>
      <point x="354.4848968906003" y="530.9196776354586" type="line"/>
    </contour>
    <contour>
      <point x="109.59759849038912" y="94.46252996056552" type="line"/>
      <point x="148.08540518156934" y="65.47115193191706" type="line" smooth="yes"/>
      <point x="154.95588118948754" y="60.29588775590048"/>
      <point x="149.93492308595964" y="49.4068063404225"/>
      <point x="141.5378928731467" y="51.27139301635016" type="curve" smooth="yes"/>
      <point x="14.161738533648023" y="79.55566426381206" type="line"/>
      <point x="17.63010866463895" y="95.17521639037606" type="line"/>
      <point x="145.00626300413762" y="66.89094514291416" type="line" smooth="yes"/>
      <point x="153.40329321695057" y="65.02635846698651"/>
      <point x="145.32922670363317" y="47.51592205133068"/>
      <point x="138.45875069571497" y="52.691186227347266" type="curve" smooth="yes"/>
      <point x="99.97094400453474" y="81.68256425599571" type="line"/>
    </contour>
  </outline>
</glyph>
<glyph name="percent" format="2">
  <advance width="723"/>
  <unicode hex="0025"/>
  <outline>
    <contour>
      <point x="250.81340212666578" y="232.5441558772843" type="curve"/>
      <point x="250.81340212666578" y="232.5441558772843"/>
      <point x="250.81340212666578" y="232.5441558772843"/>
      <point x="250.81340212666578" y="232.5441558772843" type="curve"/>
      <point x="304.5203750178237" y="232.5441558772843"/>
      <point x="374.17789449198364" y="279.8643005561399"/>
      <point x="420.32663137705475" y="345.1284701453951" type="curve"/>
      <point x="420.32663137705475" y="345.1284701453951"/>
      <point x="420.32663137705475" y="345.1284701453951"/>
      <point x="420.32663137705475" y="345.1284701453951" type="curve"/>
      <point x="462.5194079271249" y="404.79806697668187"/>
      <point x="463.43338264952513" y="447.0609665440988"/>
      <point x="413.8134021266658" y="447.0609665440988" type="curve"/>
      <point x="413.8134021266658" y="447.0609665440988"/>
      <point x="413.8134021266658" y="447.0609665440988"/>
      <point x="413.8134021266658" y="447.0609665440988" type="curve"/>
      <point x="360.13328272195344" y="447.0609665440988"/>
      <point x="292.3595733040636" y="400.4429081604836"/>
      <point x="246.7143864386498" y="335.89086583836115" type="curve"/>
      <point x="246.7143864386498" y="335.89086583836115"/>
      <point x="246.7143864386498" y="335.89086583836115"/>
      <point x="246.7143864386498" y="335.89086583836115" type="curve"/>
      <point x="204.16210194534779" y="275.71284799797513"/>
      <point x="201.29190827884813" y="232.5441558772843"/>
    </contour>
    <contour>
      <point x="499.1865978733342" y="38.79689783217026" type="curve"/>
      <point x="499.1865978733342" y="38.79689783217026"/>
      <point x="499.1865978733342" y="38.79689783217026"/>
      <point x="499.1865978733342" y="38.79689783217026" type="curve"/>
      <point x="553.5734058643801" y="38.79689783217026"/>
      <point x="621.8439834574655" y="86.1170425110259"/>
      <point x="667.9927203425368" y="151.3812121002811" type="curve"/>
      <point x="667.9927203425368" y="151.3812121002811"/>
      <point x="667.9927203425368" y="151.3812121002811"/>
      <point x="667.9927203425368" y="151.3812121002811" type="curve"/>
      <point x="710.1644005043319" y="211.02097413315212"/>
      <point x="712.4095553746995" y="253.3137084989848"/>
      <point x="662.1865978733342" y="253.3137084989848" type="curve"/>
      <point x="662.1865978733342" y="253.3137084989848"/>
      <point x="662.1865978733342" y="253.3137084989848"/>
      <point x="662.1865978733342" y="253.3137084989848" type="curve"/>
      <point x="607.7997898822883" y="253.3137084989848"/>
      <point x="540.0484962799833" y="206.72794228261418"/>
      <point x="494.3804754041317" y="142.14360779324707" type="curve"/>
      <point x="494.3804754041317" y="142.14360779324707"/>
      <point x="494.3804754041317" y="142.14360779324707"/>
      <point x="494.3804754041317" y="142.14360779324707" type="curve"/>
      <point x="451.7648828195808" y="81.87605879160903"/>
      <point x="448.9636403719691" y="38.79689783217026"/>
    </contour>
    <contour>
      <point x="250.81340212666578" y="216.5441558772843" type="curve"/>
      <point x="188.90651080495422" y="216.5441558772843"/>
      <point x="180.4557685494639" y="269.8998427164799"/>
      <point x="233.65044114380618" y="345.1284701453951" type="curve"/>
      <point x="233.65044114380618" y="345.1284701453951"/>
      <point x="233.65044114380618" y="345.1284701453951"/>
      <point x="233.65044114380618" y="345.1284701453951" type="curve"/>
      <point x="282.9779172303887" y="414.88805582467467"/>
      <point x="355.8027992986332" y="463.0609665440988"/>
      <point x="413.8134021266658" y="463.0609665440988" type="curve"/>
      <point x="413.8134021266658" y="463.0609665440988"/>
      <point x="413.8134021266658" y="463.0609665440988"/>
      <point x="413.8134021266658" y="463.0609665440988" type="curve"/>
      <point x="475.62667339654337" y="463.0609665440988"/>
      <point x="485.95153125182406" y="410.22328065656836"/>
      <point x="433.3905766718984" y="335.89086583836115" type="curve"/>
      <point x="433.3905766718984" y="335.89086583836115"/>
      <point x="433.3905766718984" y="335.89086583836115"/>
      <point x="433.3905766718984" y="335.89086583836115" type="curve"/>
      <point x="383.5687748958189" y="265.43219806476554"/>
      <point x="308.79501414868724" y="216.5441558772843"/>
      <point x="250.81340212666578" y="216.5441558772843" type="curve"/>
      <point x="250.81340212666578" y="216.5441558772843"/>
      <point x="250.81340212666578" y="216.5441558772843"/>
    </contour>
    <contour>
      <point x="499.1865978733342" y="22.79689783217026" type="curve"/>
      <point x="436.5587185521957" y="22.79689783217026"/>
      <point x="428.1750123181164" y="76.22775691491508"/>
      <point x="481.31653010928807" y="151.3812121002811" type="curve"/>
      <point x="481.31653010928807" y="151.3812121002811"/>
      <point x="481.31653010928807" y="151.3812121002811"/>
      <point x="481.31653010928807" y="151.3812121002811" type="curve"/>
      <point x="530.6193547835336" y="221.10593541790186"/>
      <point x="603.4710413953377" y="269.3137084989848"/>
      <point x="662.1865978733342" y="269.3137084989848" type="curve"/>
      <point x="662.1865978733342" y="269.3137084989848"/>
      <point x="662.1865978733342" y="269.3137084989848"/>
      <point x="662.1865978733342" y="269.3137084989848" type="curve"/>
      <point x="724.8144771944729" y="269.3137084989848"/>
      <point x="733.6446259515604" y="216.51421448709897"/>
      <point x="681.0566656373803" y="142.14360779324707" type="curve"/>
      <point x="681.0566656373803" y="142.14360779324707"/>
      <point x="681.0566656373803" y="142.14360779324707"/>
      <point x="681.0566656373803" y="142.14360779324707" type="curve"/>
      <point x="631.2348638613007" y="71.68494001965138"/>
      <point x="557.9021543513308" y="22.79689783217026"/>
      <point x="499.1865978733342" y="22.79689783217026" type="curve"/>
      <point x="499.1865978733342" y="22.79689783217026"/>
      <point x="499.1865978733342" y="22.79689783217026"/>
    </contour>
    <contour>
      <point x="729.4322479645956" y="440.20209129102926" type="line"/>
      <point x="192.53066098693074" y="32.90858532757788" type="line"/>
      <point x="182.8606452542179" y="45.6557730852398" type="line"/>
      <point x="719.7622322318826" y="452.94927904869115" type="line"/>
    </contour>
    <contour>
      <point x="138.61598117807114" y="79.97392798088265" type="line"/>
      <point x="191.98856418010155" y="46.032802483928386" type="line" smooth="yes"/>
      <point x="199.59618368432348" y="41.19490343909388"/>
      <point x="194.63367229559728" y="29.42596128998459"/>
      <point x="185.85890441620944" y="31.49588649440437" type="curve" smooth="yes"/>
      <point x="41.976653422300906" y="65.43701199135864" type="line"/>
      <point x="45.65015083103065" y="81.00959741536758" type="line"/>
      <point x="189.5324018249392" y="47.068471918413316" type="line" smooth="yes"/>
      <point x="198.30716970432704" y="44.998546713993534"/>
      <point x="191.01036156526902" y="27.693656884054786"/>
      <point x="183.4027420610471" y="32.5315559288893" type="curve" smooth="yes"/>
      <point x="130.03015905901668" y="66.47268142584358" type="line"/>
    </contour>
    <contour>
      <point x="685.3089558700731" y="557.239801930034" type="line"/>
      <point x="731.9363728680427" y="449.7595711896788" type="line" smooth="yes"/>
      <point x="734.7552193722987" y="443.26188608925213"/>
      <point x="714.5135368574872" y="443.04231054617327"/>
      <point x="717.1907668481215" y="449.5996153931445" type="curve" smooth="yes"/>
      <point x="761.0730178420299" y="557.0798461334997" type="line"/>
      <point x="775.8859643422652" y="551.0319856869311" type="line"/>
      <point x="732.0037133483568" y="443.5517549465759" type="line" smooth="yes"/>
      <point x="729.3264833577225" y="436.99445009960465"/>
      <point x="720.0769538326916" y="436.8941140496149"/>
      <point x="717.2581073284356" y="443.3917991500416" type="curve" smooth="yes"/>
      <point x="670.630690330466" y="550.8720298903968" type="line"/>
    </contour>
  </outline>
</glyph>
<glyph name="ampersand" format="2">
  <advance width="467"/>
  <unicode hex="0026"/>
  <outline>
    <contour>
      <point x="167.9777146741645" y="324.10501172216" type="line"/>
      <point x="390.097555721309" y="254.80854716587834" type="line" smooth="yes"/>
      <point x="390.8688559074933" y="254.56791861256133"/>
      <point x="386.90702494802196" y="255.17157287525384"/>
      <point x="387.7149891043305" y="255.17157287525384" type="curve" smooth="yes"/>
      <point x="445.6977451616274" y="255.17157287525384" type="line"/>
      <point x="445.6977451616274" y="255.17157287525384"/>
      <point x="445.6977451616274" y="255.17157287525384"/>
      <point x="445.6977451616274" y="255.17157287525384" type="curve"/>
      <point x="496.60943340705876" y="255.17157287525384" type="line"/>
      <point x="496.60943340705876" y="239.17157287525384" type="line"/>
      <point x="445.6977451616274" y="239.17157287525384" type="line"/>
      <point x="445.6977451616274" y="239.17157287525384"/>
      <point x="445.6977451616274" y="239.17157287525384"/>
      <point x="445.6977451616274" y="239.17157287525384" type="curve"/>
      <point x="387.7149891043305" y="239.17157287525384" type="line" smooth="yes"/>
      <point x="386.90702494802196" y="239.17157287525384"/>
      <point x="386.10372267353637" y="239.29397003131234"/>
      <point x="385.33242248735206" y="239.53459858462935" type="curve" smooth="yes"/>
      <point x="163.21258144020752" y="308.831063140911" type="line"/>
    </contour>
    <contour>
      <point x="533.6943047571095" y="431.3635506939566" type="line"/>
      <point x="518.5706884400176" y="437.37664101591196"/>
      <point x="500.3391200963948" y="439.9898987322333"/>
      <point x="481.6317279836453" y="439.9898987322333" type="curve"/>
      <point x="481.6317279836453" y="439.9898987322333"/>
      <point x="481.6317279836453" y="439.9898987322333"/>
      <point x="481.6317279836453" y="439.9898987322333" type="curve"/>
      <point x="409.2088947925686" y="439.9898987322333"/>
      <point x="329.9675211992437" y="408.64791411062424"/>
      <point x="285.5205189868096" y="345.7903607749728" type="curve"/>
      <point x="285.5205189868096" y="345.7903607749728"/>
      <point x="285.5205189868096" y="345.7903607749728"/>
      <point x="285.5205189868096" y="345.7903607749728" type="curve"/>
      <point x="243.8414045822506" y="286.8471919163457"/>
      <point x="276.34916046602706" y="255.17157287525384"/>
      <point x="396.2002704785691" y="255.17157287525384" type="curve" smooth="yes"/>
      <point x="406.8669371452358" y="255.17157287525384"/>
      <point x="406.8669371452358" y="239.17157287525384"/>
      <point x="396.2002704785691" y="239.17157287525384" type="curve" smooth="yes"/>
      <point x="269.8517793163036" y="239.17157287525384"/>
      <point x="171.3472216405508" y="203.32493520703756"/>
      <point x="120.08549014426521" y="130.8298992942623" type="curve"/>
      <point x="120.08549014426521" y="130.8298992942623"/>
      <point x="120.08549014426521" y="130.8298992942623"/>
      <point x="120.08549014426521" y="130.8298992942623" type="curve"/>
      <point x="81.0063877032379" y="75.56370261679392"/>
      <point x="100.10629423031199" y="43.039538519289586"/>
      <point x="166.29720420448922" y="43.03953851928958" type="curve"/>
      <point x="166.29720420448922" y="43.03953851928958"/>
      <point x="166.29720420448922" y="43.03953851928958"/>
      <point x="166.29720420448922" y="43.03953851928958" type="curve"/>
      <point x="240.88156082771874" y="43.03953851928957"/>
      <point x="319.76511811481646" y="82.9323502209319"/>
      <point x="367.6657725142056" y="150.67410531909454" type="curve"/>
      <point x="367.6657725142056" y="150.67410531909454"/>
      <point x="367.6657725142056" y="150.67410531909454"/>
      <point x="367.6657725142056" y="150.67410531909454" type="curve"/>
      <point x="439.16577251420557" y="251.79037502877085" type="line"/>
      <point x="439.16577251420557" y="251.79037502877085"/>
      <point x="439.16577251420557" y="251.79037502877085"/>
      <point x="439.16577251420557" y="251.79037502877085" type="curve"/>
      <point x="482.16577251420557" y="312.6015582108139" type="line"/>
      <point x="495.2297178090492" y="303.36395390377993" type="line"/>
      <point x="452.2297178090492" y="242.55277072173683" type="line"/>
      <point x="452.2297178090492" y="242.55277072173683"/>
      <point x="452.2297178090492" y="242.55277072173683"/>
      <point x="452.2297178090492" y="242.55277072173683" type="curve"/>
      <point x="380.72971780904925" y="141.43650101206052" type="line"/>
      <point x="380.72971780904925" y="141.43650101206052"/>
      <point x="380.72971780904925" y="141.43650101206052"/>
      <point x="380.72971780904925" y="141.43650101206052" type="curve"/>
      <point x="329.6334265385103" y="69.17543291029845"/>
      <point x="245.85737009430807" y="27.03953851928957"/>
      <point x="166.29720420448922" y="27.03953851928958" type="curve"/>
      <point x="166.29720420448922" y="27.03953851928958"/>
      <point x="166.29720420448922" y="27.03953851928958"/>
      <point x="166.29720420448922" y="27.03953851928958" type="curve"/>
      <point x="86.88142324434098" y="27.039538519289586"/>
      <point x="60.13448073764893" y="73.75918163457061"/>
      <point x="107.02154484942159" y="140.06750360129632" type="curve"/>
      <point x="107.02154484942159" y="140.06750360129632"/>
      <point x="107.02154484942159" y="140.06750360129632"/>
      <point x="107.02154484942159" y="140.06750360129632" type="curve"/>
      <point x="160.75452444643437" y="216.05741209410846"/>
      <point x="263.7607156768108" y="255.17157287525384"/>
      <point x="396.2002704785691" y="255.17157287525384" type="curve" smooth="yes"/>
      <point x="406.8669371452358" y="255.17157287525384"/>
      <point x="406.8669371452358" y="239.17157287525384"/>
      <point x="396.2002704785691" y="239.17157287525384" type="curve" smooth="yes"/>
      <point x="257.55519343363926" y="239.17157287525384"/>
      <point x="224.24171754937512" y="286.8418616172871"/>
      <point x="272.45657369196596" y="355.02796508200674" type="curve"/>
      <point x="272.45657369196596" y="355.02796508200674"/>
      <point x="272.45657369196596" y="355.02796508200674"/>
      <point x="272.45657369196596" y="355.02796508200674" type="curve"/>
      <point x="320.01125663455804" y="422.28044265377304"/>
      <point x="404.14517773791465" y="455.9898987322333"/>
      <point x="481.6317279836453" y="455.9898987322333" type="curve"/>
      <point x="481.6317279836453" y="455.9898987322333"/>
      <point x="481.6317279836453" y="455.9898987322333"/>
      <point x="481.6317279836453" y="455.9898987322333" type="curve"/>
      <point x="502.5181257372449" y="455.9898987322333"/>
      <point x="522.7205413695251" y="452.94495545188823"/>
      <point x="539.6057311366402" y="446.23147045965976" type="curve"/>
    </contour>
    <contour>
      <point x="566.8334106377129" y="548.2350093010907" type="line"/>
      <point x="544.4927902041469" y="437.2192446548027" type="line" smooth="yes"/>
      <point x="543.7833708719304" y="433.69397417920976"/>
      <point x="540.8090033330361" y="431.0752279950383"/>
      <point x="537.2222717402177" y="430.81800397577047" type="curve" smooth="yes"/>
      <point x="478.06289217378367" y="426.5753632886512" type="line"/>
      <point x="476.918384587098" y="442.53437649072663" type="line"/>
      <point x="536.077764153532" y="446.7770171778459" type="line" smooth="yes"/>
      <point x="539.6644957463504" y="447.0342411971137"/>
      <point x="528.0978263573863" y="436.8505060232207"/>
      <point x="528.8072456896028" y="440.37577649881365" type="curve" smooth="yes"/>
      <point x="551.1478661231688" y="551.3915411451017" type="line"/>
    </contour>
    <contour>
      <point x="426.3405804926991" y="426.6708266882304" type="line"/>
      <point x="495.5451619569439" y="312.1195281360097" type="line" smooth="yes"/>
      <point x="499.171589483827" y="306.11686222111496"/>
      <point x="479.1091660926487" y="303.3738379487253"/>
      <point x="480.99119810959684" y="310.1296450937493" type="curve" smooth="yes"/>
      <point x="512.9028863550283" y="424.68094364597" type="line"/>
      <point x="528.3159804590892" y="420.38716557306526" type="line"/>
      <point x="496.4042922136579" y="305.83586702084455" type="line" smooth="yes"/>
      <point x="494.5222601967098" y="299.08005987582055"/>
      <point x="485.47675589319397" y="297.84331806368937"/>
      <point x="481.85032836631086" y="303.8459839785841" type="curve" smooth="yes"/>
      <point x="412.64574690206604" y="418.39728253080483" type="line"/>
    </contour>
    <contour>
      <point x="528.2781411177923" y="358.6590974445503" type="line"/>
      <point x="504.43752068422623" y="245.52201245470275" type="line" smooth="yes"/>
      <point x="503.1895047665501" y="239.59947854497227"/>
      <point x="496.0709661452857" y="237.15438740973116"/>
      <point x="491.4471404613434" y="241.0600483892833" type="curve" smooth="yes"/>
      <point x="456.28776089490947" y="270.75853319911823" type="line"/>
      <point x="466.6123467863402" y="282.98158217105936" type="line"/>
      <point x="501.7717263527741" y="253.28309736122438" type="line" smooth="yes"/>
      <point x="506.3955520367164" y="249.37743638167223"/>
      <point x="487.53333021221516" y="242.89859938607447"/>
      <point x="488.7813461298913" y="248.82113329580494" type="curve" smooth="yes"/>
      <point x="512.6219665634574" y="361.9582182856525" type="line"/>
    </contour>
    <contour>
      <point x="382.2907813230341" y="364.5267610662371" type="line"/>
      <point x="452.4953627872789" y="251.38967607638958" type="line" smooth="yes"/>
      <point x="457.5779092839933" y="243.1989785040882"/>
      <point x="446.50917794541056" y="234.6711175855626"/>
      <point x="439.88552403208257" y="241.67447495532622" type="curve" smooth="yes"/>
      <point x="411.79721227751406" y="271.37295976516117" type="line"/>
      <point x="423.4216545366037" y="282.3671556050164" type="line"/>
      <point x="451.5099662911722" y="252.66867079518147" type="line" smooth="yes"/>
      <point x="458.1336202045002" y="245.66531342541785"/>
      <point x="443.9826740326902" y="234.76277210181672"/>
      <point x="438.90012753597586" y="242.9534696741181" type="curve" smooth="yes"/>
      <point x="368.69554607173103" y="356.0905546639657" type="line"/>
    </contour>
    <contour>
      <point x="484.3265714448944" y="358.2001559075519" type="line"/>
      <point x="453.414883199463" y="245.06307091770435" type="line" smooth="yes"/>
      <point x="452.2838302556097" y="240.92340594629474"/>
      <point x="448.0879644372382" y="238.41355034435034"/>
      <point x="443.9056278559578" y="239.37488668413908" type="curve" smooth="yes"/>
      <point x="314.70104639171296" y="269.07337149397404" type="line"/>
      <point x="318.28528100305215" y="284.66674387620355" type="line"/>
      <point x="447.489862467297" y="254.9682590663686" type="line" smooth="yes"/>
      <point x="451.6721990485774" y="254.00692272657986"/>
      <point x="436.8495541799384" y="245.14040986139372"/>
      <point x="437.98060712379174" y="249.28007483280334" type="curve" smooth="yes"/>
      <point x="468.8922953692231" y="362.4171598226509" type="line"/>
    </contour>
  </outline>
</glyph>
<glyph name="quotesingle" format="2">
  <advance width="211"/>
  <unicode hex="0027"/>
  <outline>
    <contour>
      <point x="245.6144739619849" y="321.0868395850525" type="line"/>
      <point x="332.61447396198486" y="444.1234195115117" type="line"/>
      <point x="345.6784192568285" y="434.88581520447775" type="line"/>
      <point x="258.67841925682853" y="311.8492352780185" type="line"/>
    </contour>
    <contour>
      <point x="220.95879894592883" y="360.21404914121854" type="line"/>
      <point x="257.8963531054149" y="322.030282957145" type="line" smooth="yes"/>
      <point x="263.76718045631605" y="315.96138359510365"/>
      <point x="257.45136817027077" y="306.11642110925254"/>
      <point x="249.48755755041446" y="308.9228198089635" type="curve" smooth="yes"/>
      <point x="141.1322184910871" y="347.106585993037" type="line"/>
      <point x="146.4499966090716" y="362.19702123818104" type="line"/>
      <point x="254.80533566839898" y="324.0132550541075" type="line" smooth="yes"/>
      <point x="262.76914628825494" y="321.2068563543967"/>
      <point x="252.26736746429944" y="304.83689254388486"/>
      <point x="246.39654011339854" y="310.905791905926" type="curve" smooth="yes"/>
      <point x="209.45898595391247" y="349.0895580899995" type="line"/>
    </contour>
    <contour>
      <point x="267.35140415429527" y="558.5741631050757" type="line"/>
      <point x="345.7483737739653" y="444.022864552855" type="line" smooth="yes"/>
      <point x="349.43551806862257" y="438.6353199965865"/>
      <point x="329.4116057959784" y="436.0617197799925"/>
      <point x="331.6165359904188" y="442.2065511229219" type="curve" smooth="yes"/>
      <point x="372.7206123912754" y="556.7578496751426" type="line"/>
      <point x="387.7804336292511" y="551.3539821452882" type="line"/>
      <point x="346.6763572283945" y="436.80268359306757" type="line" smooth="yes"/>
      <point x="344.4714270339541" y="430.65785225013815"/>
      <point x="336.23166373950534" y="429.5988256068659"/>
      <point x="332.54451944484805" y="434.98637016313444" type="curve" smooth="yes"/>
      <point x="254.14754982517803" y="549.537668715355" type="line"/>
    </contour>
  </outline>
</glyph>
<glyph name="parenleft" format="2">
  <advance width="341"/>
  <unicode hex="0028"/>
  <outline>
    <contour>
      <point x="560.2959425686058" y="520.8370447479573" type="line"/>
      <point x="442.4183976940062" y="491.48967455483427"/>
      <point x="299.75889465983596" y="399.02191918743466"/>
      <point x="186.11849873325627" y="238.31013003461752" type="curve"/>
      <point x="186.11849873325627" y="238.31013003461752"/>
      <point x="186.11849873325627" y="238.31013003461752"/>
      <point x="186.11849873325627" y="238.31013003461752" type="curve"/>
      <point x="76.54167659377254" y="83.34510204321519"/>
      <point x="83.58963284477149" y="-6.976587516316804"/>
      <point x="157.23273006627852" y="-35.27454914952936" type="curve"/>
      <point x="151.4937126986643" y="-50.20986567293194" type="line"/>
      <point x="70.6664724978995" y="-19.151338418978803"/>
      <point x="52.78812715185016" y="77.46532318905074"/>
      <point x="173.05455343841265" y="247.54773434165153" type="curve"/>
      <point x="173.05455343841265" y="247.54773434165153"/>
      <point x="173.05455343841265" y="247.54773434165153"/>
      <point x="173.05455343841265" y="247.54773434165153" type="curve"/>
      <point x="289.40668480911864" y="412.0944965371199"/>
      <point x="435.74011122790284" y="506.3154292087392"/>
      <point x="556.4305001963367" y="536.3630988270421" type="curve"/>
    </contour>
    <contour>
      <point x="604.3936448131694" y="660.0371414977661" type="line"/>
      <point x="566.0530243796034" y="526.3939598535086" type="line" smooth="yes"/>
      <point x="564.5938193206996" y="521.3076361441362"/>
      <point x="558.6870212900416" y="519.0138774487481"/>
      <point x="554.1775725926326" y="521.7824223239293" type="curve" smooth="yes"/>
      <point x="515.0181930261987" y="545.8240528842719" type="line"/>
      <point x="523.389490605876" y="559.4593518114127" type="line"/>
      <point x="562.5488701723099" y="535.4177212510701" type="line" smooth="yes"/>
      <point x="567.0583188697188" y="532.6491763758889"/>
      <point x="549.2142133264354" y="525.7198600121184"/>
      <point x="550.6734183853391" y="530.8061837214908" type="curve" smooth="yes"/>
      <point x="589.0140388189052" y="664.4493653657483" type="line"/>
    </contour>
    <contour>
      <point x="189.00255153240195" y="72.85422727437225" type="line"/>
      <point x="162.16193109883605" y="-44.525498402594586" type="line" smooth="yes"/>
      <point x="161.22713261098525" y="-48.61357044767861"/>
      <point x="157.2941541506812" y="-51.28596620738821"/>
      <point x="153.14913899858269" y="-50.64954602577923" type="curve" smooth="yes"/>
      <point x="102.4897594321486" y="-42.87137143272726" type="line"/>
      <point x="104.91792419992608" y="-27.0566942036301" type="line"/>
      <point x="155.57730376636013" y="-34.83486879668207" type="line" smooth="yes"/>
      <point x="159.72231891845865" y="-35.47128897829106"/>
      <point x="145.62971317825597" y="-45.04698846495074"/>
      <point x="146.56451166610677" y="-40.95891641986672" type="curve" smooth="yes"/>
      <point x="173.40513209967267" y="76.42080925710013" type="line"/>
    </contour>
  </outline>
</glyph>
<glyph name="parenright" format="2">
  <advance width="341"/>
  <unicode hex="0029"/>
  <outline>
    <contour>
      <point x="-28.79594256860599" y="-34.27207359050176" type="line"/>
      <point x="89.08160230599375" y="-4.924703397378606"/>
      <point x="231.74110534016407" y="87.54305197002088"/>
      <point x="345.3815012667437" y="248.2548411228381" type="curve"/>
      <point x="345.3815012667437" y="248.2548411228381"/>
      <point x="345.3815012667437" y="248.2548411228381"/>
      <point x="345.3815012667437" y="248.2548411228381" type="curve"/>
      <point x="454.95832340622735" y="403.2198691142404"/>
      <point x="447.9103671552284" y="493.5415586737725"/>
      <point x="374.2672699337215" y="521.839520306985" type="curve"/>
      <point x="380.0062873013357" y="536.7748368303877" type="line"/>
      <point x="460.8335275021003" y="505.7163095764344"/>
      <point x="478.71187284814977" y="409.0996479684049"/>
      <point x="358.44544656158735" y="239.01723681580407" type="curve"/>
      <point x="358.44544656158735" y="239.01723681580407"/>
      <point x="358.44544656158735" y="239.01723681580407"/>
      <point x="358.44544656158735" y="239.01723681580407" type="curve"/>
      <point x="242.09331519088136" y="74.47047462033558"/>
      <point x="95.75988877209704" y="-19.750458051283605"/>
      <point x="-24.930500196336713" y="-49.79812766958655" type="curve"/>
    </contour>
    <contour>
      <point x="-164.75475264202657" y="-26.2695410510417" type="line"/>
      <point x="-26.414132208460604" y="-34.04771564409373" type="line" smooth="yes"/>
      <point x="-20.22716460008168" y="-34.395576699716486"/>
      <point x="-31.114206893577986" y="-51.21816644084561"/>
      <point x="-33.96582481668261" y="-45.716543887291294" type="curve" smooth="yes"/>
      <point x="-94.80644525024857" y="71.6631817896756" type="line"/>
      <point x="-80.60123838182605" y="79.02606830416988" type="line"/>
      <point x="-19.760617948260094" y="-38.35365737279702" type="line" smooth="yes"/>
      <point x="-16.90900002515546" y="-43.85527992635134"/>
      <point x="-21.125342948103157" y="-50.37034667161734"/>
      <point x="-27.3123105564821" y="-50.02248561599458" type="curve" smooth="yes"/>
      <point x="-165.65293099004805" y="-42.244311022942554" type="line"/>
    </contour>
    <contour>
      <point x="251.78596906794414" y="561.208864060769" type="line"/>
      <point x="378.62658950151007" y="537.1672335004264" type="line" smooth="yes"/>
      <point x="384.73818041691516" y="536.0088300613556"/>
      <point x="371.7863359011725" y="520.7010060870367"/>
      <point x="369.6319237255671" y="526.5364109763752" type="curve" smooth="yes"/>
      <point x="320.29130329200115" y="660.1795926206327" type="line"/>
      <point x="335.3010130759241" y="665.7211278052549" type="line"/>
      <point x="384.6416335094901" y="532.0779461609975" type="line" smooth="yes"/>
      <point x="386.79604568509546" y="526.242541271659"/>
      <point x="381.7585586489522" y="520.2887201978756"/>
      <point x="375.6469677335471" y="521.4471236369463" type="curve" smooth="yes"/>
      <point x="248.80634729998113" y="545.4887541972889" type="line"/>
    </contour>
  </outline>
</glyph>
<glyph name="asterisk" format="2">
  <advance width="434"/>
  <unicode hex="002A"/>
  <outline>
    <contour>
      <point x="509.28794112618607" y="429.66594578728643" type="line"/>
      <point x="365.44122403821024" y="317.2359675786254" type="line" smooth="yes"/>
      <point x="365.43126262772034" y="317.2281817828354"/>
      <point x="365.42128277434415" y="317.2204196123415"/>
      <point x="365.41128456220713" y="317.2126811325751" type="curve" smooth="yes"/>
      <point x="220.15035391185822" y="204.782702923914" type="line"/>
      <point x="210.35722203896674" y="217.43555114556582" type="line"/>
      <point x="355.6181526893157" y="329.86552935422685" type="line" smooth="yes"/>
      <point x="355.6281509014527" y="329.8732678339933"/>
      <point x="355.5782518028227" y="329.8344571123866"/>
      <point x="355.5882132133126" y="329.84224290817656" type="curve" smooth="yes"/>
      <point x="499.43493030128843" y="442.2722211168376" type="line"/>
    </contour>
    <contour>
      <point x="490.62236636408625" y="315.53910524340097" type="line"/>
      <point x="360.5147186257614" y="315.53910524340097" type="line"/>
      <point x="360.5147186257614" y="315.53910524340097"/>
      <point x="360.5147186257614" y="315.53910524340097"/>
      <point x="360.5147186257614" y="315.53910524340097" type="curve"/>
      <point x="230.4070708874367" y="315.53910524340097" type="line"/>
      <point x="230.4070708874367" y="331.53910524340097" type="line"/>
      <point x="360.5147186257614" y="331.53910524340097" type="line"/>
      <point x="360.5147186257614" y="331.53910524340097"/>
      <point x="360.5147186257614" y="331.53910524340097"/>
      <point x="360.5147186257614" y="331.53910524340097" type="curve"/>
      <point x="490.62236636408625" y="331.53910524340097" type="line"/>
    </contour>
    <contour>
      <point x="105.05626133785218" y="355.4407907354836" type="line"/>
      <point x="231.8968817714182" y="331.399160175141" type="line" smooth="yes"/>
      <point x="238.453915489481" y="330.1563265964142"/>
      <point x="226.3756098025526" y="313.93251125774253"/>
      <point x="223.30446745322544" y="319.8576619861538" type="curve" smooth="yes"/>
      <point x="162.46384701965943" y="437.23738766312067" type="line"/>
      <point x="176.66905388808195" y="444.600274177615" type="line"/>
      <point x="237.50967432164796" y="327.22054850064814" type="line" smooth="yes"/>
      <point x="240.5808166709751" y="321.29539777223687"/>
      <point x="235.474293721518" y="314.43621673293416"/>
      <point x="228.9172600034552" y="315.67905031166094" type="curve" smooth="yes"/>
      <point x="102.0766395698892" y="339.7206808720035" type="line"/>
    </contour>
    <contour>
      <point x="525.2616965140168" y="439.1355399290039" type="line"/>
      <point x="498.42107608045086" y="321.75581425203706" type="line" smooth="yes"/>
      <point x="497.20083095604735" y="316.4194235260603"/>
      <point x="491.10180227332484" y="313.85735925660424"/>
      <point x="486.4367175742476" y="316.72145577983053" type="curve" smooth="yes"/>
      <point x="447.27733800781346" y="340.7630863401731" type="line"/>
      <point x="455.64863558749073" y="354.398385267314" type="line"/>
      <point x="494.8080151539249" y="330.3567547069714" type="line" smooth="yes"/>
      <point x="499.4730998530021" y="327.4926581837451"/>
      <point x="481.60341152331813" y="319.98600550878814"/>
      <point x="482.82365664772163" y="325.3223962347649" type="curve" smooth="yes"/>
      <point x="509.6642770812875" y="442.70212191173175" type="line"/>
    </contour>
    <contour>
      <point x="141.11033197241784" y="228.24227507597848" type="line"/>
      <point x="216.22555566156757" y="219.0498869205534" type="line" smooth="yes"/>
      <point x="225.30856793257595" y="217.938333625297"/>
      <point x="220.26815462471154" y="200.03696420402426"/>
      <point x="211.93957068302475" y="203.82792083392138" type="curve" smooth="yes"/>
      <point x="89.21417393860858" y="259.68935654765863" type="line"/>
      <point x="95.84260852338403" y="274.2517689492957" type="line"/>
      <point x="218.5680052678002" y="218.39033323555844" type="line" smooth="yes"/>
      <point x="226.896589209487" y="214.59937660566132"/>
      <point x="223.36503256026577" y="202.05681385367"/>
      <point x="214.2820202892574" y="203.16836714892642" type="curve" smooth="yes"/>
      <point x="139.16679660010766" y="212.3607553043515" type="line"/>
    </contour>
    <contour>
      <point x="487.338645993613" y="569.6776348696341" type="line"/>
      <point x="512.2234223044633" y="437.4486667877496" type="line" smooth="yes"/>
      <point x="513.7992164770875" y="429.075449574433"/>
      <point x="494.44232373783046" y="429.78805510838976"/>
      <point x="496.6295220270877" y="438.0227413452374" type="curve" smooth="yes"/>
      <point x="519.3549187715038" y="523.5826618688096" type="line"/>
      <point x="534.818746144803" y="519.4753460824589" type="line"/>
      <point x="512.0933494003868" y="433.9154255588866" type="line" smooth="yes"/>
      <point x="509.9061511111296" y="425.68073932203896"/>
      <point x="498.07524329563546" y="426.1162829030579"/>
      <point x="496.49944912301123" y="434.4895001163745" type="curve" smooth="yes"/>
      <point x="471.61467281216096" y="566.7184681982588" type="line"/>
    </contour>
    <contour>
      <point x="338.83472095593817" y="212.07951737573038" type="line"/>
      <point x="352.5737903055892" y="324.50949558439146" type="line" smooth="yes"/>
      <point x="352.57779290967216" y="324.5422498182022"/>
      <point x="352.5819981293061" y="324.57497897402146"/>
      <point x="352.5864057230303" y="324.6076811725643" type="curve" smooth="yes"/>
      <point x="367.73968863505445" y="437.03765938122535" type="line"/>
      <point x="383.5963144405167" y="434.9005075228987" type="line"/>
      <point x="368.44303152849255" y="322.47052931423764" type="line" smooth="yes"/>
      <point x="368.4386239347684" y="322.4378271156948"/>
      <point x="368.45964955001654" y="322.6014691362212"/>
      <point x="368.4556469459336" y="322.5687149024105" type="curve" smooth="yes"/>
      <point x="354.71657759628255" y="210.13873669374945" type="line"/>
    </contour>
    <contour>
      <point x="356.4972327014404" y="266.7235838749356" type="line"/>
      <point x="354.7718359570242" y="210.86214816119835" type="line" smooth="yes"/>
      <point x="354.6304783342512" y="206.28555452687246"/>
      <point x="350.68398133712225" y="202.76106547698083"/>
      <point x="346.12058112073987" y="203.13599178492635" type="curve" smooth="yes"/>
      <point x="234.23580480988966" y="212.32837994035143" type="line"/>
      <point x="235.54594112063063" y="228.27465043997856" type="line"/>
      <point x="347.43071743148084" y="219.08226228455348" type="line" smooth="yes"/>
      <point x="351.9941176478632" y="218.70733597660796"/>
      <point x="338.6381049724235" y="206.7795122739556"/>
      <point x="338.7794625951965" y="211.35610590828148" type="curve" smooth="yes"/>
      <point x="340.50485933961266" y="267.2175416220187" type="line"/>
    </contour>
    <contour>
      <point x="279.0920427110606" y="527.6513637438808" type="line"/>
      <point x="380.81743945547686" y="442.0914432203085" type="line" smooth="yes"/>
      <point x="385.7675864369114" y="437.9279383742604"/>
      <point x="367.1210837133112" y="430.242922133818"/>
      <point x="367.7001209187659" y="436.6852387711443" type="curve" smooth="yes"/>
      <point x="379.58489722961605" y="568.9142068530288" type="line"/>
      <point x="395.52065846765544" y="567.4818962148642" type="line"/>
      <point x="383.6358821568053" y="435.2529281329797" type="line" smooth="yes"/>
      <point x="383.05684495135057" y="428.8106114956534"/>
      <point x="375.46871060152887" y="425.6832188377674"/>
      <point x="370.5185636200943" y="429.8467236838155" type="curve" smooth="yes"/>
      <point x="268.7931668756781" y="515.4066442073878" type="line"/>
    </contour>
    <contour>
      <point x="273.86726504864475" y="441.75077440973155" type="line"/>
      <point x="366.69926351085917" y="328.61368941988394" type="line" smooth="yes"/>
      <point x="371.9916571313938" y="322.16369376359233"/>
      <point x="354.3384858443978" y="313.7684336783925"/>
      <point x="352.6752824346602" y="321.94435127941404" type="curve" smooth="yes"/>
      <point x="346.92149445924764" y="350.22862252687594" type="line"/>
      <point x="362.6003668414501" y="353.4181304548498" type="line"/>
      <point x="368.35415481686266" y="325.1338592073879" type="line" smooth="yes"/>
      <point x="370.01735822660027" y="316.9579416063664"/>
      <point x="359.6225673611983" y="312.0145254106264"/>
      <point x="354.33017374066367" y="318.464521066918" type="curve" smooth="yes"/>
      <point x="261.49817527844925" y="431.6016060567656" type="line"/>
    </contour>
    <contour>
      <point x="207.71141576654307" y="359.6921764718316" type="line"/>
      <point x="361.9576277911305" y="331.4079052243697" type="line" smooth="yes"/>
      <point x="365.537461290119" y="330.7514678287466"/>
      <point x="351.72617437559546" y="323.62632850708417"/>
      <point x="353.2661055003567" y="326.9240140690874" type="curve" smooth="yes"/>
      <point x="406.09810396257103" y="440.061099058935" type="line"/>
      <point x="420.5953302133805" y="433.29128140756217" type="line"/>
      <point x="367.76333175116616" y="320.15419641771456" type="line" smooth="yes"/>
      <point x="366.22340062640495" y="316.85651085571135"/>
      <point x="362.6516429593808" y="315.01386786680916"/>
      <point x="359.07180946039233" y="315.67030526243224" type="curve" smooth="yes"/>
      <point x="204.82559743580484" y="343.95457650989414" type="line"/>
    </contour>
    <contour>
      <point x="379.4951494017604" y="479.95759279381014" type="line"/>
      <point x="368.49514940176044" y="322.97988737039657" type="line" smooth="yes"/>
      <point x="368.22622542258114" y="319.1421538081324"/>
      <point x="365.2637548626661" y="316.0392936576294"/>
      <point x="361.4425737084055" y="315.59309461254907" type="curve" smooth="yes"/>
      <point x="252.4425737084055" y="302.86517255119116" type="line"/>
      <point x="250.58686354311735" y="318.75719381289497" type="line"/>
      <point x="359.5868635431173" y="331.48511587425287" type="line" smooth="yes"/>
      <point x="363.4080446973779" y="331.9313149193332"/>
      <point x="352.2653638705831" y="320.2605895541412"/>
      <point x="352.5342878497624" y="324.09832311640537" type="curve" smooth="yes"/>
      <point x="363.53428784976234" y="481.07602853981894" type="line"/>
    </contour>
  </outline>
</glyph>
<glyph name="plus" format="2">
  <advance width="382"/>
  <unicode hex="002B"/>
  <outline>
    <contour>
      <point x="389.79393923934" y="213.7157287525381" type="line"/>
      <point x="152.20606076066002" y="213.7157287525381" type="line"/>
      <point x="152.20606076066002" y="229.7157287525381" type="line"/>
      <point x="389.79393923934" y="229.7157287525381" type="line"/>
    </contour>
    <contour>
      <point x="362.1177590850487" y="338.7192929631073" type="line"/>
      <point x="189.1177590850487" y="94.06034667256182" type="line"/>
      <point x="176.05381379020508" y="103.29795097959584" type="line"/>
      <point x="349.0538137902051" y="347.95689727014127" type="line"/>
    </contour>
    <contour>
      <point x="28.500087523916285" y="255.7098946670196" type="line"/>
      <point x="153.84070795748224" y="229.54694376311733" type="line" smooth="yes"/>
      <point x="160.4837819675374" y="228.16030295525422"/>
      <point x="148.34026612843132" y="211.96335279103346"/>
      <point x="145.14704381532798" y="217.95138554747365" type="curve" smooth="yes"/>
      <point x="83.306423381762" y="333.91689766206747" type="line"/>
      <point x="97.42445727242612" y="341.44558407219637" type="line"/>
      <point x="159.26507770599207" y="225.48007195760255" type="line" smooth="yes"/>
      <point x="162.45830001909542" y="219.49203920116236"/>
      <point x="157.21448757389297" y="212.49787293409577"/>
      <point x="150.5714135638378" y="213.88451374195887" type="curve" smooth="yes"/>
      <point x="25.23079313027184" y="240.04746464586114" type="line"/>
    </contour>
    <contour>
      <point x="423.44304948363174" y="335.941273374392" type="line"/>
      <point x="397.6024290500658" y="219.97576125979816" type="line" smooth="yes"/>
      <point x="396.36594087685455" y="214.42674649837932"/>
      <point x="389.89848677987703" y="211.9019864675225"/>
      <point x="385.22952475829186" y="215.14563587304255" type="curve" smooth="yes"/>
      <point x="347.5701451918578" y="241.30858677694482" type="line"/>
      <point x="356.69897415395405" y="254.44877253593592" type="line"/>
      <point x="394.3583537203881" y="228.28582163203365" type="line" smooth="yes"/>
      <point x="399.02731574197327" y="225.0421722265136"/>
      <point x="380.74896125540295" y="217.9066814838592"/>
      <point x="381.9854494286142" y="223.45569624527803" type="curve" smooth="yes"/>
      <point x="407.82606986218013" y="339.42120835987186" type="line"/>
    </contour>
    <contour>
      <point x="297.5827319451838" y="461.83577196759654" type="line"/>
      <point x="362.54467272230943" y="347.2844734153759" type="line" smooth="yes"/>
      <point x="366.12273476512246" y="340.9750613442241"/>
      <point x="346.1063974748029" y="338.1658235114873"/>
      <point x="347.8094189406797" y="345.21642111400143" type="curve" smooth="yes"/>
      <point x="375.4784664989918" y="459.7677196662221" type="line"/>
      <point x="391.0312014928862" y="456.0110676714678" type="line"/>
      <point x="363.3621539345741" y="341.45976911924714" type="line" smooth="yes"/>
      <point x="361.65913246869735" y="334.409171516733"/>
      <point x="352.2049621957574" y="333.0823047467209"/>
      <point x="348.62690015294436" y="339.3917168178727" type="curve" smooth="yes"/>
      <point x="283.66495937581874" y="453.94301537009335" type="line"/>
    </contour>
    <contour>
      <point x="153.1855681763936" y="131.84903670266465" type="line"/>
      <point x="187.51652061808142" y="104.97897901757585" type="line" smooth="yes"/>
      <point x="194.1920317510252" y="99.75420788650047"/>
      <point x="189.22273558584087" y="89.09731245395281"/>
      <point x="180.92936693177714" y="90.85251005706435" type="curve" smooth="yes"/>
      <point x="53.967426154651584" y="117.72256774215315" type="line"/>
      <point x="57.28026516635108" y="133.3758452801821" type="line"/>
      <point x="184.24220594347665" y="106.50578759509331" type="line" smooth="yes"/>
      <point x="192.53557459754037" y="104.75058999198177"/>
      <point x="184.33056339011617" y="87.15454750350642"/>
      <point x="177.65505225717237" y="92.37931863458181" type="curve" smooth="yes"/>
      <point x="143.32409981548454" y="119.2493763196706" type="line"/>
    </contour>
    <contour>
      <point x="143.73239658254442" y="255.7152965241451" type="line"/>
      <point x="271.19433735967004" y="229.55234562024282" type="line" smooth="yes"/>
      <point x="275.40073390572934" y="228.6889369380439"/>
      <point x="260.7890317688643" y="219.46709500005662"/>
      <point x="261.8195938701621" y="223.63569047222285" type="curve" smooth="yes"/>
      <point x="290.4886414284743" y="339.60120258681667" type="line"/>
      <point x="306.02102656340384" y="335.76127914744717" type="line"/>
      <point x="277.35197900509166" y="219.79576703285335" type="line" smooth="yes"/>
      <point x="276.3214169037938" y="215.62717156068712"/>
      <point x="272.18363206164304" y="213.01570320263446"/>
      <point x="267.97723551558374" y="213.87911188483338" type="curve" smooth="yes"/>
      <point x="140.51529473845818" y="240.04206278873565" type="line"/>
    </contour>
    <contour>
      <point x="212.62895333733348" y="341.54497823346344" type="line"/>
      <point x="276.5908941144591" y="225.57946611886965" type="line" smooth="yes"/>
      <point x="280.7548479794204" y="218.0300541325394"/>
      <point x="271.67462744307267" y="210.14123626332537"/>
      <point x="264.7811173903685" y="215.3192332005724" type="curve" smooth="yes"/>
      <point x="229.95016494868065" y="241.48218410447467" type="line"/>
      <point x="239.55950304319748" y="254.27517520840607" type="line"/>
      <point x="274.3904554848853" y="228.1122243045038" type="line" smooth="yes"/>
      <point x="281.2839655375895" y="222.93422736725677"/>
      <point x="266.74463262575597" y="210.3025793998763"/>
      <point x="262.5806787607947" y="217.85199138620655" type="curve" smooth="yes"/>
      <point x="198.61873798366906" y="333.8175035008004" type="line"/>
    </contour>
  </outline>
</glyph>
<glyph name="comma" format="2">
  <advance width="194"/>
  <unicode hex="002C"/>
  <outline>
    <contour>
      <point x="-173.99159547933633" y="-10.90470028669141" type="line"/>
      <point x="-64.4532164470629" y="14.325439475950798"/>
      <point x="18.154523908371694" y="47.24684746635405"/>
      <point x="75.34997035942142" y="79.48535938528578" type="curve"/>
      <point x="83.20637882668264" y="65.54703645906734" type="line"/>
      <point x="24.99642477735987" y="32.73669203723238"/>
      <point x="-58.91900102804319" y="-0.8187925632138928"/>
      <point x="-170.40032350645023" y="-26.49645341508473" type="curve"/>
    </contour>
    <contour>
      <point x="4.578691718938108" y="191.6948551332216" type="line"/>
      <point x="85.80408846335429" y="77.1435565810009" type="line" smooth="yes"/>
      <point x="89.61549259224181" y="71.76837455948156"/>
      <point x="69.64429639024128" y="68.69418615197314"/>
      <point x="71.66274785952926" y="74.96676431922579" type="curve" smooth="yes"/>
      <point x="108.52418357326651" y="189.5180628714465" type="line"/>
      <point x="123.75503704031205" y="184.61693007734806" type="line"/>
      <point x="86.8936013265748" y="70.06563152512733" type="line" smooth="yes"/>
      <point x="84.87514985728681" y="63.793053357874676"/>
      <point x="76.56366485163728" y="62.513657241832895"/>
      <point x="72.75226072274977" y="67.88883926335222" type="curve" smooth="yes"/>
      <point x="-8.473136021666425" y="182.44013781557294" type="line"/>
    </contour>
  </outline>
</glyph>
<glyph name="hyphen" format="2">
  <advance width="240"/>
  <unicode hex="002D"/>
  <outline>
    <contour>
      <point x="265.64905160289425" y="231.5411174154241" type="line"/>
      <point x="145.91146154965827" y="208.20659363626802" type="line"/>
      <point x="142.85094839710575" y="223.91115536982343" type="line"/>
      <point x="262.58853845034173" y="247.24567914897952" type="line"/>
    </contour>
    <contour>
      <point x="13.561920399371402" y="240.9639739778848" type="line"/>
      <point x="145.40254083293735" y="223.99341122940766" type="line" smooth="yes"/>
      <point x="152.1869025164912" y="223.12012623362648"/>
      <point x="141.45914065781804" y="205.94691473884387"/>
      <point x="137.69861244103905" y="211.66081162870276" type="curve" smooth="yes"/>
      <point x="68.35799200747311" y="317.0197220254983" type="line"/>
      <point x="81.72317707215905" y="325.8158477741843" type="line"/>
      <point x="151.06379750572498" y="220.4569373773887" type="line" smooth="yes"/>
      <point x="154.82432572250397" y="214.7430404875298"/>
      <point x="150.14423079738052" y="207.25105278090263"/>
      <point x="143.35986911382668" y="208.1243377766838" type="curve" smooth="yes"/>
      <point x="11.519248680260759" y="225.09490052516094" type="line"/>
    </contour>
    <contour>
      <point x="303.70977173459903" y="361.86127028503574" type="line"/>
      <point x="271.8691513010331" y="237.4104767962034" type="line" smooth="yes"/>
      <point x="270.26039821144275" y="231.12257801154047"/>
      <point x="262.22782806934924" y="229.2667008148164"/>
      <point x="258.0238059998857" y="234.21159273162263" type="curve" smooth="yes"/>
      <point x="227.36442643345163" y="270.27403857213653" type="line"/>
      <point x="239.55440448691616" y="280.63764967329485" type="line"/>
      <point x="270.21378405335025" y="244.575203832781" type="line" smooth="yes"/>
      <point x="274.4178061228138" y="239.63031191597477"/>
      <point x="254.75968566261247" y="235.0884209835373"/>
      <point x="256.36843875220285" y="241.37631976820023" type="curve" smooth="yes"/>
      <point x="288.20905918576875" y="365.8271132570326" type="line"/>
    </contour>
  </outline>
</glyph>
<glyph name="period" format="2">
  <advance width="191"/>
  <unicode hex="002E"/>
  <outline>
    <contour>
      <point x="1.1668792237576202" y="190.7751145642339" type="line"/>
      <point x="67.73542171868144" y="63.495893950655336" type="line" smooth="yes"/>
      <point x="71.1849202288299" y="56.90044412669565"/>
      <point x="64.5476281324925" y="49.58142614722831"/>
      <point x="57.64738332371219" y="52.371698522962724" type="curve" smooth="yes"/>
      <point x="24.423032599822562" y="65.80672736550713" type="line"/>
      <point x="30.421159171211656" y="80.6398820412191" type="line"/>
      <point x="63.645509895101284" y="67.2048531986747" type="line" smooth="yes"/>
      <point x="70.54575470388158" y="64.4145808229403"/>
      <point x="57.00697001028049" y="49.48520794702243"/>
      <point x="53.55747150013204" y="56.08065777098209" type="curve" smooth="yes"/>
      <point x="-13.011070994791782" y="183.35987838456066" type="line"/>
    </contour>
    <contour>
      <point x="-85.694309075511" y="81.19013132123182" type="line"/>
      <point x="61.37423341941278" y="67.75510247868742" type="line" smooth="yes"/>
      <point x="64.9719493417171" y="67.426443362581"/>
      <point x="51.889150026693" y="59.1871658587457"/>
      <point x="53.14705424520575" y="62.57379451409748" type="curve" smooth="yes"/>
      <point x="100.4227035213161" y="189.85301512767603" type="line"/>
      <point x="115.42148824971807" y="184.28197782111852" type="line"/>
      <point x="68.14583897360772" y="57.00275720753995" type="line" smooth="yes"/>
      <point x="66.88793475509497" y="53.616128552188165"/>
      <point x="63.51637572170503" y="51.492790126843595"/>
      <point x="59.91865979940069" y="51.82144924295002" type="curve" smooth="yes"/>
      <point x="-87.1498826955231" y="65.25647808549441" type="line"/>
    </contour>
  </outline>
</glyph>
<glyph name="slash" format="2">
  <advance width="346"/>
  <unicode hex="002F"/>
  <outline>
    <contour>
      <point x="538.6729503740761" y="483.15143841851426" type="line"/>
      <point x="7.153614390320035" y="-12.53041519325556" type="line"/>
      <point x="-3.758736811703079" y="-0.8291079481779953" type="line"/>
      <point x="527.760599172053" y="494.85274566359186" type="line"/>
    </contour>
    <contour>
      <point x="-41.39463121005165" y="27.13755903076868" type="line"/>
      <point x="5.664243292994049" y="0.2675013456798565" type="line" smooth="yes"/>
      <point x="13.481669313931937" y="-4.196155942127141"/>
      <point x="9.11152257567897" y="-16.170164490746437"/>
      <point x="0.2566892577138222" y="-14.548957259426633" type="curve" smooth="yes"/>
      <point x="-146.50424139263512" y="12.321100425662191" type="line"/>
      <point x="-143.6227423294458" y="28.0594918030819" type="line"/>
      <point x="3.138188320903134" y="1.1894341179930779" type="line" smooth="yes"/>
      <point x="11.993021638868292" y="-0.4317731133267282"/>
      <point x="5.548060306560803" y="-18.090681774920416"/>
      <point x="-2.2693657143770936" y="-13.627024487113413" type="curve" smooth="yes"/>
      <point x="-49.328240217422795" y="13.24303319797541" type="line"/>
    </contour>
    <contour>
      <point x="486.813372670025" y="606.9463886383577" type="line"/>
      <point x="540.4616049481657" y="492.395090086137" type="line" smooth="yes"/>
      <point x="543.4277462936516" y="486.0616970107926"/>
      <point x="523.1854543660384" y="485.497456079958"/>
      <point x="525.7941855911448" y="491.9862451598538" type="curve" smooth="yes"/>
      <point x="571.8480094603073" y="606.5375437120745" type="line"/>
      <point x="586.6931878241468" y="600.5692374744731" type="line"/>
      <point x="540.6393639549843" y="486.0179389222523" type="line" smooth="yes"/>
      <point x="538.0306327298779" y="479.5291498423565"/>
      <point x="528.9380859434493" y="479.2757009206248"/>
      <point x="525.9719445979634" y="485.60909399596915" type="curve" smooth="yes"/>
      <point x="472.3237123198226" y="600.1603925481899" type="line"/>
    </contour>
  </outline>
</glyph>
<glyph name="zero" format="2">
  <advance width="456"/>
  <unicode hex="0030"/>
  <outline>
    <contour>
      <point x="470.0" y="458.8183258569795" type="curve"/>
      <point x="470.0" y="458.8183258569795"/>
      <point x="470.0" y="458.8183258569795"/>
      <point x="470.0" y="458.8183258569795" type="curve"/>
      <point x="568.0966062290307" y="458.8183258569795"/>
      <point x="570.5400123803726" y="368.1469684659104"/>
      <point x="478.2315034777833" y="237.603023253431" type="curve"/>
      <point x="478.2315034777833" y="237.603023253431"/>
      <point x="478.2315034777833" y="237.603023253431"/>
      <point x="478.2315034777833" y="237.603023253431" type="curve"/>
      <point x="389.87686466219174" y="112.65069474184506"/>
      <point x="269.8948133324056" y="27.039538519289565"/>
      <point x="176.0" y="27.03953851928958" type="curve"/>
      <point x="176.0" y="27.03953851928958"/>
      <point x="176.0" y="27.03953851928958"/>
      <point x="176.0" y="27.03953851928958" type="curve"/>
      <point x="77.90339377096925" y="27.039538519289593"/>
      <point x="75.45998761962741" y="117.71089591035863"/>
      <point x="167.76849652221665" y="248.2548411228381" type="curve"/>
      <point x="167.76849652221665" y="248.2548411228381"/>
      <point x="167.76849652221665" y="248.2548411228381"/>
      <point x="167.76849652221665" y="248.2548411228381" type="curve"/>
      <point x="256.1231353378082" y="373.20716963442396"/>
      <point x="376.10518666759435" y="458.8183258569795"/>
    </contour>
    <contour>
      <point x="470.0" y="442.8183258569795" type="curve"/>
      <point x="380.06450511936856" y="442.8183258569795"/>
      <point x="265.46137801557563" y="358.700626156952"/>
      <point x="180.83244181706027" y="239.01723681580407" type="curve"/>
      <point x="180.83244181706027" y="239.01723681580407"/>
      <point x="180.83244181706027" y="239.01723681580407"/>
      <point x="180.83244181706027" y="239.01723681580407" type="curve"/>
      <point x="100.31533930651965" y="125.14885844241266"/>
      <point x="90.43416654022614" y="43.03953851928959"/>
      <point x="176.0" y="43.03953851928958" type="curve"/>
      <point x="176.0" y="43.03953851928958"/>
      <point x="176.0" y="43.03953851928958"/>
      <point x="176.0" y="43.03953851928958" type="curve"/>
      <point x="265.9354948806314" y="43.039538519289565"/>
      <point x="380.53862198442425" y="127.15723821931705"/>
      <point x="465.1675581829397" y="246.840627560465" type="curve"/>
      <point x="465.1675581829397" y="246.840627560465"/>
      <point x="465.1675581829397" y="246.840627560465"/>
      <point x="465.1675581829397" y="246.840627560465" type="curve"/>
      <point x="545.6846606934804" y="360.70900593385636"/>
      <point x="555.5658334597738" y="442.8183258569795"/>
      <point x="470.0" y="442.8183258569795" type="curve"/>
      <point x="470.0" y="442.8183258569795"/>
      <point x="470.0" y="442.8183258569795"/>
    </contour>
  </outline>
</glyph>
<glyph name="one" format="2">
  <advance width="278"/>
  <unicode hex="0031"/>
  <outline>
    <contour>
      <point x="457.0811835623779" y="560.4262729975518" type="line"/>
      <point x="409.09842750508096" y="433.1470523839733" type="line" smooth="yes"/>
      <point x="407.829596736332" y="429.78134760569725"/>
      <point x="404.4705209102621" y="427.67627026742895"/>
      <point x="400.8883654070273" y="428.0019420729002" type="curve" smooth="yes"/>
      <point x="253.112716130917" y="441.4369709154446" type="line"/>
      <point x="254.5613820612784" y="457.37125367376825" type="line"/>
      <point x="402.3370313373888" y="443.93622483122385" type="line" smooth="yes"/>
      <point x="405.9191868406236" y="443.6105530257526"/>
      <point x="392.8581384705862" y="435.4254097418747"/>
      <point x="394.12696923933515" y="438.79111452015076" type="curve" smooth="yes"/>
      <point x="442.10972529663206" y="566.0703351337294" type="line"/>
    </contour>
    <contour>
      <point x="117.63750054620583" y="76.08415827680581" type="line"/>
      <point x="127.92682242755104" y="49.214100591717006" type="line" smooth="yes"/>
      <point x="130.14435475792723" y="43.42312405090264"/>
      <point x="125.21523895075113" y="37.42010536466802"/>
      <point x="119.1034498373984" y="38.468386227046544" type="curve" smooth="yes"/>
      <point x="-37.55697574956218" y="65.33844391213535" type="line"/>
      <point x="-34.85218717892753" y="81.10816549459088" type="line"/>
      <point x="121.80823840803303" y="54.23810780950209" type="line" smooth="yes"/>
      <point x="127.92002752138576" y="53.189826947123564"/>
      <point x="115.20239814825659" y="37.701416904017265"/>
      <point x="112.98486581788039" y="43.49239344483163" type="curve" smooth="yes"/>
      <point x="102.69554393653517" y="70.36245112992042" type="line"/>
    </contour>
    <contour>
      <point x="274.0354766243963" y="416.13498402350245" type="line"/>
      <point x="312.38431281026664" y="426.09581403190197"/>
      <point x="363.0012543517603" y="437.45008526112105"/>
      <point x="400.2575768084072" y="443.85347598080654" type="curve" smooth="yes"/>
      <point x="407.47985781516394" y="445.0947978323511"/>
      <point x="412.4314539239025" y="436.77948532296483"/>
      <point x="407.8989902008909" y="431.02110052518816" type="curve" smooth="yes"/>
      <point x="380.12388696548453" y="395.73350816886756"/>
      <point x="350.25161129177917" y="355.4771310641429"/>
      <point x="271.9020303325106" y="244.67409106529647" type="curve" smooth="yes"/>
      <point x="271.89490118346504" y="244.664008926028"/>
      <point x="271.88774870120903" y="244.65394330609791"/>
      <point x="271.88057294325273" y="244.6438942864395" type="curve" smooth="yes"/>
      <point x="126.96635938087967" y="41.70424808590034" type="line"/>
      <point x="113.94532886455177" y="51.002245950648295" type="line"/>
      <point x="258.85954242692486" y="253.94189215118746" type="line" smooth="yes"/>
      <point x="258.86671818488117" y="253.95194117084588"/>
      <point x="258.8309558886214" y="253.90161323306202"/>
      <point x="258.838085037667" y="253.91169537233048" type="curve" smooth="yes"/>
      <point x="337.4688174770777" y="365.1123436074752"/>
      <point x="367.45163447402786" y="405.50284719576877"/>
      <point x="395.3264065435252" y="440.9170663789359" type="curve" smooth="yes"/>
      <point x="399.85887026653677" y="446.67545117671256"/>
      <point x="410.1901009427657" y="429.3260127748621"/>
      <point x="402.96781993600894" y="428.0846909233175" type="curve" smooth="yes"/>
      <point x="366.1594231314276" y="421.7582869477445"/>
      <point x="315.9456612138725" y="410.489926798962"/>
      <point x="278.0578857640555" y="400.6488539480709" type="curve"/>
    </contour>
    <contour>
      <point x="128.97501456028579" y="412.14594120598645" type="line"/>
      <point x="275.81563499385175" y="416.38858189310577" type="line" smooth="yes"/>
      <point x="281.92052335415394" y="416.5649693781985"/>
      <point x="272.30748529242356" y="399.04744530105756"/>
      <point x="269.1772891180154" y="404.2917418550647" type="curve" smooth="yes"/>
      <point x="203.33666868444942" y="514.600399720166" type="line"/>
      <point x="217.0754528368705" y="522.8007539816101" type="line"/>
      <point x="282.91607327043647" y="412.49209611650866" type="line" smooth="yes"/>
      <point x="286.04626944484465" y="407.24779956250154"/>
      <point x="282.3826157549023" y="400.5716435635603"/>
      <point x="276.2777273946001" y="400.3952560784676" type="curve" smooth="yes"/>
      <point x="129.4371069610342" y="396.15261539134826" type="line"/>
    </contour>
  </outline>
</glyph>
<glyph name="two" format="2">
  <advance width="367"/>
  <unicode hex="0032"/>
  <outline>
    <contour>
      <point x="305.9950254294077" y="440.88672175411045" type="line"/>
      <point x="339.60343031661944" y="449.56260467282806"/>
      <point x="370.64707026849817" y="454.5756851698602"/>
      <point x="397.39770926787753" y="454.5756851698602" type="curve"/>
      <point x="397.39770926787753" y="454.5756851698602"/>
      <point x="397.39770926787753" y="454.5756851698602"/>
      <point x="397.39770926787753" y="454.5756851698602" type="curve"/>
      <point x="479.1674356578446" y="454.5756851698602"/>
      <point x="502.95740032261233" y="412.00322543882913"/>
      <point x="457.13783471701237" y="347.2045743373459" type="curve"/>
      <point x="457.13783471701237" y="347.2045743373459"/>
      <point x="457.13783471701237" y="347.2045743373459"/>
      <point x="457.13783471701237" y="347.2045743373459" type="curve"/>
      <point x="418.04808653326006" y="291.92332230613425"/>
      <point x="355.6332139967154" y="252.94873750125555"/>
      <point x="282.8107699388661" y="209.88010947939728" type="curve"/>
      <point x="282.8107699388661" y="209.88010947939728"/>
      <point x="282.8107699388661" y="209.88010947939728"/>
      <point x="282.8107699388661" y="209.88010947939728" type="curve"/>
      <point x="207.9566620567337" y="165.60991544797193"/>
      <point x="122.2423092270393" y="117.11473345346828"/>
      <point x="42.883305784324826" y="42.64100878679902" type="curve" smooth="yes"/>
      <point x="37.79266133063628" y="37.863740462183834"/>
      <point x="31.00304892320655" y="56.942305086202765"/>
      <point x="37.96721035867849" y="56.45505863939485" type="curve" smooth="yes"/>
      <point x="78.09533840669104" y="53.64750054505514"/>
      <point x="176.27659847984842" y="55.07328455479005"/>
      <point x="240.1132734005466" y="59.98651121988449" type="curve"/>
      <point x="241.34109142575406" y="44.03369131564888" type="line"/>
      <point x="176.5343374354756" y="39.04580195300898"/>
      <point x="77.58842849507323" y="37.64385359133599"/>
      <point x="36.850502753663115" y="40.494076084273104" type="curve" smooth="yes"/>
      <point x="29.886341318191175" y="40.98132253108102"/>
      <point x="26.843762874328238" y="49.53085761225375"/>
      <point x="31.934407328016785" y="54.30812593686893" type="curve" smooth="yes"/>
      <point x="112.29932215007979" y="129.72583885760875"/>
      <point x="198.86297179795557" y="178.82051425982044"/>
      <point x="274.6658894640209" y="223.6518530890673" type="curve"/>
      <point x="274.6658894640209" y="223.6518530890673"/>
      <point x="274.6658894640209" y="223.6518530890673"/>
      <point x="274.6658894640209" y="223.6518530890673" type="curve"/>
      <point x="345.2940010269564" y="265.42270964496583"/>
      <point x="406.16201855038173" y="302.82669668256113"/>
      <point x="444.07388942216875" y="356.44217864437985" type="curve"/>
      <point x="444.07388942216875" y="356.44217864437985"/>
      <point x="444.07388942216875" y="356.44217864437985"/>
      <point x="444.07388942216875" y="356.44217864437985" type="curve"/>
      <point x="482.2250903843055" y="410.39612446585534"/>
      <point x="465.4824504235491" y="438.5756851698602"/>
      <point x="397.39770926787753" y="438.5756851698602" type="curve"/>
      <point x="397.39770926787753" y="438.5756851698602"/>
      <point x="397.39770926787753" y="438.5756851698602"/>
      <point x="397.39770926787753" y="438.5756851698602" type="curve"/>
      <point x="371.82627442806125" y="438.5756851698602"/>
      <point x="342.12116173850825" y="433.68802922694806"/>
      <point x="309.9942605581876" y="425.39459090052117" type="curve"/>
    </contour>
    <contour>
      <point x="159.31112995741833" y="434.7693434599765" type="line"/>
      <point x="307.65175039098426" y="441.1333044906554" type="line" smooth="yes"/>
      <point x="313.72597573659897" y="441.3938948352156"/>
      <point x="304.29896276738594" y="423.7968846830013"/>
      <point x="301.1507209075616" y="428.9981051233437" type="curve" smooth="yes"/>
      <point x="234.8101004739957" y="538.5996562072587" type="line"/>
      <point x="248.49794464646777" y="546.8847586152028" type="line"/>
      <point x="314.8385650800337" y="437.2832075312879" type="line" smooth="yes"/>
      <point x="317.986806939858" y="432.0819870909455"/>
      <point x="314.4117609422257" y="425.4085985085364"/>
      <point x="308.337535596611" y="425.1480081639762" type="curve" smooth="yes"/>
      <point x="159.9969151630451" y="418.7840471332973" type="line"/>
    </contour>
    <contour>
      <point x="304.1276402050826" y="187.6067491892556" type="line"/>
      <point x="248.14488414778577" y="49.01382007669226" type="line" smooth="yes"/>
      <point x="246.3813901995041" y="44.64805088314821"/>
      <point x="241.2474958210038" y="42.741923155832694"/>
      <point x="237.0621798742728" y="44.89900034104505" type="curve" smooth="yes"/>
      <point x="195.90280030783876" y="66.11220377664148" type="line"/>
      <point x="203.23280538559382" y="80.33440563008475" type="line"/>
      <point x="244.39218495202786" y="59.12120219448832" type="line" smooth="yes"/>
      <point x="248.57750089875887" y="56.96412500927596"/>
      <point x="231.5459867302332" y="50.640613265297056"/>
      <point x="233.3094806785149" y="55.00638245884111" type="curve" smooth="yes"/>
      <point x="289.29223673581174" y="193.59931157140443" type="line"/>
    </contour>
    <contour>
      <point x="-104.540939195206" y="81.10661772921866" type="line"/>
      <point x="38.77024398683714" y="56.35788038768952" type="line" smooth="yes"/>
      <point x="42.3565649066864" y="55.73855039196241"/>
      <point x="28.619928491132175" y="48.47127322580569"/>
      <point x="30.1257267959536" y="51.7845554125433" type="curve" smooth="yes"/>
      <point x="81.5435116957949" y="164.9216404023909" type="line"/>
      <point x="96.10977121622932" y="158.30166430097222" type="line"/>
      <point x="44.691986316388004" y="45.164579311124655" type="line" smooth="yes"/>
      <point x="43.18618801156658" y="41.851297124387045"/>
      <point x="39.633790045353734" y="39.97192434025133"/>
      <point x="36.04746912550447" y="40.591254335978434" type="curve" smooth="yes"/>
      <point x="-107.26371405653865" y="65.33999167750757" type="line"/>
    </contour>
  </outline>
</glyph>
<glyph name="three" format="2">
  <advance width="369"/>
  <unicode hex="0033"/>
  <outline>
    <contour>
      <point x="319.1076818910177" y="440.40280685839895" type="line"/>
      <point x="367.5396215100159" y="444.6610189496674"/>
      <point x="423.7249318973484" y="446.7975105768082"/>
      <point x="501.79215357060593" y="446.7975105768082" type="curve" smooth="yes"/>
      <point x="509.5753254264457" y="446.7975105768082"/>
      <point x="512.7752625275309" y="436.810280902651"/>
      <point x="506.44132492702755" y="432.2871184458664" type="curve" smooth="yes"/>
      <point x="257.9047450005682" y="254.803316368043" type="line" smooth="yes"/>
      <point x="251.78696646676443" y="250.4345164321508"/>
      <point x="246.2800821364292" y="269.7905089150784"/>
      <point x="253.78138159057733" y="269.29641017219484" type="curve" smooth="yes"/>
      <point x="357.55909371550524" y="262.46073624480545"/>
      <point x="377.0296977834878" y="210.50034706714112"/>
      <point x="328.69418390311654" y="142.14360779324707" type="curve"/>
      <point x="328.69418390311654" y="142.14360779324707"/>
      <point x="328.69418390311654" y="142.14360779324707"/>
      <point x="328.69418390311654" y="142.14360779324707" type="curve"/>
      <point x="278.65516045279855" y="71.37774218190201"/>
      <point x="188.03030608043278" y="28.45375208166263"/>
      <point x="104.86217536194482" y="28.45375208166263" type="curve"/>
      <point x="104.86217536194482" y="28.45375208166263"/>
      <point x="104.86217536194482" y="28.45375208166263"/>
      <point x="104.86217536194482" y="28.45375208166263" type="curve"/>
      <point x="79.46205884052583" y="28.45375208166263"/>
      <point x="57.74117602256321" y="33.73869775356737"/>
      <point x="39.42715515244139" y="42.703444761126974" type="curve"/>
      <point x="46.46162577176564" y="57.07411708728708" type="line"/>
      <point x="62.8160959750687" y="49.06857374674874"/>
      <point x="82.17980256375274" y="44.45375208166263"/>
      <point x="104.86217536194482" y="44.45375208166263" type="curve"/>
      <point x="104.86217536194482" y="44.45375208166263"/>
      <point x="104.86217536194482" y="44.45375208166263"/>
      <point x="104.86217536194482" y="44.45375208166263" type="curve"/>
      <point x="182.90685508757068" y="44.45375208166263"/>
      <point x="268.67379597543373" y="84.97477408812571"/>
      <point x="315.6302386082729" y="151.3812121002811" type="curve"/>
      <point x="315.6302386082729" y="151.3812121002811"/>
      <point x="315.6302386082729" y="151.3812121002811"/>
      <point x="315.6302386082729" y="151.3812121002811" type="curve"/>
      <point x="357.26768431820597" y="210.26545252584197"/>
      <point x="342.126536469558" y="247.4425827832186"/>
      <point x="252.72976569771583" y="253.33100682577475" type="curve" smooth="yes"/>
      <point x="245.22846624356774" y="253.82510556865833"/>
      <point x="242.48862375392122" y="263.4553006940344"/>
      <point x="248.60640228772496" y="267.8241006299266" type="curve" smooth="yes"/>
      <point x="497.1429822141843" y="445.30790270775" type="line" smooth="yes"/>
      <point x="503.4769198146877" y="449.8310651645346"/>
      <point x="509.5753254264457" y="430.7975105768082"/>
      <point x="501.79215357060593" y="430.7975105768082" type="curve" smooth="yes"/>
      <point x="424.31459938282524" y="430.7975105768082"/>
      <point x="368.5751382923066" y="428.69034064410215"/>
      <point x="320.50902109454717" y="424.4642922338597" type="curve"/>
    </contour>
    <contour>
      <point x="184.63172518630077" y="451.71965491175314" type="line"/>
      <point x="320.47234561986676" y="440.40594641276846" type="line" smooth="yes"/>
      <point x="326.62160194450735" y="439.89379553094483"/>
      <point x="315.2338753845309" y="423.4252300465267"/>
      <point x="312.5837436885558" y="428.99770291464125" type="curve" smooth="yes"/>
      <point x="254.74312325498985" y="550.6200692787273" type="line"/>
      <point x="269.1923388634431" y="557.4917625417035" type="line"/>
      <point x="327.0329592970091" y="435.8693961776174" type="line" smooth="yes"/>
      <point x="329.6830909929842" y="430.2969233095028"/>
      <point x="325.2936136903387" y="423.94900179766654"/>
      <point x="319.1443573656981" y="424.46115267949017" type="curve" smooth="yes"/>
      <point x="183.30373693213218" y="435.77486117847485" type="line"/>
    </contour>
    <contour>
      <point x="-75.26661825751546" y="90.83413894957722" type="line"/>
      <point x="45.07400217605044" y="57.60012023380948" type="line" smooth="yes"/>
      <point x="51.015973828368416" y="55.95914816311358"/>
      <point x="36.76469074942681" y="41.90059415154717"/>
      <point x="35.20477110927337" y="47.86435698804712" type="curve" smooth="yes"/>
      <point x="-3.6358493242925585" y="196.3567810372221" type="line"/>
      <point x="11.843389381367722" y="200.40562890954192" type="line"/>
      <point x="50.68400981493365" y="51.91320486036693" type="line" smooth="yes"/>
      <point x="52.24392945508709" y="45.94944202386698"/>
      <point x="46.75675040047456" y="40.53646954390868"/>
      <point x="40.814778748156584" y="42.177441614604575" type="curve" smooth="yes"/>
      <point x="-79.52584168540932" y="75.41146033037232" type="line"/>
    </contour>
    <contour>
      <point x="338.28239364027837" y="472.15951478719927" type="line"/>
      <point x="503.01388703910453" y="446.7036706644835" type="line" smooth="yes"/>
      <point x="506.30663744255014" y="446.1948442143876"/>
      <point x="493.186792226575" y="439.82165202913114"/>
      <point x="494.82228342356956" y="442.7244572448254" type="curve" smooth="yes"/>
      <point x="559.7608836035821" y="557.9828625782326" type="line"/>
      <point x="573.7006238976547" y="550.1289692421982" type="line"/>
      <point x="508.7620237176423" y="434.870563908791" type="line" smooth="yes"/>
      <point x="507.12653252064774" y="431.96775869309675"/>
      <point x="503.86317050555294" y="430.3825240390369"/>
      <point x="500.57042010210733" y="430.89135048913283" type="curve" smooth="yes"/>
      <point x="335.8389267032812" y="456.3471946118486" type="line"/>
    </contour>
    <contour>
      <point x="98.69057957344889" y="301.6726030555846" type="line"/>
      <point x="254.88653906634215" y="269.14569112100344" type="line" smooth="yes"/>
      <point x="258.5014882923436" y="268.3928986960017"/>
      <point x="244.44502484079226" y="261.40743216419355"/>
      <point x="246.02803777051423" y="264.74339145741664" type="curve" smooth="yes"/>
      <point x="295.68846335747486" y="369.39519507302566" type="line"/>
      <point x="310.14353510473956" y="362.535829156162" type="line"/>
      <point x="260.4831095177789" y="257.88402554055295" type="line" smooth="yes"/>
      <point x="258.90009658805695" y="254.54806624732987"/>
      <point x="255.23955744795245" y="252.72893345196437"/>
      <point x="251.624608221951" y="253.48172587696612" type="curve" smooth="yes"/>
      <point x="95.42864872905771" y="286.0086378115473" type="line"/>
    </contour>
  </outline>
</glyph>
<glyph name="four" format="2">
  <advance width="409"/>
  <unicode hex="0034"/>
  <outline>
    <contour>
      <point x="225.70922378164218" y="76.57779261089566" type="line"/>
      <point x="238.11986600654703" y="49.70773492580686" type="line" smooth="yes"/>
      <point x="240.83325029769367" y="43.83303552639819"/>
      <point x="235.8118768715036" y="37.33521072748964"/>
      <point x="229.4427573779223" y="38.47926676691095" type="curve" smooth="yes"/>
      <point x="79.85339960282721" y="65.34932445199975" type="line"/>
      <point x="82.68213430310556" y="81.09728495472648" type="line"/>
      <point x="232.27149207820065" y="54.22722726963768" type="line" smooth="yes"/>
      <point x="238.64061157178196" y="53.083171230216365"/>
      <point x="226.30776774072257" y="37.1240597113331"/>
      <point x="223.59438344957593" y="42.99875911074177" type="curve" smooth="yes"/>
      <point x="211.18374122467108" y="69.86881679583057" type="line"/>
    </contour>
    <contour>
      <point x="378.6891231902759" y="144.41926419625645" type="line"/>
      <point x="97.9677310592165" y="144.41926419625645" type="line" smooth="yes"/>
      <point x="90.44212488292938" y="144.41926419625645"/>
      <point x="87.07996770315987" y="153.8654168241216"/>
      <point x="92.91320521080704" y="158.62021319199576" type="curve" smooth="yes"/>
      <point x="445.1127360411685" y="445.70556635373407" type="line" smooth="yes"/>
      <point x="446.54026929931007" y="446.86917917456174"/>
      <point x="448.32556538909404" y="447.50461735799473"/>
      <point x="450.16726188957796" y="447.50461735799473" type="curve" smooth="yes"/>
      <point x="508.8571247280614" y="447.50461735799473" type="line" smooth="yes"/>
      <point x="515.3466651057194" y="447.50461735799473"/>
      <point x="519.1358352594409" y="440.1845027346279"/>
      <point x="515.3890973754832" y="434.88581520447775" type="curve" smooth="yes"/>
      <point x="237.3890973754833" y="41.734444864757315" type="line"/>
      <point x="224.32515208063967" y="50.97204917179132" type="line"/>
      <point x="502.3251520806396" y="444.1234195115117" type="line" smooth="yes"/>
      <point x="506.07188996459735" y="449.42210704166183"/>
      <point x="515.3466651057194" y="431.50461735799473"/>
      <point x="508.8571247280614" y="431.50461735799473" type="curve" smooth="yes"/>
      <point x="450.16726188957796" y="431.50461735799473" type="line" smooth="yes"/>
      <point x="448.32556538909404" y="431.50461735799473"/>
      <point x="456.649320996129" y="434.46728118308306"/>
      <point x="455.2217877379874" y="433.3036683622554" type="curve" smooth="yes"/>
      <point x="103.02225690762597" y="146.21831520051714" type="line" smooth="yes"/>
      <point x="97.1890193999788" y="141.463518832643"/>
      <point x="90.44212488292938" y="160.41926419625645"/>
      <point x="97.9677310592165" y="160.41926419625645" type="curve" smooth="yes"/>
      <point x="378.6891231902759" y="160.41926419625645" type="line"/>
    </contour>
    <contour>
      <point x="415.33668668375515" y="556.8291371074463" type="line"/>
      <point x="457.6712104629112" y="442.27783855522557" type="line" smooth="yes"/>
      <point x="459.52523213584413" y="437.26111529441016"/>
      <point x="456.02931462027607" y="431.8730220842773"/>
      <point x="450.69249847942706" y="431.5218780709653" type="curve" smooth="yes"/>
      <point x="353.97067307247914" y="425.15791704028635" type="line" smooth="yes"/>
      <point x="343.45806239683543" y="424.46622367750075"/>
      <point x="342.59159864676303" y="440.7029064658977"/>
      <point x="353.1181183932529" y="441.1339574519055" type="curve" smooth="yes"/>
      <point x="508.5298066386843" y="447.4979184825844" type="line" smooth="yes"/>
      <point x="511.59831125451575" y="447.6235708322762"/>
      <point x="500.2954653745027" y="439.86447594686354"/>
      <point x="501.51552191893" y="442.6828036635711" type="curve" smooth="yes"/>
      <point x="551.104879694025" y="557.2341022157918" type="line"/>
      <point x="565.788085312288" y="550.877729604639" type="line"/>
      <point x="516.1987275371929" y="436.32643105241834" type="line" smooth="yes"/>
      <point x="514.9786709927656" y="433.50810333571076"/>
      <point x="512.25294743327" y="431.63696858309686"/>
      <point x="509.18444281743854" y="431.51131623340507" type="curve" smooth="yes"/>
      <point x="353.77275457200716" y="425.14735520272615" type="line" smooth="yes"/>
      <point x="343.24623482551726" y="424.71630421671836"/>
      <point x="342.40758921713723" y="440.43170225155967"/>
      <point x="352.92019989278094" y="441.12339561434527" type="curve" smooth="yes"/>
      <point x="449.64202529972886" y="447.4873566450242" type="line" smooth="yes"/>
      <point x="454.97884144057787" y="447.8385006583362"/>
      <point x="444.5173349891777" y="431.7146728999485"/>
      <point x="442.66331331624474" y="436.7313961607639" type="curve" smooth="yes"/>
      <point x="400.3287895370887" y="551.2826947129845" type="line"/>
    </contour>
    <contour>
      <point x="-49.645565223537645" y="190.6637569392466" type="line"/>
      <point x="99.56511289511708" y="160.25816534822508" type="line" smooth="yes"/>
      <point x="103.24637278194226" y="159.50801203433016"/>
      <point x="89.13159504156793" y="152.2266385844882"/>
      <point x="90.65407190671145" y="155.66123733016408" type="curve" smooth="yes"/>
      <point x="139.8647500253662" y="266.67700197645206" type="line"/>
      <point x="154.49206833037633" y="260.19305570863673" type="line"/>
      <point x="105.28139021172156" y="149.17729106234881" type="line" smooth="yes"/>
      <point x="103.75891334657804" y="145.74269231667293"/>
      <point x="100.0516091101411" y="143.8302097303929"/>
      <point x="96.37034922331593" y="144.58036304428782" type="curve" smooth="yes"/>
      <point x="-52.8403288953388" y="174.98595463530935" type="line"/>
    </contour>
    <contour>
      <point x="419.76585579371397" y="276.953592835073" type="line"/>
      <point x="386.42523536014806" y="150.38147900268098" type="line" smooth="yes"/>
      <point x="385.24029752777506" y="145.8830598295203"/>
      <point x="380.4817940773953" y="143.34037749057921"/>
      <point x="376.08357056942714" y="144.8554625370385" type="curve" smooth="yes"/>
      <point x="330.92419100299304" y="160.41181172314253" type="line"/>
      <point x="336.13529624469055" y="175.53941504157842" type="line"/>
      <point x="381.29467581112465" y="159.9830658554744" type="line" smooth="yes"/>
      <point x="385.6928993190928" y="158.4679808090151"/>
      <point x="369.7680731880307" y="149.95863021667125"/>
      <point x="370.9530110204037" y="154.45704938983192" type="curve" smooth="yes"/>
      <point x="404.2936314539696" y="281.02916322222393" type="line"/>
    </contour>
    <contour>
      <point x="241.59927111611336" y="267.745192159386" type="line"/>
      <point x="312.5967457991717" y="156.72942751309807" type="line" smooth="yes"/>
      <point x="317.80396901958915" y="148.5871116056776"/>
      <point x="306.7904593623806" y="139.90761488595896"/>
      <point x="300.0909451512002" y="146.87389017033288" type="curve" smooth="yes"/>
      <point x="272.20974017781816" y="175.86526819898134" type="line"/>
      <point x="283.74209933154077" y="186.95601625082847" type="line"/>
      <point x="311.6233043049228" y="157.96463822218" type="line" smooth="yes"/>
      <point x="318.3228185161032" y="150.9983629378061"/>
      <point x="304.32472687736873" y="139.96678497199434"/>
      <point x="299.11750365695127" y="148.10910087941483" type="curve" smooth="yes"/>
      <point x="228.12002897389294" y="259.1248655257028" type="line"/>
    </contour>
    <contour>
      <point x="177.55869539771382" y="190.61499498576748" type="line"/>
      <point x="307.6774904243318" y="160.20940339474595" type="line" smooth="yes"/>
      <point x="311.9104883668537" y="159.22025492761153"/>
      <point x="297.0249865464392" y="150.20792491605556"/>
      <point x="298.1106275939722" y="154.4172086778541" type="curve" smooth="yes"/>
      <point x="327.1081022770305" y="266.84718688651515" type="line"/>
      <point x="342.6010965452091" y="262.85129792331986" type="line"/>
      <point x="313.60362186215076" y="150.4213197146588" type="line" smooth="yes"/>
      <point x="312.5179808146178" y="146.21203595286028"/>
      <point x="308.2697569743131" y="143.63997653063254"/>
      <point x="304.0367590317912" y="144.62912499776695" type="curve" smooth="yes"/>
      <point x="173.91796400517327" y="175.03471658878848" type="line"/>
    </contour>
  </outline>
</glyph>
<glyph name="five" format="2">
  <advance width="373"/>
  <unicode hex="0035"/>
  <outline>
    <contour>
      <point x="41.972320310347676" y="57.74062113936614" type="line"/>
      <point x="59.18931657180904" y="49.06794918711628"/>
      <point x="79.23005509544693" y="44.45375208166263"/>
      <point x="101.912427893639" y="44.45375208166263" type="curve"/>
      <point x="101.912427893639" y="44.45375208166263"/>
      <point x="101.912427893639" y="44.45375208166263"/>
      <point x="101.912427893639" y="44.45375208166263" type="curve"/>
      <point x="180.03413990101652" y="44.45375208166262"/>
      <point x="265.1644269270635" y="87.18334965980208"/>
      <point x="315.5591707964074" y="158.45227991214654" type="curve"/>
      <point x="315.5591707964074" y="158.45227991214654"/>
      <point x="315.5591707964074" y="158.45227991214657"/>
      <point x="315.5591707964074" y="158.45227991214657" type="curve"/>
      <point x="366.05024965964896" y="229.85744841939268"/>
      <point x="337.7813956317254" y="267.0298594341193"/>
      <point x="200.00593205004898" y="249.83972627496757" type="curve" smooth="yes"/>
      <point x="192.8789850829493" y="248.9505028661127"/>
      <point x="188.28136615295992" y="257.1753830201202"/>
      <point x="192.7722385006547" y="262.78039478633593" type="curve" smooth="yes"/>
      <point x="337.2428012491318" y="443.0926239889056" type="line" smooth="yes"/>
      <point x="338.76870305624107" y="444.9970864008304"/>
      <point x="341.0804227954039" y="446.100925037927"/>
      <point x="343.52075906610486" y="446.09032837453634" type="curve" smooth="yes"/>
      <point x="506.36242552019735" y="445.3832215933498" type="line"/>
      <point x="506.2929494328798" y="429.38337243552047" type="line"/>
      <point x="343.45128297878733" y="430.090479216707" type="line" smooth="yes"/>
      <point x="341.01094670808635" y="430.1010758800977"/>
      <point x="351.2551426028697" y="434.9926460142626"/>
      <point x="349.7292407957604" y="433.0881836023378" type="curve" smooth="yes"/>
      <point x="205.25867804728327" y="252.7759543997681" type="line" smooth="yes"/>
      <point x="200.76780569958845" y="247.1709426335523"/>
      <point x="190.89803753078925" y="264.82739950228165"/>
      <point x="198.024984497889" y="265.7166229111365" type="curve" smooth="yes"/>
      <point x="354.71848335673104" y="285.2671440310315"/>
      <point x="386.04715664654833" y="230.42453256467692"/>
      <point x="328.623116091251" y="149.21467560511255" type="curve"/>
      <point x="328.623116091251" y="149.21467560511255"/>
      <point x="328.623116091251" y="149.21467560511257"/>
      <point x="328.623116091251" y="149.21467560511257" type="curve"/>
      <point x="275.0266389692134" y="73.41781076370741"/>
      <point x="184.99745281594844" y="28.45375208166262"/>
      <point x="101.912427893639" y="28.45375208166263" type="curve"/>
      <point x="101.912427893639" y="28.45375208166263"/>
      <point x="101.912427893639" y="28.45375208166263"/>
      <point x="101.912427893639" y="28.45375208166263" type="curve"/>
      <point x="76.51231137222001" y="28.45375208166263"/>
      <point x="54.05421757812122" y="33.73934501323144"/>
      <point x="34.7743249901284" y="43.45115427142102" type="curve"/>
    </contour>
    <contour>
      <point x="540.4719050363567" y="552.2941350239674" type="line"/>
      <point x="514.1312846027907" y="435.6215161281872" type="line" smooth="yes"/>
      <point x="513.2260327535862" y="431.61181163875335"/>
      <point x="509.42933604063086" y="428.9407270746633"/>
      <point x="505.3495550725255" y="429.4433186139469" type="curve" smooth="yes"/>
      <point x="453.69017550609146" y="435.80727964462574" type="line"/>
      <point x="455.6464403141176" y="451.68723644560225" type="line"/>
      <point x="507.30581988055167" y="445.3232754149234" type="line" smooth="yes"/>
      <point x="511.3856008486571" y="444.8206838756398"/>
      <point x="497.6188385010818" y="435.1353734112492"/>
      <point x="498.5240903502864" y="439.1450779006831" type="curve" smooth="yes"/>
      <point x="524.8647107838524" y="555.8176967964633" type="line"/>
    </contour>
    <contour>
      <point x="-80.38793328285276" y="90.84783965761636" type="line"/>
      <point x="40.45268715071314" y="58.32092772303517" type="line" smooth="yes"/>
      <point x="46.39773968080707" y="56.720686021205"/>
      <point x="32.22630250570858" y="42.588480732309115"/>
      <point x="30.642547883013687" y="48.53794662303789" type="curve" smooth="yes"/>
      <point x="-8.698072550552244" y="196.32326389102633" type="line"/>
      <point x="6.763476983896457" y="200.4391460557377" type="line"/>
      <point x="46.104097417462384" y="52.65382878774927" type="line" smooth="yes"/>
      <point x="47.68785204015728" y="46.70436289702049"/>
      <point x="42.239010679856875" y="41.27060598592182"/>
      <point x="36.293958149762936" y="42.87084768775199" type="curve" smooth="yes"/>
      <point x="-84.54666228380297" y="75.39775962233318" type="line"/>
    </contour>
    <contour>
      <point x="63.793008672326806" y="286.19538440858645" type="line"/>
      <point x="200.2046969177582" y="265.6892877541766" type="line" smooth="yes"/>
      <point x="204.18807807730445" y="265.0904857004842"/>
      <point x="190.2210732125363" y="256.0797397980175"/>
      <point x="191.31753337736836" y="259.9557770099997" type="curve" smooth="yes"/>
      <point x="224.52211484161325" y="377.33550268696655" type="line"/>
      <point x="239.9179646348145" y="372.98029785307125" type="line"/>
      <point x="206.7133831705696" y="255.60057217610438" type="line" smooth="yes"/>
      <point x="205.61692300573756" y="251.72453496412217"/>
      <point x="201.80960078972603" y="249.26825937823506"/>
      <point x="197.82621963017976" y="249.86706143192745" type="curve" smooth="yes"/>
      <point x="61.41453138474836" y="270.37315808633736" type="line"/>
    </contour>
    <contour>
      <point x="308.24037443271794" y="470.2744630423412" type="line"/>
      <point x="347.8139675615251" y="444.8186189196255" type="line" smooth="yes"/>
      <point x="354.7146813298486" y="440.3797120594332"/>
      <point x="340.18299042491503" y="427.1170846305939"/>
      <point x="336.39140283210617" y="434.393595343281" type="curve" smooth="yes"/>
      <point x="275.9649959609133" y="550.3591074578746" type="line"/>
      <point x="290.1542323415932" y="557.7527243625561" type="line"/>
      <point x="350.580639212786" y="441.7872122479624" type="line" smooth="yes"/>
      <point x="354.3722268055949" y="434.5107015352753"/>
      <point x="346.0587882516906" y="426.9232818114255"/>
      <point x="339.1580744833671" y="431.36218867161784" type="curve" smooth="yes"/>
      <point x="299.58448135455995" y="456.81803279433353" type="line"/>
    </contour>
  </outline>
</glyph>
<glyph name="six" format="2">
  <advance width="404"/>
  <unicode hex="0036"/>
  <outline>
    <contour>
      <point x="95.98758758133222" y="47.51166636513797" type="line"/>
      <point x="79.55439949057963" y="71.6784750825472"/>
      <point x="85.81076796478654" y="110.11866247732817"/>
      <point x="119.98779661222295" y="158.45227991214657" type="curve"/>
      <point x="119.98779661222295" y="158.45227991214657"/>
      <point x="119.98779661222295" y="158.45227991214657"/>
      <point x="119.98779661222295" y="158.45227991214657" type="curve"/>
      <point x="171.1096360283971" y="230.7494785479595"/>
      <point x="256.5846089293071" y="279.2132034355965"/>
      <point x="333.2634559672906" y="279.2132034355964" type="curve"/>
      <point x="333.2634559672906" y="279.2132034355964"/>
      <point x="333.2634559672906" y="279.2132034355964"/>
      <point x="333.2634559672906" y="279.2132034355964" type="curve"/>
      <point x="397.99735698428157" y="279.21320343559637"/>
      <point x="427.82537743325497" y="233.08754879627185"/>
      <point x="369.5183000421869" y="150.62888916748562" type="curve"/>
      <point x="369.5183000421869" y="150.62888916748562"/>
      <point x="369.5183000421869" y="150.62888916748562"/>
      <point x="369.5183000421869" y="150.62888916748562" type="curve"/>
      <point x="319.40418052117104" y="79.75682167447862"/>
      <point x="230.66693392980827" y="25.625324956916472"/>
      <point x="153.94974746830584" y="25.625324956916472" type="curve"/>
      <point x="153.94974746830584" y="25.625324956916472"/>
      <point x="153.94974746830584" y="25.625324956916472"/>
      <point x="153.94974746830584" y="25.625324956916472" type="curve"/>
      <point x="74.59896596119384" y="25.625324956916472"/>
      <point x="53.156830419631234" y="88.93902113608551"/>
      <point x="148.8101270825593" y="224.21321056249548" type="curve" smooth="yes"/>
      <point x="148.82319719232504" y="224.2316944889879"/>
      <point x="148.7582399283689" y="224.13899888514052"/>
      <point x="148.77115265396537" y="224.15759309998106" type="curve" smooth="yes"/>
      <point x="267.16903666399395" y="394.6495373064316"/>
      <point x="377.8377295863822" y="454.5756851698602"/>
      <point x="474.23401871576766" y="454.5756851698602" type="curve"/>
      <point x="474.23401871576766" y="454.5756851698602"/>
      <point x="474.23401871576766" y="454.5756851698602"/>
      <point x="474.23401871576766" y="454.5756851698602" type="curve"/>
      <point x="498.116122661455" y="454.5756851698602"/>
      <point x="520.3426708057793" y="450.04102407146485"/>
      <point x="540.3496136997724" y="440.3389193435293" type="curve"/>
      <point x="533.3682070938189" y="425.9423933111023" type="line"/>
      <point x="515.4664300891882" y="434.6236254331385"/>
      <point x="495.6032054777029" y="438.5756851698602"/>
      <point x="474.23401871576766" y="438.5756851698602" type="curve"/>
      <point x="474.23401871576766" y="438.5756851698602"/>
      <point x="474.23401871576766" y="438.5756851698602"/>
      <point x="474.23401871576766" y="438.5756851698602" type="curve"/>
      <point x="381.114347261715" y="438.5756851698602"/>
      <point x="276.28645432452316" y="379.7279560658152"/>
      <point x="161.91304680599683" y="215.03122371797588" type="curve" smooth="yes"/>
      <point x="161.90013408040036" y="215.01262950313534"/>
      <point x="161.88714248716866" y="214.99409018195388"/>
      <point x="161.8740723774029" y="214.97560625546146" type="curve" smooth="yes"/>
      <point x="78.85447770175166" y="97.56816952243828"/>
      <point x="85.07946335116935" y="41.62532495691647"/>
      <point x="153.94974746830584" y="41.62532495691647" type="curve"/>
      <point x="153.94974746830584" y="41.62532495691647"/>
      <point x="153.94974746830584" y="41.62532495691647"/>
      <point x="153.94974746830584" y="41.62532495691647" type="curve"/>
      <point x="225.76113982350205" y="41.62532495691647"/>
      <point x="309.5448568180263" y="93.52644529876694"/>
      <point x="356.4543547473433" y="159.86649347451964" type="curve"/>
      <point x="356.4543547473433" y="159.86649347451964"/>
      <point x="356.4543547473433" y="159.86649347451964"/>
      <point x="356.4543547473433" y="159.86649347451964" type="curve"/>
      <point x="405.1003517131508" y="228.66232213872522"/>
      <point x="387.27139622704067" y="263.21320343559637"/>
      <point x="333.2634559672906" y="263.2132034355964" type="curve"/>
      <point x="333.2634559672906" y="263.2132034355964"/>
      <point x="333.2634559672906" y="263.2132034355964"/>
      <point x="333.2634559672906" y="263.2132034355964" type="curve"/>
      <point x="261.4520636120944" y="263.2132034355965"/>
      <point x="180.9284459792561" y="216.92255982572613"/>
      <point x="133.05174190706657" y="149.21467560511255" type="curve"/>
      <point x="133.05174190706657" y="149.21467560511255"/>
      <point x="133.05174190706657" y="149.21467560511255"/>
      <point x="133.05174190706657" y="149.21467560511255" type="curve"/>
      <point x="105.4050099328415" y="110.11629229186953"/>
      <point x="95.92521848144925" y="76.05772782701689"/>
      <point x="109.2184731793278" y="56.5085361703954" type="curve"/>
    </contour>
    <contour>
      <point x="207.7916733172429" y="344.4132209976718" type="line"/>
      <point x="160.0788136117825" y="290.2634235732218"/>
      <point x="116.28825169766878" y="204.00878994176887"/>
      <point x="104.245672001603" y="99.18033595341076" type="curve"/>
      <point x="88.35021570379058" y="101.00638882349311" type="line"/>
      <point x="100.84149729374442" y="209.74071074256517"/>
      <point x="146.296347914" y="298.8234932195332"/>
      <point x="195.7869704454476" y="354.99089129693465" type="curve"/>
    </contour>
    <contour>
      <point x="566.0520616140628" y="541.2132338041916" type="line"/>
      <point x="544.711441180497" y="431.61168272027663" type="line" smooth="yes"/>
      <point x="544.0331803907737" y="428.1282584766147"/>
      <point x="541.1411121445649" y="425.50802700632755"/>
      <point x="537.6078556661824" y="425.17579091831715" type="curve" smooth="yes"/>
      <point x="477.44847609974835" y="419.5189366688248" type="line"/>
      <point x="475.9505855609746" y="435.4486674868221" type="line"/>
      <point x="536.1099651274088" y="441.1055217363145" type="line" smooth="yes"/>
      <point x="539.6432216057913" y="441.4377578243249"/>
      <point x="528.328118823371" y="431.18620569069304"/>
      <point x="529.0063796130943" y="434.669629934355" type="curve" smooth="yes"/>
      <point x="550.3470000466601" y="544.2711810182699" type="line"/>
    </contour>
  </outline>
</glyph>
<glyph name="seven" format="2">
  <advance width="355"/>
  <unicode hex="0037"/>
  <outline>
    <contour>
      <point x="94.14456773558607" y="57.79559604332527" type="line"/>
      <point x="131.18998211697212" y="93.17442755027754"/>
      <point x="191.2215223322952" y="149.06068682431973"/>
      <point x="307.3108018874265" y="255.19718134517655" type="curve" smooth="yes"/>
      <point x="307.3120492921602" y="255.1983218050553"/>
      <point x="307.31329705828296" y="255.1994618695959"/>
      <point x="307.3145451856043" y="255.20060153862437" type="curve" smooth="yes"/>
      <point x="514.8536504290053" y="444.70521889661904" type="line" smooth="yes"/>
      <point x="520.2471420141516" y="449.63003322434787"/>
      <point x="527.5516644191277" y="430.7975105768082"/>
      <point x="520.2479976933216" y="430.7975105768082" type="curve" smooth="yes"/>
      <point x="378.4628044815494" y="430.7975105768082"/>
      <point x="334.54106795083027" y="429.4021184576593"/>
      <point x="299.3921467203784" y="426.58052257284794" type="curve"/>
      <point x="298.1118578929784" y="442.5292172065299" type="line"/>
      <point x="333.4398562079121" y="445.36518858700225"/>
      <point x="377.74043582458324" y="446.7975105768082"/>
      <point x="520.2479976933216" y="446.7975105768082" type="curve" smooth="yes"/>
      <point x="527.5516644191277" y="446.7975105768082"/>
      <point x="531.0358365427843" y="437.81461658472614"/>
      <point x="525.642344957638" y="432.8898022569973" type="curve" smooth="yes"/>
      <point x="318.103239714237" y="243.38518489900258" type="line" smooth="yes"/>
      <point x="318.1019915869157" y="243.3840452299741"/>
      <point x="318.1082304171485" y="243.38974555232915"/>
      <point x="318.1069830124148" y="243.3886050924504" type="curve" smooth="yes"/>
      <point x="202.20280047376406" y="137.42133850160405"/>
      <point x="142.18135448781265" y="81.5470286891569"/>
      <point x="105.19500667745336" y="46.2246064922081" type="curve"/>
    </contour>
    <contour>
      <point x="81.55091254701536" y="79.1596332586525" type="line"/>
      <point x="105.03262258378571" y="57.94642982305608" type="line" smooth="yes"/>
      <point x="110.82692328738568" y="52.711901358135506"/>
      <point x="106.45774310133095" y="43.12765432652914"/>
      <point x="98.7060162714791" y="44.06836684858778" type="curve" smooth="yes"/>
      <point x="-76.09654493921242" y="65.2815702841842" type="line"/>
      <point x="-74.1690030691312" y="81.16503912254203" type="line"/>
      <point x="100.63355814156033" y="59.95183568694559" type="line" smooth="yes"/>
      <point x="108.38528497141218" y="59.01112316488695"/>
      <point x="100.10125253285369" y="40.83924424755672"/>
      <point x="94.30695182925372" y="46.07377271247729" type="curve" smooth="yes"/>
      <point x="70.82524179248337" y="67.28697614807372" type="line"/>
    </contour>
    <contour>
      <point x="161.9456370419002" y="451.7293988240419" type="line"/>
      <point x="299.28625747546613" y="442.5370106686168" type="line" smooth="yes"/>
      <point x="305.4455819956901" y="442.1247589867299"/>
      <point x="294.33229502212805" y="425.4678782250321"/>
      <point x="291.5867807734818" y="430.9968366717136" type="curve" smooth="yes"/>
      <point x="232.24616033991583" y="550.4978826922401" type="line"/>
      <point x="246.576603406309" y="557.6139491281907" type="line"/>
      <point x="305.91722383987496" y="438.11290310766424" type="line" smooth="yes"/>
      <point x="308.6627380885212" y="432.58394466098275"/>
      <point x="304.3770716581146" y="426.1604774288741"/>
      <point x="298.2177471378906" y="426.57272911076103" type="curve" smooth="yes"/>
      <point x="160.87712670432464" y="435.7651172661861" type="line"/>
    </contour>
    <contour>
      <point x="372.2458671094723" y="472.84051653468936" type="line"/>
      <point x="521.628118103381" y="446.67756563078706" type="line" smooth="yes"/>
      <point x="525.268720226547" y="446.0399470785474"/>
      <point x="511.43777241005023" y="438.5963347945487"/>
      <point x="512.9109021510097" y="441.9860884734554" type="curve" smooth="yes"/>
      <point x="563.0002599261048" y="557.2444938068627" type="line"/>
      <point x="577.6744510107286" y="550.8673380135681" type="line"/>
      <point x="527.5850932356335" y="435.60893268016093" type="line" smooth="yes"/>
      <point x="526.111963494674" y="432.21917900125413"/>
      <point x="522.5084794064284" y="430.27983697058966"/>
      <point x="518.8678772832623" y="430.9174555228293" type="curve" smooth="yes"/>
      <point x="369.48562628935366" y="457.0804064267316" type="line"/>
    </contour>
  </outline>
</glyph>
<glyph name="eight" format="2">
  <advance width="402"/>
  <unicode hex="0038"/>
  <outline>
    <contour>
      <point x="304.70710678118655" y="262.2426406871193" type="curve"/>
      <point x="304.70710678118655" y="262.2426406871193"/>
      <point x="304.70710678118655" y="262.2426406871193"/>
      <point x="304.70710678118655" y="262.2426406871193" type="curve"/>
      <point x="365.33359273371076" y="262.2426406871193"/>
      <point x="434.2368218114906" y="297.28172687384836"/>
      <point x="478.06957843649303" y="359.27060576912606" type="curve"/>
      <point x="478.06957843649303" y="359.27060576912606"/>
      <point x="478.06957843649303" y="359.27060576912606"/>
      <point x="478.06957843649303" y="359.27060576912606" type="curve"/>
      <point x="514.0104178054492" y="410.09862824777673"/>
      <point x="501.25328178868557" y="444.2325394193526"/>
      <point x="444.70710678118655" y="444.23253941935263" type="curve"/>
      <point x="444.70710678118655" y="444.23253941935263"/>
      <point x="444.70710678118655" y="444.23253941935263"/>
      <point x="444.70710678118655" y="444.23253941935263" type="curve"/>
      <point x="383.58311765396" y="444.2325394193527"/>
      <point x="310.34925463464884" y="404.3654362418491"/>
      <point x="271.9304215635069" y="350.0330014620921" type="curve"/>
      <point x="271.9304215635069" y="350.0330014620921"/>
      <point x="271.9304215635069" y="350.0330014620921"/>
      <point x="271.9304215635069" y="350.0330014620921" type="curve"/>
      <point x="230.76442236428346" y="291.8154870859103"/>
      <point x="247.76909821547028" y="262.2426406871193"/>
    </contour>
    <contour>
      <point x="148.70710678118655" y="25.625324956916472" type="curve"/>
      <point x="148.70710678118655" y="25.625324956916472"/>
      <point x="148.70710678118655" y="25.625324956916472"/>
      <point x="148.70710678118655" y="25.625324956916472" type="curve"/>
      <point x="70.91119518084277" y="25.62532495691648"/>
      <point x="46.66438112744292" y="77.17152485642636"/>
      <point x="95.13855420730545" y="145.7243578507887" type="curve"/>
      <point x="95.13855420730545" y="145.7243578507887"/>
      <point x="95.13855420730545" y="145.7243578507887"/>
      <point x="95.13855420730545" y="145.7243578507887" type="curve"/>
      <point x="147.80954027245454" y="220.2123806876869"/>
      <point x="232.40990814537355" y="262.2426406871193"/>
      <point x="304.70710678118655" y="262.2426406871193" type="curve"/>
      <point x="304.70710678118655" y="262.2426406871193"/>
      <point x="304.70710678118655" y="262.2426406871193"/>
      <point x="304.70710678118655" y="262.2426406871193" type="curve"/>
      <point x="379.1227776488438" y="262.2426406871193"/>
      <point x="408.1936334287853" y="214.73828373448728"/>
      <point x="352.86144579269455" y="136.48675354375467" type="curve"/>
      <point x="352.86144579269455" y="136.48675354375467"/>
      <point x="352.86144579269455" y="136.48675354375467"/>
      <point x="352.86144579269455" y="136.48675354375467" type="curve"/>
      <point x="306.7877831278793" y="71.32875493496998"/>
      <point x="221.18622882916048" y="25.625324956916465"/>
    </contour>
    <contour>
      <point x="304.70710678118655" y="246.24264068711932" type="curve"/>
      <point x="235.84421863293665" y="246.24264068711932"/>
      <point x="209.07882703791765" y="288.86023698833117"/>
      <point x="258.8664762686633" y="359.27060576912606" type="curve"/>
      <point x="258.8664762686633" y="359.27060576912606"/>
      <point x="258.8664762686633" y="359.27060576912606"/>
      <point x="258.8664762686633" y="359.27060576912606" type="curve"/>
      <point x="300.44695281143225" y="418.0742796258462"/>
      <point x="378.5529736923763" y="460.2325394193527"/>
      <point x="444.70710678118655" y="460.23253941935263" type="curve"/>
      <point x="444.70710678118655" y="460.23253941935263"/>
      <point x="444.70710678118655" y="460.23253941935263"/>
      <point x="444.70710678118655" y="460.23253941935263" type="curve"/>
      <point x="513.950644059904" y="460.2325394193526"/>
      <point x="535.1448268892015" y="412.27438328565853"/>
      <point x="491.13352373133665" y="350.0330014620921" type="curve"/>
      <point x="491.13352373133665" y="350.0330014620921"/>
      <point x="491.13352373133665" y="350.0330014620921"/>
      <point x="491.13352373133665" y="350.0330014620921" type="curve"/>
      <point x="443.9537989841063" y="283.3107948555293"/>
      <point x="369.962891264528" y="246.24264068711932"/>
      <point x="304.70710678118655" y="246.24264068711932" type="curve"/>
      <point x="304.70710678118655" y="246.24264068711932"/>
      <point x="304.70710678118655" y="246.24264068711932"/>
    </contour>
    <contour>
      <point x="148.70710678118655" y="41.62532495691647" type="curve"/>
      <point x="216.21212108449788" y="41.625324956916465"/>
      <point x="296.8857878651339" y="85.03803186094312"/>
      <point x="339.79750049785093" y="145.7243578507887" type="curve"/>
      <point x="339.79750049785093" y="145.7243578507887"/>
      <point x="339.79750049785093" y="145.7243578507887"/>
      <point x="339.79750049785093" y="145.7243578507887" type="curve"/>
      <point x="386.40218413303717" y="211.6333335177767"/>
      <point x="367.3852503076359" y="246.24264068711932"/>
      <point x="304.70710678118655" y="246.24264068711932" type="curve"/>
      <point x="304.70710678118655" y="246.24264068711932"/>
      <point x="304.70710678118655" y="246.24264068711932"/>
      <point x="304.70710678118655" y="246.24264068711932" type="curve"/>
      <point x="236.99922256057292" y="246.24264068711932"/>
      <point x="157.53001278864735" y="206.2463918316596"/>
      <point x="108.20249950214907" y="136.48675354375467" type="curve"/>
      <point x="108.20249950214907" y="136.48675354375467"/>
      <point x="108.20249950214907" y="136.48675354375467"/>
      <point x="108.20249950214907" y="136.48675354375467" type="curve"/>
      <point x="67.71969987844116" y="79.23542927307454"/>
      <point x="83.73650283356078" y="41.62532495691648"/>
      <point x="148.70710678118655" y="41.62532495691647" type="curve"/>
      <point x="148.70710678118655" y="41.62532495691647"/>
      <point x="148.70710678118655" y="41.62532495691647"/>
    </contour>
    <contour>
      <point x="149.4172455359276" y="333.6498884712598" type="line"/>
      <point x="308.01879661984253" y="261.524996790232" type="line" smooth="yes"/>
      <point x="311.3028718480455" y="260.0315462628714"/>
      <point x="296.24771504590984" y="256.5780712793875"/>
      <point x="298.552548077892" y="259.3535512877561" type="curve" smooth="yes"/>
      <point x="358.4469923806203" y="331.4784429687839" type="line"/>
      <point x="370.75610978720937" y="321.25662176751035" type="line"/>
      <point x="310.8616654844811" y="249.13173008648252" type="line" smooth="yes"/>
      <point x="308.55683245249895" y="246.35625007811396"/>
      <point x="304.67949217073345" y="245.466834056646"/>
      <point x="301.3954169425306" y="246.96028458400662" type="curve" smooth="yes"/>
      <point x="142.7938658586157" y="319.0851762650344" type="line"/>
    </contour>
  </outline>
</glyph>
<glyph name="nine" format="2">
  <advance width="404"/>
  <unicode hex="0039"/>
  <outline>
    <contour>
      <point x="497.01241241866785" y="436.931984448758" type="line"/>
      <point x="513.4456005094203" y="412.76517573134885"/>
      <point x="507.1892320352134" y="374.32498833656786"/>
      <point x="473.012203387777" y="325.99137090174946" type="curve"/>
      <point x="473.012203387777" y="325.99137090174946"/>
      <point x="473.012203387777" y="325.99137090174946"/>
      <point x="473.012203387777" y="325.99137090174946" type="curve"/>
      <point x="421.8903639716028" y="253.6941722659365"/>
      <point x="336.4153910706929" y="205.23044737829954"/>
      <point x="259.7365440327094" y="205.23044737829954" type="curve"/>
      <point x="259.7365440327094" y="205.23044737829954"/>
      <point x="259.7365440327094" y="205.23044737829954"/>
      <point x="259.7365440327094" y="205.23044737829954" type="curve"/>
      <point x="195.0026430157183" y="205.23044737829954"/>
      <point x="165.17462256674494" y="251.35610201762412"/>
      <point x="223.48169995781308" y="333.8147616464103" type="curve"/>
      <point x="223.48169995781308" y="333.8147616464103"/>
      <point x="223.48169995781308" y="333.8147616464103"/>
      <point x="223.48169995781308" y="333.8147616464103" type="curve"/>
      <point x="273.5958194788289" y="404.6868291394172"/>
      <point x="362.33306607019165" y="458.8183258569795"/>
      <point x="439.0502525316941" y="458.8183258569795" type="curve"/>
      <point x="439.0502525316941" y="458.8183258569795"/>
      <point x="439.0502525316941" y="458.8183258569795"/>
      <point x="439.0502525316941" y="458.8183258569795" type="curve"/>
      <point x="518.4010340388064" y="458.8183258569795"/>
      <point x="539.8431695803691" y="395.50462967781044"/>
      <point x="444.1898729174407" y="260.2304402514005" type="curve" smooth="yes"/>
      <point x="444.17680280767496" y="260.2119563249081"/>
      <point x="444.2417600716311" y="260.3046519287554"/>
      <point x="444.2288473460346" y="260.2860577139149" type="curve" smooth="yes"/>
      <point x="325.83096333600605" y="89.79411350746447"/>
      <point x="215.16227041361782" y="29.867965644035735"/>
      <point x="118.76598128423228" y="29.867965644035735" type="curve"/>
      <point x="118.76598128423228" y="29.867965644035735"/>
      <point x="118.76598128423228" y="29.867965644035735"/>
      <point x="118.76598128423228" y="29.867965644035735" type="curve"/>
      <point x="94.88387733854489" y="29.867965644035735"/>
      <point x="72.65732919422075" y="34.40262674243115"/>
      <point x="52.6503863002277" y="44.10473147036661" type="curve"/>
      <point x="59.63179290618114" y="58.501257502793656" type="line"/>
      <point x="77.53356991081198" y="49.82002538075753"/>
      <point x="97.3967945222971" y="45.867965644035735"/>
      <point x="118.76598128423228" y="45.867965644035735" type="curve"/>
      <point x="118.76598128423228" y="45.867965644035735"/>
      <point x="118.76598128423228" y="45.867965644035735"/>
      <point x="118.76598128423228" y="45.867965644035735" type="curve"/>
      <point x="211.88565273828493" y="45.867965644035735"/>
      <point x="316.71354567547684" y="104.71569474808074"/>
      <point x="431.0869531940032" y="269.4124270959201" type="curve" smooth="yes"/>
      <point x="431.09986591959967" y="269.4310213107606"/>
      <point x="431.11285751283134" y="269.44956063194206"/>
      <point x="431.1259276225971" y="269.4680445584345" type="curve" smooth="yes"/>
      <point x="514.1455222982485" y="386.8754812914577"/>
      <point x="507.9205366488307" y="442.8183258569795"/>
      <point x="439.0502525316941" y="442.8183258569795" type="curve"/>
      <point x="439.0502525316941" y="442.8183258569795"/>
      <point x="439.0502525316941" y="442.8183258569795"/>
      <point x="439.0502525316941" y="442.8183258569795" type="curve"/>
      <point x="367.23886017649795" y="442.8183258569795"/>
      <point x="283.45514318197365" y="390.9172055151291"/>
      <point x="236.5456452526567" y="324.57715733937636" type="curve"/>
      <point x="236.5456452526567" y="324.57715733937636"/>
      <point x="236.5456452526567" y="324.57715733937636"/>
      <point x="236.5456452526567" y="324.57715733937636" type="curve"/>
      <point x="187.89964828684907" y="255.78132867517078"/>
      <point x="205.72860377295925" y="221.23044737829954"/>
      <point x="259.7365440327094" y="221.23044737829954" type="curve"/>
      <point x="259.7365440327094" y="221.23044737829954"/>
      <point x="259.7365440327094" y="221.23044737829954"/>
      <point x="259.7365440327094" y="221.23044737829954" type="curve"/>
      <point x="331.5479363879056" y="221.23044737829954"/>
      <point x="412.0715540207439" y="267.5210909881699"/>
      <point x="459.9482580929334" y="335.2289752087834" type="curve"/>
      <point x="459.9482580929334" y="335.2289752087834"/>
      <point x="459.9482580929334" y="335.2289752087834"/>
      <point x="459.9482580929334" y="335.2289752087834" type="curve"/>
      <point x="487.5949900671585" y="374.3273585220264"/>
      <point x="497.0747815185507" y="408.38592298687917"/>
      <point x="483.7815268206722" y="427.93511464350064" type="curve"/>
    </contour>
    <contour>
      <point x="289.87104104029896" y="284.04998916286195" type="line"/>
      <point x="366.52724161538987" y="297.07027449742486"/>
      <point x="454.31479528220956" y="332.4415174449191"/>
      <point x="489.9457993192091" y="388.6343278361908" type="curve"/>
      <point x="503.45831297539735" y="380.0662490146973" type="line"/>
      <point x="465.5635615375199" y="320.3033363512818"/>
      <point x="374.0767202331612" y="282.1234167986608"/>
      <point x="292.55031519701055" y="268.27591264494254" type="curve"/>
    </contour>
    <contour>
      <point x="-63.17026149648992" y="90.86114997907215" type="line"/>
      <point x="58.17035893707598" y="59.04134482567751" type="line" smooth="yes"/>
      <point x="64.11838555047707" y="57.48156173565077"/>
      <point x="50.027112217960266" y="43.27608820742226"/>
      <point x="48.41937055046093" y="49.211331303728215" type="curve" smooth="yes"/>
      <point x="8.578750116894973" y="196.2895417905301" type="line"/>
      <point x="24.02218822238195" y="200.47286815623391" type="line"/>
      <point x="63.86280865594791" y="53.39465766943205" type="line" smooth="yes"/>
      <point x="65.47055032344724" y="47.4594145731261"/>
      <point x="60.05984688273395" y="42.00486105745601"/>
      <point x="54.11182026933286" y="43.56464414748275" type="curve" smooth="yes"/>
      <point x="-67.22880016423304" y="75.38444930087739" type="line"/>
    </contour>
  </outline>
</glyph>
<glyph name="less" format="2">
  <advance width="323"/>
  <unicode hex="003C"/>
  <outline>
    <contour>
      <point x="391.4555028350083" y="305.5481547359497" type="line"/>
      <point x="170.8920109739678" y="213.62427318169858" type="line" smooth="yes"/>
      <point x="165.65976918832845" y="211.44364043006743"/>
      <point x="169.53509365327974" y="230.66112902098683"/>
      <point x="173.51331423293033" y="226.6231500313781" type="curve" smooth="yes"/>
      <point x="264.07680609397084" y="134.6992684771269" type="line"/>
      <point x="252.6790739224948" y="123.47021235707389" type="line"/>
      <point x="162.1155820614543" y="215.39409391132506" type="line" smooth="yes"/>
      <point x="158.1373614818037" y="219.4320729009338"/>
      <point x="159.50464353477744" y="226.2123380093734"/>
      <point x="164.7368853204168" y="228.39297076100456" type="curve" smooth="yes"/>
      <point x="385.30037718145735" y="320.31685231525574" type="line"/>
    </contour>
    <contour>
      <point x="281.1325854345176" y="228.32419893223553" type="line"/>
      <point x="266.2919650009517" y="127.9150360037458" type="line" smooth="yes"/>
      <point x="265.78828703596514" y="124.50723488948519"/>
      <point x="263.1596877342828" y="121.8045145544513"/>
      <point x="259.7672062711943" y="121.20629264799022" type="curve" smooth="yes"/>
      <point x="195.6078267047603" y="109.89258414900543" type="line"/>
      <point x="192.82929417883727" y="125.64947968722576" type="line"/>
      <point x="256.98867374527134" y="136.96318818621054" type="line" smooth="yes"/>
      <point x="260.3811552083598" y="137.56141009267162"/>
      <point x="249.96023705052744" y="126.84664371619438"/>
      <point x="250.46391501551398" y="130.254444830455" type="curve" smooth="yes"/>
      <point x="265.3045354490799" y="230.66360775894472" type="line"/>
    </contour>
    <contour>
      <point x="446.8019864988373" y="461.70548318835466" type="line"/>
      <point x="395.9613660652714" y="310.38463201443346" type="line" smooth="yes"/>
      <point x="393.82103558867186" y="304.0142017020076"/>
      <point x="385.25545944055557" y="302.9618710472183"/>
      <point x="381.63676453606814" y="308.6247717264438" type="curve" smooth="yes"/>
      <point x="354.97738496963404" y="350.3440718164501" type="line"/>
      <point x="368.4597359139634" y="358.95953541476797" type="line"/>
      <point x="395.1191154803975" y="317.24023532476167" type="line" smooth="yes"/>
      <point x="398.73781038488494" y="311.5773346455362"/>
      <point x="378.6541834745947" y="309.1099447243461"/>
      <point x="380.79451395119423" y="315.480375036772" type="curve" smooth="yes"/>
      <point x="431.63513438476014" y="466.8012262106932" type="line"/>
    </contour>
    <contour>
      <point x="39.74939182662404" y="298.07765993791384" type="line"/>
      <point x="171.566671663077" y="228.07408860044566" type="line" smooth="yes"/>
      <point x="175.52583285860933" y="225.97151583053375"/>
      <point x="158.65262363085523" y="220.61271648158262"/>
      <point x="160.67312594420116" y="224.61438363750003" type="curve" smooth="yes"/>
      <point x="196.73304646777342" y="296.0321685373413" type="line"/>
      <point x="211.01569087375572" y="288.8206452050444" type="line"/>
      <point x="174.95577035018346" y="217.40286030520312" type="line" smooth="yes"/>
      <point x="172.93526803683753" y="213.40119314928572"/>
      <point x="168.02138582683997" y="211.84058257234557"/>
      <point x="164.06222463130763" y="213.94315534225748" type="curve" smooth="yes"/>
      <point x="32.244944794854696" y="283.94672667972566" type="line"/>
    </contour>
  </outline>
</glyph>
<glyph name="equal" format="2">
  <advance width="346"/>
  <unicode hex="003D"/>
  <outline>
    <contour>
      <point x="293.1162697096763" y="127.44870144777931" type="line"/>
      <point x="90.88373029032368" y="127.44870144777931" type="line"/>
      <point x="90.88373029032368" y="143.4487014477793" type="line"/>
      <point x="293.1162697096763" y="143.4487014477793" type="line"/>
    </contour>
    <contour>
      <point x="-32.82224294642" y="169.44286736226078" type="line"/>
      <point x="92.5183774871459" y="143.27991645835854" type="line" smooth="yes"/>
      <point x="99.16145149720101" y="141.89327565049547"/>
      <point x="87.01793565809494" y="125.69632548627473"/>
      <point x="83.82471334499162" y="131.68435824271486" type="curve" smooth="yes"/>
      <point x="21.984092911425694" y="247.64987035730866" type="line"/>
      <point x="36.10212680208981" y="255.17855676743756" type="line"/>
      <point x="97.94274723565574" y="139.21304465284376" type="line" smooth="yes"/>
      <point x="101.13596954875906" y="133.22501189640363"/>
      <point x="95.89215710355657" y="126.23084562933703"/>
      <point x="89.24908309350147" y="127.6174864372001" type="curve" smooth="yes"/>
      <point x="-36.09153734006444" y="153.78043734110233" type="line"/>
    </contour>
    <contour>
      <point x="326.7653799539681" y="249.67424606963317" type="line"/>
      <point x="300.9247595204021" y="133.70873395503938" type="line" smooth="yes"/>
      <point x="299.6882713471909" y="128.1597191936206"/>
      <point x="293.2208172502134" y="125.63495916276374"/>
      <point x="288.5518552286282" y="128.87860856828377" type="curve" smooth="yes"/>
      <point x="250.89247566219413" y="155.041559472186" type="line"/>
      <point x="260.0213046242904" y="168.1817452311771" type="line"/>
      <point x="297.68068419072443" y="142.01879432727486" type="line" smooth="yes"/>
      <point x="302.3496462123096" y="138.77514492175482"/>
      <point x="284.0712917257393" y="131.63965417910046"/>
      <point x="285.3077798989505" y="137.18866894051925" type="curve" smooth="yes"/>
      <point x="311.1484003325165" y="253.15418105511304" type="line"/>
    </contour>
    <contour>
      <point x="413.11626970967626" y="297.1543289325507" type="line"/>
      <point x="210.88373029032368" y="297.1543289325507" type="line"/>
      <point x="210.88373029032368" y="313.1543289325507" type="line"/>
      <point x="413.11626970967626" y="313.1543289325507" type="line"/>
    </contour>
    <contour>
      <point x="87.17775705357994" y="339.14849484703217" type="line"/>
      <point x="212.5183774871459" y="312.9855439431299" type="line" smooth="yes"/>
      <point x="219.16145149720106" y="311.5989031352668"/>
      <point x="207.01793565809498" y="295.40195297104606"/>
      <point x="203.82471334499164" y="301.38998572748625" type="curve" smooth="yes"/>
      <point x="141.98409291142568" y="417.35549784208007" type="line"/>
      <point x="156.10212680208977" y="424.88418425220897" type="line"/>
      <point x="217.94274723565573" y="308.91867213761515" type="line" smooth="yes"/>
      <point x="221.13596954875908" y="302.93063938117496"/>
      <point x="215.89215710355663" y="295.93647311410837"/>
      <point x="209.24908309350147" y="297.32311392197147" type="curve" smooth="yes"/>
      <point x="83.90846265993551" y="323.4860648258737" type="line"/>
    </contour>
    <contour>
      <point x="446.765379953968" y="419.3798735544046" type="line"/>
      <point x="420.92475952040206" y="303.41436143981076" type="line" smooth="yes"/>
      <point x="419.6882713471909" y="297.8653466783921"/>
      <point x="413.2208172502132" y="295.34058664753525"/>
      <point x="408.55185522862814" y="298.5842360530552" type="curve" smooth="yes"/>
      <point x="370.8924756621941" y="324.7471869569574" type="line"/>
      <point x="380.02130462429034" y="337.88737271594846" type="line"/>
      <point x="417.6806841907244" y="311.7244218120462" type="line" smooth="yes"/>
      <point x="422.34964621230944" y="308.4807724065263"/>
      <point x="404.0712917257393" y="301.34528166387196"/>
      <point x="405.30777989895046" y="306.89429642529063" type="curve" smooth="yes"/>
      <point x="431.1484003325164" y="422.85980853988445" type="line"/>
    </contour>
  </outline>
</glyph>
<glyph name="greater" format="2">
  <advance width="317"/>
  <unicode hex="003E"/>
  <outline>
    <contour>
      <point x="83.50896325905896" y="135.76198242556683" type="line"/>
      <point x="304.07245512009945" y="227.685863979818" type="line" smooth="yes"/>
      <point x="309.3046969057388" y="229.8664967314492"/>
      <point x="305.4293724407875" y="210.64900814052976"/>
      <point x="301.4511518611369" y="214.68698713013853" type="curve" smooth="yes"/>
      <point x="210.8876600000964" y="306.61086868438974" type="line"/>
      <point x="222.28539217157243" y="317.8399248044427" type="line"/>
      <point x="312.84888403261294" y="225.9160432501915" type="line" smooth="yes"/>
      <point x="316.82710461226355" y="221.87806426058273"/>
      <point x="315.45982255928976" y="215.0977991521432"/>
      <point x="310.2275807736504" y="212.91716640051203" type="curve" smooth="yes"/>
      <point x="89.66408891260997" y="120.99328484626085" type="line"/>
    </contour>
    <contour>
      <point x="104.43646219399643" y="360.77157342830156" type="line"/>
      <point x="219.27708262756235" y="319.7593801194818" type="line" smooth="yes"/>
      <point x="225.2450395892342" y="317.62808717063893"/>
      <point x="210.24581905503211" y="304.22825011079186"/>
      <point x="208.79808688575477" y="310.39777128315154" type="curve" smooth="yes"/>
      <point x="172.95746645218887" y="463.1328360194458" type="line"/>
      <point x="188.53434485234814" y="466.78808694197517" type="line"/>
      <point x="224.37496528591404" y="314.0530222056809" type="line" smooth="yes"/>
      <point x="225.8226974551914" y="307.88350103332124"/>
      <point x="219.86392650577832" y="302.56012042050776"/>
      <point x="213.89596954410646" y="304.69141336935064" type="curve" smooth="yes"/>
      <point x="99.05534911054058" y="345.7036066781704" type="line"/>
    </contour>
    <contour>
      <point x="-64.77799801519832" y="126.46096557624335" type="line"/>
      <point x="86.06262241836758" y="136.36046051285504" type="line" smooth="yes"/>
      <point x="92.36882250036658" y="136.77432910873836"/>
      <point x="83.88702519625569" y="118.54645152814948"/>
      <point x="80.1422523379082" y="123.63723957404636" type="curve" smooth="yes"/>
      <point x="6.801631904342271" y="223.33929572134954" type="line"/>
      <point x="19.690179400194793" y="232.8200838450845" type="line"/>
      <point x="93.03079983376072" y="133.11802769778132" type="line" smooth="yes"/>
      <point x="96.77557269210826" y="128.02723965188437"/>
      <point x="93.41662983530043" y="120.80867535485595"/>
      <point x="87.11042975330135" y="120.39480675897263" type="curve" smooth="yes"/>
      <point x="-63.730190680264556" y="110.49531182236095" type="line"/>
    </contour>
    <contour>
      <point x="346.274899576247" y="288.46369630021155" type="line"/>
      <point x="314.457619739794" y="217.04591140037024" type="line" smooth="yes"/>
      <point x="312.5878895684379" y="212.84907283073036"/>
      <point x="307.57545706140786" y="211.08585751134896"/>
      <point x="303.4899977003593" y="213.18784863942653" type="curve" smooth="yes"/>
      <point x="167.43007717678702" y="283.1914199768947" type="line"/>
      <point x="174.7501176698183" y="297.4187530783717" type="line"/>
      <point x="310.81003819339054" y="227.4151817409035" type="line" smooth="yes"/>
      <point x="314.8954975544391" y="225.31319061282593"/>
      <point x="297.9726859825998" y="219.36028041031992"/>
      <point x="299.84241615395587" y="223.5571189799598" type="curve" smooth="yes"/>
      <point x="331.65969599040886" y="294.97490387980105" type="line"/>
    </contour>
  </outline>
</glyph>
<glyph name="question" format="2">
  <advance width="369"/>
  <unicode hex="003F"/>
  <outline>
    <contour>
      <point x="69.66078256934775" y="190.7751145642339" type="line"/>
      <point x="136.22932506427156" y="63.495893950655336" type="line" smooth="yes"/>
      <point x="139.67882357442" y="56.90044412669569"/>
      <point x="133.0415314780826" y="49.58142614722833"/>
      <point x="126.1412866693023" y="52.371698522962724" type="curve" smooth="yes"/>
      <point x="92.91693594541269" y="65.80672736550713" type="line"/>
      <point x="98.91506251680178" y="80.6398820412191" type="line"/>
      <point x="132.1394132406914" y="67.2048531986747" type="line" smooth="yes"/>
      <point x="139.0396580494717" y="64.41458082294028"/>
      <point x="125.50087335587061" y="49.48520794702241"/>
      <point x="122.05137484572215" y="56.08065777098209" type="curve" smooth="yes"/>
      <point x="55.48283235079835" y="183.35987838456066" type="line"/>
    </contour>
    <contour>
      <point x="-17.20040572992088" y="81.19013132123182" type="line"/>
      <point x="129.8681367650029" y="67.75510247868742" type="line" smooth="yes"/>
      <point x="133.46585268730723" y="67.426443362581"/>
      <point x="120.38305337228311" y="59.18716585874571"/>
      <point x="121.64095759079586" y="62.57379451409748" type="curve" smooth="yes"/>
      <point x="168.91660686690622" y="189.85301512767603" type="line"/>
      <point x="183.9153915953082" y="184.28197782111852" type="line"/>
      <point x="136.63974231919784" y="57.00275720753995" type="line" smooth="yes"/>
      <point x="135.3818381006851" y="53.61612855218818"/>
      <point x="132.01027906729513" y="51.492790126843595"/>
      <point x="128.4125631449908" y="51.82144924295002" type="curve" smooth="yes"/>
      <point x="-18.65597934993297" y="65.25647808549441" type="line"/>
    </contour>
    <contour>
      <point x="210.81400184842926" y="260.7687813140725" type="line"/>
      <point x="251.28708991384804" y="222.58501512999894" type="line" smooth="yes"/>
      <point x="257.50674749107054" y="216.7171665909945"/>
      <point x="251.4214434176811" y="206.49545451451925"/>
      <point x="243.2984652284735" y="209.16622447695616" type="curve" smooth="yes"/>
      <point x="127.1649515760941" y="247.34999066102972" type="line"/>
      <point x="132.16242952812553" y="262.54950427558197" type="line"/>
      <point x="248.29594318050493" y="224.3657380915084" type="line" smooth="yes"/>
      <point x="256.41892136971256" y="221.6949681290715"/>
      <point x="246.5269760723529" y="205.0790988994612"/>
      <point x="240.3073184951304" y="210.94694743846563" type="curve" smooth="yes"/>
      <point x="199.83423042971162" y="249.1307136225392" type="line"/>
    </contour>
    <contour>
      <point x="301.130378652056" y="438.73287687417394" type="line"/>
      <point x="337.91182615263114" y="448.8496818768432"/>
      <point x="372.3209792421401" y="454.5756851698602"/>
      <point x="401.22613639262374" y="454.5756851698602" type="curve"/>
      <point x="401.22613639262374" y="454.5756851698602"/>
      <point x="401.22613639262374" y="454.5756851698602"/>
      <point x="401.22613639262374" y="454.5756851698602" type="curve"/>
      <point x="486.33757118259547" y="454.57568516986015"/>
      <point x="518.1266711280649" y="416.0416003808371"/>
      <point x="475.4515432159972" y="355.68985571158447" type="curve"/>
      <point x="475.4515432159972" y="355.68985571158447"/>
      <point x="475.4515432159972" y="355.68985571158447"/>
      <point x="475.4515432159972" y="355.68985571158447" type="curve"/>
      <point x="422.336615835526" y="280.57400504565993"/>
      <point x="313.12221861580974" y="265.301569481156"/>
      <point x="251.07928519446756" y="210.75768531821086" type="curve"/>
      <point x="240.51512321451088" y="222.7742772502537" type="line"/>
      <point x="305.38670843823235" y="279.80491772432475"/>
      <point x="411.5886739295034" y="293.08693275566674"/>
      <point x="462.3875979211536" y="364.92746001861843" type="curve"/>
      <point x="462.3875979211536" y="364.92746001861843"/>
      <point x="462.3875979211536" y="364.92746001861843"/>
      <point x="462.3875979211536" y="364.92746001861843" type="curve"/>
      <point x="497.6022227176479" y="414.7284599997006"/>
      <point x="471.4583158531243" y="438.57568516986015"/>
      <point x="401.22613639262374" y="438.5756851698602" type="curve"/>
      <point x="401.22613639262374" y="438.5756851698602"/>
      <point x="401.22613639262374" y="438.5756851698602"/>
      <point x="401.22613639262374" y="438.5756851698602" type="curve"/>
      <point x="373.56751265933417" y="438.5756851698602"/>
      <point x="340.56887542795624" y="432.98631339998974"/>
      <point x="305.3736259613008" y="423.3057950933385" type="curve"/>
    </contour>
    <contour>
      <point x="152.9590768232359" y="430.52125813402205" type="line"/>
      <point x="302.7996972568019" y="439.00653950826063" type="line" smooth="yes"/>
      <point x="308.7357276171757" y="439.3426892633007"/>
      <point x="299.26168151039394" y="421.8855091275128"/>
      <point x="296.3085837255946" y="427.04580626726226" type="curve" smooth="yes"/>
      <point x="231.96796329202863" y="539.4757844759233" type="line"/>
      <point x="245.8548004541962" y="547.4228439089111" type="line"/>
      <point x="310.19542088776217" y="434.99286570025015" type="line" smooth="yes"/>
      <point x="313.1485186725615" y="429.8325685605007"/>
      <point x="309.6403377169287" y="423.36828221429187"/>
      <point x="303.70430735655486" y="423.0321324592518" type="curve" smooth="yes"/>
      <point x="153.86368692298893" y="414.5468510850132" type="line"/>
    </contour>
  </outline>
</glyph>
<glyph name="at" format="2">
  <advance width="634"/>
  <unicode hex="0040"/>
  <outline>
    <contour>
      <point x="328.9497474683058" y="126.47813869930218" type="curve"/>
      <point x="328.9497474683058" y="126.47813869930218"/>
      <point x="328.9497474683058" y="126.47813869930218"/>
      <point x="328.9497474683058" y="126.47813869930218" type="curve"/>
      <point x="386.8514475353233" y="126.47813869930218"/>
      <point x="453.4278248481194" y="169.373130408513"/>
      <point x="498.70561740581417" y="233.40559871792058" type="curve"/>
      <point x="498.70561740581417" y="233.40559871792058"/>
      <point x="498.70561740581417" y="233.40559871792058"/>
      <point x="498.70561740581417" y="233.40559871792058" type="curve"/>
      <point x="540.8312104639601" y="292.98018374376034"/>
      <point x="537.8203828640119" y="329.6812408671319"/>
      <point x="483.94974746830576" y="329.6812408671319" type="curve"/>
      <point x="483.94974746830576" y="329.6812408671319"/>
      <point x="483.94974746830576" y="329.6812408671319"/>
      <point x="483.94974746830576" y="329.6812408671319" type="curve"/>
      <point x="427.4104403440417" y="329.6812408671319"/>
      <point x="363.7817758574693" y="288.88165919167096"/>
      <point x="318.02230465554373" y="224.16799441088656" type="curve"/>
      <point x="318.02230465554373" y="224.16799441088656"/>
      <point x="318.02230465554373" y="224.16799441088656"/>
      <point x="318.02230465554373" y="224.16799441088656" type="curve"/>
      <point x="275.10786958813344" y="163.47781831697526"/>
      <point x="276.478032720445" y="126.47813869930218"/>
    </contour>
    <contour>
      <point x="580.2695627006577" y="321.04162343344365" type="line"/>
      <point x="485.2695627006578" y="186.69133500799956" type="line"/>
      <point x="485.2695627006578" y="186.69133500799956"/>
      <point x="485.2695627006578" y="186.69133500799956"/>
      <point x="485.2695627006578" y="186.69133500799956" type="curve"/>
      <point x="458.4124843676617" y="148.70969058375982"/>
      <point x="460.34102851799395" y="129.30656582404833"/>
      <point x="487.2203461105329" y="129.30656582404836" type="curve"/>
      <point x="487.2203461105329" y="129.30656582404836"/>
      <point x="487.2203461105329" y="129.30656582404836"/>
      <point x="487.2203461105329" y="129.30656582404836" type="curve"/>
      <point x="534.9511643047936" y="129.3065658240484"/>
      <point x="619.3639689269368" y="180.04227585267273"/>
      <point x="680.5975363916009" y="266.6396174336883" type="curve"/>
      <point x="680.5975363916009" y="266.6396174336883"/>
      <point x="680.5975363916009" y="266.6396174336883"/>
      <point x="680.5975363916009" y="266.6396174336883" type="curve"/>
      <point x="771.5701198156636" y="395.29427871611557"/>
      <point x="740.5450872081042" y="480.2949852598665"/>
      <point x="601.0563491861041" y="480.2949852598665" type="curve"/>
      <point x="601.0563491861041" y="480.2949852598665"/>
      <point x="601.0563491861041" y="480.2949852598665"/>
      <point x="601.0563491861041" y="480.2949852598665" type="curve"/>
      <point x="452.81754906872163" y="480.2949852598665"/>
      <point x="269.6621502684111" y="373.77640819814707"/>
      <point x="162.87302635687632" y="222.7537808485135" type="curve"/>
      <point x="162.87302635687632" y="222.7537808485135"/>
      <point x="162.87302635687632" y="222.7537808485135"/>
      <point x="162.87302635687632" y="222.7537808485135" type="curve"/>
      <point x="36.105637946371665" y="43.47762089175983"/>
      <point x="117.14105610822179" y="-50.25072985213281"/>
      <point x="333.1064209271142" y="-0.29973871914417494" type="curve"/>
      <point x="336.71190492986534" y="-15.88821154703548" type="line"/>
      <point x="106.3386600650722" y="-69.17162539984996"/>
      <point x="14.584552649091489" y="40.75502310846002"/>
      <point x="149.8090810620327" y="231.9913851555475" type="curve"/>
      <point x="149.8090810620327" y="231.9913851555475"/>
      <point x="149.8090810620327" y="231.9913851555475"/>
      <point x="149.8090810620327" y="231.9913851555475" type="curve"/>
      <point x="259.9710986707893" y="387.7840045162347"/>
      <point x="448.13548317768743" y="496.2949852598665"/>
      <point x="601.0563491861041" y="496.2949852598665" type="curve"/>
      <point x="601.0563491861041" y="496.2949852598665"/>
      <point x="601.0563491861041" y="496.2949852598665"/>
      <point x="601.0563491861041" y="496.2949852598665" type="curve"/>
      <point x="752.8568302833698" y="496.2949852598665"/>
      <point x="792.6636099317783" y="397.41216559500606"/>
      <point x="693.6614816864444" y="257.4020131266543" type="curve"/>
      <point x="693.6614816864444" y="257.4020131266543"/>
      <point x="693.6614816864444" y="257.4020131266543"/>
      <point x="693.6614816864444" y="257.4020131266543" type="curve"/>
      <point x="627.9487744621742" y="164.47021134983873"/>
      <point x="538.442599058384" y="113.30656582404838"/>
      <point x="487.2203461105329" y="113.30656582404836" type="curve"/>
      <point x="487.2203461105329" y="113.30656582404836"/>
      <point x="487.2203461105329" y="113.30656582404836"/>
      <point x="487.2203461105329" y="113.30656582404836" type="curve"/>
      <point x="449.42818152401287" y="113.30656582404835"/>
      <point x="434.4447210891833" y="142.52696761669"/>
      <point x="472.20561740581417" y="195.92893931503357" type="curve"/>
      <point x="472.20561740581417" y="195.92893931503357"/>
      <point x="472.20561740581417" y="195.92893931503357"/>
      <point x="472.20561740581417" y="195.92893931503357" type="curve"/>
      <point x="567.205617405814" y="330.2792277404776" type="line"/>
    </contour>
    <contour>
      <point x="328.9497474683058" y="110.47813869930218" type="curve"/>
      <point x="264.2774022362456" y="110.47813869930218"/>
      <point x="252.0655356088036" y="158.60385001577865"/>
      <point x="304.9583593607001" y="233.40559871792058" type="curve"/>
      <point x="304.9583593607001" y="233.40559871792058"/>
      <point x="304.9583593607001" y="233.40559871792058"/>
      <point x="304.9583593607001" y="233.40559871792058" type="curve"/>
      <point x="354.2119181627537" y="303.0606495709256"/>
      <point x="423.09322935462774" y="345.6812408671319"/>
      <point x="483.94974746830576" y="345.6812408671319" type="curve"/>
      <point x="483.94974746830576" y="345.6812408671319"/>
      <point x="483.94974746830576" y="345.6812408671319"/>
      <point x="483.94974746830576" y="345.6812408671319" type="curve"/>
      <point x="550.0812156558452" y="345.6812408671319"/>
      <point x="563.4828439111491" y="297.3016180535771"/>
      <point x="511.7695627006578" y="224.16799441088656" type="curve"/>
      <point x="511.7695627006578" y="224.16799441088656"/>
      <point x="511.7695627006578" y="224.16799441088656"/>
      <point x="511.7695627006578" y="224.16799441088656" type="curve"/>
      <point x="463.03446241231" y="155.2461546194921"/>
      <point x="391.272687705205" y="110.47813869930218"/>
      <point x="328.9497474683058" y="110.47813869930218" type="curve"/>
      <point x="328.9497474683058" y="110.47813869930218"/>
      <point x="328.9497474683058" y="110.47813869930218"/>
    </contour>
    <contour>
      <point x="513.5576867632574" y="444.2544522602921" type="line"/>
      <point x="580.6409478839425" y="329.70315370807145" type="line" smooth="yes"/>
      <point x="584.2676247598635" y="323.5102444990415"/>
      <point x="564.2466715647975" y="320.61786910443647"/>
      <point x="565.9722942864919" y="327.58401121151405" type="curve" smooth="yes"/>
      <point x="594.3484486259906" y="442.1353097637347" type="line"/>
      <point x="609.8790401594786" y="438.28813851462786" type="line"/>
      <point x="581.5028858199798" y="323.7368399624072" type="line" smooth="yes"/>
      <point x="579.7772630982854" y="316.7706978553296"/>
      <point x="570.4609090984501" y="315.42478825681985"/>
      <point x="566.8342322225292" y="321.6176974658498" type="curve" smooth="yes"/>
      <point x="499.75097110184396" y="436.16899601807046" type="line"/>
    </contour>
    <contour>
      <point x="498.70561740581417" y="233.40559871792055" type="line"/>
      <point x="535.7211227641681" y="285.75342841379876"/>
      <point x="514.9803396608755" y="365.93707704495364"/>
      <point x="485.2879522251672" y="415.6004026538637" type="curve"/>
      <point x="499.0207056399342" y="423.81085231567914" type="line"/>
      <point x="531.8687374260687" y="368.8694131424601"/>
      <point x="552.7189979464342" y="282.07924110698235"/>
      <point x="511.7695627006578" y="224.1679944108866" type="curve"/>
    </contour>
    <contour>
      <point x="352.8371062867307" y="204.95102961768183" type="line"/>
      <point x="404.4433477505653" y="201.68617595810449"/>
      <point x="470.0406954261344" y="192.86727728989084"/>
      <point x="498.20561740581405" y="232.69849193673403" type="curve"/>
      <point x="511.2695627006577" y="223.46088762970007" type="line"/>
      <point x="478.5088255150729" y="177.1302087885052"/>
      <point x="411.85398799491026" y="185.18535657800862"/>
      <point x="351.8268906376981" y="188.98295320433604" type="curve"/>
    </contour>
    <contour>
      <point x="377.9671430846149" y="119.19887540261035" type="line"/>
      <point x="342.62652265104896" y="-10.201665554527809" type="line" smooth="yes"/>
      <point x="340.8152491650571" y="-16.833687461139903"/>
      <point x="332.03500381291315" y="-18.243045809225055"/>
      <point x="328.239124560733" y="-12.511054278028574" type="curve" smooth="yes"/>
      <point x="301.07974499429895" y="28.501139030791144" type="line"/>
      <point x="314.4198217298125" y="37.33529732066864" type="line"/>
      <point x="341.57920129624654" y="-3.676895988151081" type="line" smooth="yes"/>
      <point x="345.3750805484267" y="-9.408887519347562"/>
      <point x="325.3805297199387" y="-12.61830661826394"/>
      <point x="327.19180320593057" y="-5.986284711651846" type="curve" smooth="yes"/>
      <point x="362.5324236394965" y="123.41425624548631" type="line"/>
    </contour>
  </outline>
</glyph>
<glyph name="A" format="2">
  <advance width="474"/>
  <unicode hex="0041"/>
  <outline>
    <contour>
      <point x="34.538499182998876" y="57.83487491841338" type="line"/>
      <point x="138.18673146113971" y="155.41561072215694" type="line" smooth="yes"/>
      <point x="138.19325154951514" y="155.4217491290279"/>
      <point x="138.19978194003568" y="155.42787658396583"/>
      <point x="138.20632260508606" y="155.4339930610593" type="curve" smooth="yes"/>
      <point x="434.61548553357574" y="432.61985128618596" type="line" smooth="yes"/>
      <point x="436.0974654848187" y="434.0057189854137"/>
      <point x="438.05067675820976" y="434.7766952966369"/>
      <point x="440.07968978321696" y="434.7766952966369" type="curve" smooth="yes"/>
      <point x="479.6776695296636" y="434.7766952966369" type="line" smooth="yes"/>
      <point x="485.165278177435" y="434.7766952966369"/>
      <point x="489.02373157159917" y="429.3776514630086"/>
      <point x="487.2465046920821" y="424.1858008016531" type="curve" smooth="yes"/>
      <point x="392.3627744017585" y="146.99994257652648" type="line" smooth="yes"/>
      <point x="392.3441946742716" y="146.9456652236728"/>
      <point x="392.32503163661414" y="146.89158929832877"/>
      <point x="392.3052886145564" y="146.83772418544189" type="curve" smooth="yes"/>
      <point x="356.53930733032416" y="49.25698838169831" type="line"/>
      <point x="341.51660857989134" y="54.763214153835065" type="line"/>
      <point x="377.28258986412357" y="152.34394995757864" type="line" smooth="yes"/>
      <point x="377.3023328861813" y="152.39781507046553"/>
      <point x="377.2065243494346" y="152.12745421364036"/>
      <point x="377.22510407692147" y="152.18173156649405" type="curve" smooth="yes"/>
      <point x="472.1088343672451" y="429.3675897916207" type="line" smooth="yes"/>
      <point x="473.88606124676215" y="434.55944045297616"/>
      <point x="485.165278177435" y="418.7766952966369"/>
      <point x="479.6776695296636" y="418.7766952966369" type="curve" smooth="yes"/>
      <point x="440.07968978321696" y="418.7766952966369" type="line" smooth="yes"/>
      <point x="438.05067675820976" y="418.7766952966369"/>
      <point x="447.02587398410117" y="422.31940700631554"/>
      <point x="445.5438940328582" y="420.9335393070878" type="curve" smooth="yes"/>
      <point x="149.13473110436846" y="143.74768108196122" type="line" smooth="yes"/>
      <point x="149.12819043931808" y="143.74156460486773"/>
      <point x="149.16084233669022" y="143.77220182773453"/>
      <point x="149.1543222483148" y="143.7660634208636" type="curve" smooth="yes"/>
      <point x="45.50608997017399" y="46.185327617119995" type="line"/>
    </contour>
    <contour>
      <point x="384.79393923934" y="141.59083707151026" type="line"/>
      <point x="143.67052685472726" y="141.59083707151026" type="line"/>
      <point x="143.67052685472726" y="157.59083707151026" type="line"/>
      <point x="384.79393923934" y="157.59083707151026" type="line"/>
    </contour>
    <contour>
      <point x="405.1404448543966" y="556.5911297887053" type="line"/>
      <point x="447.6673567889778" y="429.3119091751268" type="line" smooth="yes"/>
      <point x="449.2614885616678" y="424.5408162282548"/>
      <point x="446.10894331971406" y="419.49983568489307"/>
      <point x="441.12140649703474" y="418.84480861765866" type="curve" smooth="yes"/>
      <point x="349.5919692455119" y="406.82399333748737" type="line" smooth="yes"/>
      <point x="339.22123656181907" y="405.4619762022992"/>
      <point x="337.4038199668884" y="421.7676007861056"/>
      <point x="347.8199326125125" y="422.7224748232602" type="curve" smooth="yes"/>
      <point x="478.947349610482" y="434.7432901034315" type="line" smooth="yes"/>
      <point x="482.44408057675724" y="435.063845163482"/>
      <point x="471.1262383231919" y="424.987028479038"/>
      <point x="471.8489481100227" y="428.4232434841055" type="curve" smooth="yes"/>
      <point x="498.61850073172315" y="555.702464097684" type="line"/>
      <point x="514.2759435710049" y="552.4093677227468" type="line"/>
      <point x="487.5063909493045" y="425.13014710916826" type="line" smooth="yes"/>
      <point x="486.78368116247367" y="421.6939321041007"/>
      <point x="483.9047204151205" y="419.13065554989277"/>
      <point x="480.4079894488452" y="418.8101004898423" type="curve" smooth="yes"/>
      <point x="349.28057245087575" y="406.789285209671" type="line" smooth="yes"/>
      <point x="338.86445980525167" y="405.8344111725164"/>
      <point x="337.1378031341835" y="421.32574956025564"/>
      <point x="347.50853581787635" y="422.6877666954438" type="curve" smooth="yes"/>
      <point x="439.0379730693992" y="434.7085819756151" type="line" smooth="yes"/>
      <point x="444.0255098920785" y="435.36360904284953"/>
      <point x="434.0861545501461" y="419.470388471275"/>
      <point x="432.4920227774561" y="424.241481418147" type="curve" smooth="yes"/>
      <point x="389.9651108428749" y="551.5207020317255" type="line"/>
    </contour>
    <contour>
      <point x="195.56757214356173" y="261.9716364094815" type="line"/>
      <point x="151.135068617959" y="146.7132310760743" type="line" smooth="yes"/>
      <point x="149.37349656589612" y="142.14369369937273"/>
      <point x="143.9565992950248" y="140.2152319982052"/>
      <point x="139.7037223510417" y="142.64357415511364" type="curve" smooth="yes"/>
      <point x="92.64484784799599" y="169.5136318402024" type="line"/>
      <point x="100.57845685536712" y="183.40815767299566" type="line"/>
      <point x="147.6373313584128" y="156.5380999879069" type="line" smooth="yes"/>
      <point x="151.8902083023959" y="154.10975783099846"/>
      <point x="134.44441303943262" y="147.89890569024467"/>
      <point x="136.2059850914955" y="152.46844306694624" type="curve" smooth="yes"/>
      <point x="180.63848861709823" y="267.7268484003535" type="line"/>
    </contour>
    <contour>
      <point x="303.3614464657125" y="269.69690814727034" type="line"/>
      <point x="391.15791102199415" y="154.4385028138631" type="line" smooth="yes"/>
      <point x="395.67482062105654" y="148.50874470738086"/>
      <point x="390.34156496854246" y="140.16807992213063"/>
      <point x="383.06381136757443" y="141.7801612014373" type="curve" smooth="yes"/>
      <point x="261.75872483994124" y="168.65021888652606" type="line"/>
      <point x="265.21898058347233" y="184.271570626672" type="line"/>
      <point x="386.5240671111055" y="157.40151294158323" type="line" smooth="yes"/>
      <point x="393.80182071207355" y="155.78943166227657"/>
      <point x="382.9468770557482" y="138.8134132226752"/>
      <point x="378.4299674566858" y="144.74317132915743" type="curve" smooth="yes"/>
      <point x="290.63350290040415" y="260.0015766625647" type="line"/>
    </contour>
    <contour>
      <point x="21.903419917082115" y="79.1596332586525" type="line"/>
      <point x="45.38512995385244" y="57.94642982305607" type="line" smooth="yes"/>
      <point x="51.19316711321248" y="52.69949194544508"/>
      <point x="46.78843488313486" y="43.0947774885584"/>
      <point x="39.02266870732999" y="44.072800207487234" type="curve" smooth="yes"/>
      <point x="-129.41593147268262" y="65.28600364308366" type="line"/>
      <point x="-127.41667973416972" y="81.16060576364256" type="line"/>
      <point x="41.02192044584287" y="59.94740232804614" type="line" smooth="yes"/>
      <point x="48.787686621647744" y="58.969379609117304"/>
      <point x="40.467496358680464" y="40.82683483486631"/>
      <point x="34.65945919932042" y="46.0737727124773" type="curve" smooth="yes"/>
      <point x="11.177749162550104" y="67.28697614807372" type="line"/>
    </contour>
    <contour>
      <point x="360.3161653059566" y="71.96147401728211" type="line"/>
      <point x="356.9278176576382" y="50.74827058168569" type="line" smooth="yes"/>
      <point x="356.24039230044923" y="46.44455223210208"/>
      <point x="352.2345311474594" y="43.48294267792324"/>
      <point x="347.91838130528964" y="44.08742244945161" type="curve" smooth="yes"/>
      <point x="196.45034387375415" y="65.30062588504804" type="line"/>
      <point x="198.66949717339037" y="81.14598352167819" type="line"/>
      <point x="350.13753460492586" y="59.93278008608176" type="line" smooth="yes"/>
      <point x="354.4536844470956" y="59.328300314553395"/>
      <point x="340.4406728953884" y="48.96821360426408"/>
      <point x="341.12809825257733" y="53.271931953847684" type="curve" smooth="yes"/>
      <point x="344.51644590089575" y="74.48513538944411" type="line"/>
    </contour>
  </outline>
</glyph>
<glyph name="B" format="2">
  <advance width="419"/>
  <unicode hex="0042"/>
  <outline>
    <contour>
      <point x="307.2322330470336" y="257.29289321881345" type="line"/>
      <point x="373.3413453267112" y="257.29289321881345"/>
      <point x="445.652980525724" y="292.90579807754983"/>
      <point x="487.5799860765787" y="352.1995379572606" type="curve"/>
      <point x="487.5799860765787" y="352.1995379572606"/>
      <point x="487.5799860765787" y="352.1995379572606"/>
      <point x="487.5799860765787" y="352.1995379572606" type="curve"/>
      <point x="522.7623073276405" y="401.95485382627936"/>
      <point x="509.83295834909393" y="431.50461735799473"/>
      <point x="446.68198051533943" y="431.50461735799473" type="curve"/>
      <point x="446.68198051533943" y="431.50461735799473"/>
      <point x="446.68198051533943" y="431.50461735799473"/>
      <point x="446.68198051533943" y="431.50461735799473" type="curve"/>
      <point x="344.15149724329" y="431.50461735799473" type="line" smooth="yes"/>
      <point x="341.5544189010719" y="431.50461735799473"/>
      <point x="352.182893770698" y="437.00632079130025"/>
      <point x="350.6834698907118" y="434.88581520447775" type="curve" smooth="yes"/>
      <point x="72.68346989071188" y="41.734444864757315" type="line" smooth="yes"/>
      <point x="68.93673200675399" y="36.435757334607"/>
      <point x="59.6619568656319" y="54.35324701827432"/>
      <point x="66.15149724329007" y="54.35324701827432" type="curve" smooth="yes"/>
      <point x="180.70279579551078" y="54.35324701827432" type="line"/>
      <point x="180.70279579551078" y="54.35324701827432"/>
      <point x="180.70279579551078" y="54.35324701827432"/>
      <point x="180.70279579551078" y="54.35324701827432" type="curve"/>
      <point x="246.09765704767176" y="54.35324701827432"/>
      <point x="317.29775829646115" y="91.38410199951377"/>
      <point x="358.72212170030963" y="149.96699853790798" type="curve"/>
      <point x="358.72212170030963" y="149.96699853790798"/>
      <point x="358.72212170030963" y="149.96699853790798"/>
      <point x="358.72212170030963" y="149.96699853790798" type="curve"/>
      <point x="400.7997858493284" y="209.47380185043042"/>
      <point x="381.85691199449695" y="241.29289321881348"/>
      <point x="310.0606601717798" y="241.29289321881348" type="curve"/>
      <point x="310.0606601717798" y="257.29289321881345" type="line"/>
      <point x="395.2167371440475" y="257.29289321881345"/>
      <point x="421.69353035319597" y="211.30920577545615"/>
      <point x="371.78606699515325" y="140.72939423087396" type="curve"/>
      <point x="371.78606699515325" y="140.72939423087396"/>
      <point x="371.78606699515325" y="140.72939423087396"/>
      <point x="371.78606699515325" y="140.72939423087396" type="curve"/>
      <point x="327.19863481645206" y="77.67324293236416"/>
      <point x="251.09105771012636" y="38.35324701827432"/>
      <point x="180.70279579551078" y="38.35324701827432" type="curve"/>
      <point x="180.70279579551078" y="38.35324701827432"/>
      <point x="180.70279579551078" y="38.35324701827432"/>
      <point x="180.70279579551078" y="38.35324701827432" type="curve"/>
      <point x="66.15149724329007" y="38.35324701827432" type="line" smooth="yes"/>
      <point x="59.661956865631915" y="38.35324701827432"/>
      <point x="55.87278671191038" y="45.673361641641016"/>
      <point x="59.619524595868256" y="50.97204917179132" type="curve" smooth="yes"/>
      <point x="337.6195245958682" y="444.1234195115117" type="line" smooth="yes"/>
      <point x="339.1189484758544" y="446.2439250983342"/>
      <point x="341.5544189010719" y="447.50461735799473"/>
      <point x="344.15149724329" y="447.50461735799473" type="curve" smooth="yes"/>
      <point x="446.68198051533943" y="447.50461735799473" type="line"/>
      <point x="446.68198051533943" y="447.50461735799473"/>
      <point x="446.68198051533943" y="447.50461735799473"/>
      <point x="446.68198051533943" y="447.50461735799473" type="curve"/>
      <point x="523.5123601429121" y="447.50461735799473"/>
      <point x="543.4472448056838" y="403.4949600234654"/>
      <point x="500.6439313714223" y="342.9619336502266" type="curve"/>
      <point x="500.6439313714223" y="342.9619336502266"/>
      <point x="500.6439313714223" y="342.9619336502266"/>
      <point x="500.6439313714223" y="342.9619336502266" type="curve"/>
      <point x="455.5605823535243" y="279.20445003191537"/>
      <point x="378.3181630582541" y="241.29289321881348"/>
      <point x="307.2322330470336" y="241.29289321881348" type="curve"/>
    </contour>
    <contour>
      <point x="107.35852739434183" y="157.93704212831557" type="line"/>
      <point x="73.82551880535074" y="44.0928503572814" type="line" smooth="yes"/>
      <point x="72.67347101273415" y="40.181660894994444"/>
      <point x="68.76423906849682" y="37.76265930373507"/>
      <point x="64.74996764049003" y="38.47697158044996" type="curve" smooth="yes"/>
      <point x="-86.25360369697812" y="65.34702926553877" type="line"/>
      <point x="-83.45054449137804" y="81.09958014118746" type="line"/>
      <point x="67.5530268460901" y="54.22952245609867" type="line" smooth="yes"/>
      <point x="71.5672982740969" y="53.51521017938378"/>
      <point x="57.3254278886128" y="44.70245421698028"/>
      <point x="58.47747568122939" y="48.613643679267234" type="curve" smooth="yes"/>
      <point x="92.01048427022049" y="162.4578354503014" type="line"/>
    </contour>
    <contour>
      <point x="261.46519848255775" y="558.9642829697598" type="line"/>
      <point x="350.46876982002595" y="444.41298441753906" type="line" smooth="yes"/>
      <point x="356.62311277011526" y="436.4920890413818"/>
      <point x="345.5619527854289" y="426.7520828698628"/>
      <point x="338.4833319300386" y="433.8590968344598" type="curve" smooth="yes"/>
      <point x="311.0163405190297" y="461.4362613007352" type="line"/>
      <point x="322.3526711455325" y="472.72730234780505" type="line"/>
      <point x="349.8196625565414" y="445.15013788152964" type="line" smooth="yes"/>
      <point x="356.8982834119317" y="438.04312391693264"/>
      <point x="343.98856761664337" y="426.67535492229314"/>
      <point x="337.83422466655406" y="434.5962502984504" type="curve" smooth="yes"/>
      <point x="248.83065332908586" y="549.147548850671" type="line"/>
    </contour>
    <contour>
      <point x="246.10136209407537" y="358.3060132979899" type="line"/>
      <point x="217.3967806298305" y="247.29024865170203" type="line" smooth="yes"/>
      <point x="215.87044635615118" y="241.38710853069344"/>
      <point x="208.56579456491463" y="239.29299275443697"/>
      <point x="204.14368991760324" y="243.4908195840592" type="curve" smooth="yes"/>
      <point x="174.34827138184812" y="271.7750908315211" type="line"/>
      <point x="185.36388603322177" y="283.3792381010296" type="line"/>
      <point x="215.1593045689769" y="255.09496685356774" type="line" smooth="yes"/>
      <point x="219.58140921628828" y="250.8971400239455"/>
      <point x="200.37987958307033" y="245.39239766491633"/>
      <point x="201.90621385674964" y="251.29553778592492" type="curve" smooth="yes"/>
      <point x="230.61079532099453" y="362.31130243221287" type="line"/>
    </contour>
    <contour>
      <point x="209.65149724329007" y="257.29289321881345" type="line"/>
      <point x="310.0606601717798" y="257.29289321881345" type="line" smooth="yes"/>
      <point x="312.3810325156656" y="257.29289321881345"/>
      <point x="302.49516649918513" y="252.77821003428392"/>
      <point x="304.0146991389829" y="254.53182013087306" type="curve" smooth="yes"/>
      <point x="367.73757056645746" y="328.070925374274" type="line"/>
      <point x="379.8294926320512" y="317.59307155015483" type="line"/>
      <point x="316.10662120457664" y="244.0539663067539" type="line" smooth="yes"/>
      <point x="314.58708856477887" y="242.30035621016475"/>
      <point x="312.3810325156656" y="241.29289321881348"/>
      <point x="310.0606601717798" y="241.29289321881348" type="curve" smooth="yes"/>
      <point x="209.65149724329007" y="241.29289321881348" type="line"/>
    </contour>
  </outline>
</glyph>
<glyph name="C" format="2">
  <advance width="432"/>
  <unicode hex="0043"/>
  <outline>
    <contour>
      <point x="570.3015432970286" y="424.58170933097017" type="line"/>
      <point x="553.0675533787083" y="433.2629414530063"/>
      <point x="527.1629159227382" y="438.5756851698602"/>
      <point x="503.79036790187183" y="438.5756851698602" type="curve"/>
      <point x="503.79036790187183" y="438.5756851698602"/>
      <point x="503.79036790187183" y="438.5756851698602"/>
      <point x="503.79036790187183" y="438.5756851698602" type="curve"/>
      <point x="393.62868757714267" y="438.5756851698602"/>
      <point x="266.022315407542" y="357.4644741727903"/>
      <point x="181.26747065960467" y="237.603023253431" type="curve"/>
      <point x="181.26747065960467" y="237.603023253431"/>
      <point x="181.26747065960467" y="237.603023253431"/>
      <point x="181.26747065960467" y="237.603023253431" type="curve"/>
      <point x="99.53656276407976" y="122.01806484251341"/>
      <point x="110.22722669421299" y="47.282179206408856"/>
      <point x="215.79036790187178" y="47.28217920640884" type="curve"/>
      <point x="215.79036790187178" y="47.28217920640884"/>
      <point x="215.79036790187178" y="47.28217920640884"/>
      <point x="215.79036790187178" y="47.28217920640884" type="curve"/>
      <point x="239.83515593264303" y="47.28217920640884"/>
      <point x="275.8139316684438" y="52.14344053699479"/>
      <point x="303.62707478300666" y="60.387367861830654" type="curve"/>
      <point x="308.1740071312698" y="45.047048236075824" type="line"/>
      <point x="278.72703104192647" y="36.31884625556616"/>
      <point x="241.24762367835834" y="31.28217920640884"/>
      <point x="215.79036790187178" y="31.28217920640884" type="curve"/>
      <point x="215.79036790187178" y="31.28217920640884"/>
      <point x="215.79036790187178" y="31.28217920640884"/>
      <point x="215.79036790187178" y="31.28217920640884" type="curve"/>
      <point x="97.9903091787781" y="31.282179206408856"/>
      <point x="76.99834106046838" y="117.85701895859657"/>
      <point x="168.20352536476105" y="246.840627560465" type="curve"/>
      <point x="168.20352536476105" y="246.840627560465"/>
      <point x="168.20352536476105" y="246.840627560465"/>
      <point x="168.20352536476105" y="246.840627560465" type="curve"/>
      <point x="256.4257646437269" y="371.6057148517029"/>
      <point x="389.1218772700404" y="454.5756851698602"/>
      <point x="503.79036790187183" y="454.5756851698602" type="curve"/>
      <point x="503.79036790187183" y="454.5756851698602"/>
      <point x="503.79036790187183" y="454.5756851698602"/>
      <point x="503.79036790187183" y="454.5756851698602" type="curve"/>
      <point x="529.9114190924671" y="454.5756851698602"/>
      <point x="558.2389114715576" y="448.5732809268508"/>
      <point x="577.4995386172478" y="438.87117619891535" type="curve"/>
    </contour>
    <contour>
      <point x="601.1130619684603" y="537.0736700609832" type="line"/>
      <point x="581.7724415348945" y="430.3005461018146" type="line" smooth="yes"/>
      <point x="581.1802732935575" y="427.03138246489107"/>
      <point x="578.629160206404" y="424.4684641133825"/>
      <point x="575.3627653260345" y="423.86120914508086" type="curve" smooth="yes"/>
      <point x="510.70338575960034" y="411.8403938649095" type="line"/>
      <point x="507.7789370218078" y="427.5708611046333" type="line"/>
      <point x="572.438316588242" y="439.59167638480466" type="line" smooth="yes"/>
      <point x="575.7047114686114" y="440.1989313531063"/>
      <point x="565.436472138045" y="429.88317579114744"/>
      <point x="566.028640379382" y="433.15233942807095" type="curve" smooth="yes"/>
      <point x="585.3692608129478" y="539.9254633872397" type="line"/>
    </contour>
    <contour>
      <point x="366.80501989381725" y="204.96820552906624" type="line"/>
      <point x="313.4643994602513" y="50.111820449212324" type="line" smooth="yes"/>
      <point x="311.44615496494697" y="44.252532645475625"/>
      <point x="303.8195997938539" y="42.8139637176852"/>
      <point x="299.80555193040595" y="47.535402498374076" type="curve" smooth="yes"/>
      <point x="269.1461723639719" y="83.59784833888797" type="line"/>
      <point x="281.33615041743644" y="93.96145944004631" type="line"/>
      <point x="311.9955299838705" y="57.8990135995324" type="line" smooth="yes"/>
      <point x="316.00957784731844" y="53.177574818843524"/>
      <point x="296.31843795872084" y="49.463307844957455"/>
      <point x="298.33668245402515" y="55.322595648694154" type="curve" smooth="yes"/>
      <point x="351.6773028875911" y="210.17898072854805" type="line"/>
    </contour>
  </outline>
</glyph>
<glyph name="D" format="2">
  <advance width="489"/>
  <unicode hex="0044"/>
  <outline>
    <contour>
      <point x="73.03523761257105" y="41.73444486475731" type="line" smooth="yes"/>
      <point x="69.28849972861317" y="36.435757334607004"/>
      <point x="60.0137245874911" y="54.35324701827432"/>
      <point x="66.50326496514924" y="54.35324701827432" type="curve" smooth="yes"/>
      <point x="172.56928214313137" y="54.35324701827432" type="line"/>
      <point x="172.56928214313137" y="54.35324701827432"/>
      <point x="172.56928214313137" y="54.35324701827432"/>
      <point x="172.56928214313137" y="54.35324701827432" type="curve"/>
      <point x="284.116643981379" y="54.35324701827432"/>
      <point x="415.0751588200608" y="131.16475323051588"/>
      <point x="497.8703539784505" y="248.2548411228381" type="curve"/>
      <point x="497.8703539784505" y="248.2548411228381"/>
      <point x="497.8703539784505" y="248.2548411228381"/>
      <point x="497.8703539784505" y="248.2548411228381" type="curve"/>
      <point x="577.3582691726874" y="360.6677288352905"/>
      <point x="558.2982995342315" y="431.50461735799473"/>
      <point x="450.5692821431313" y="431.50461735799473" type="curve"/>
      <point x="450.5692821431313" y="431.50461735799473"/>
      <point x="450.5692821431313" y="431.50461735799473"/>
      <point x="450.5692821431313" y="431.50461735799473" type="curve"/>
      <point x="344.50326496514924" y="431.50461735799473" type="line" smooth="yes"/>
      <point x="341.90618662293116" y="431.50461735799473"/>
      <point x="352.5346614925572" y="437.00632079130025"/>
      <point x="351.03523761257105" y="434.88581520447775" type="curve" smooth="yes"/>
    </contour>
    <contour>
      <point x="108.69969793156147" y="159.3155846672377" type="line"/>
      <point x="74.16668934257038" y="44.057179333830454" type="line" smooth="yes"/>
      <point x="73.00053964095537" y="40.16500310939851"/>
      <point x="69.10201650122218" y="37.76514878045888"/>
      <point x="65.1017353623492" y="38.47697158044996" type="curve" smooth="yes"/>
      <point x="-85.901835975119" y="65.34702926553877" type="line"/>
      <point x="-83.09877676951892" y="81.09958014118746" type="line"/>
      <point x="67.90479456794928" y="54.22952245609867" type="line" smooth="yes"/>
      <point x="71.90507570682226" y="53.51769965610759"/>
      <point x="57.673690886113086" y="44.75713847828624"/>
      <point x="58.839840587728105" y="48.64931470271818" type="curve" smooth="yes"/>
      <point x="93.3728491767192" y="163.90772003612543" type="line"/>
    </contour>
    <contour>
      <point x="261.8169662044169" y="558.9642829697598" type="line"/>
      <point x="350.8205375418852" y="444.41298441753906" type="line" smooth="yes"/>
      <point x="356.84015356642834" y="436.6654881987341"/>
      <point x="346.31353595518135" y="426.97535585996616"/>
      <point x="339.08980339378746" y="433.61441924457023" type="curve" smooth="yes"/>
      <point x="310.6228119827785" y="459.7773701484725" type="line"/>
      <point x="321.44973512550206" y="471.55776637532153" type="line"/>
      <point x="349.916726536511" y="445.39481547141924" type="line" smooth="yes"/>
      <point x="357.1404590979049" y="438.75575208681516"/>
      <point x="344.20560841295645" y="426.84875407964546"/>
      <point x="338.1859923884133" y="434.5962502984504" type="curve" smooth="yes"/>
      <point x="249.18242105094498" y="549.147548850671" type="line"/>
    </contour>
    <contour>
      <point x="59.97129231772743" y="50.972049171791326" type="curve" smooth="yes"/>
      <point x="337.97129231772743" y="444.1234195115117" type="line" smooth="yes"/>
      <point x="339.47071619771356" y="446.2439250983342"/>
      <point x="341.90618662293116" y="447.50461735799473"/>
      <point x="344.50326496514924" y="447.50461735799473" type="curve" smooth="yes"/>
      <point x="450.5692821431313" y="447.50461735799473" type="line"/>
      <point x="450.5692821431313" y="447.50461735799473"/>
      <point x="450.5692821431313" y="447.50461735799473"/>
      <point x="450.5692821431313" y="447.50461735799473" type="curve"/>
      <point x="570.48445023058" y="447.50461735799473"/>
      <point x="599.4137725133912" y="364.14610786357656"/>
      <point x="510.93429927329413" y="239.01723681580407" type="curve"/>
      <point x="510.93429927329413" y="239.01723681580407"/>
      <point x="510.93429927329413" y="239.01723681580407"/>
      <point x="510.93429927329413" y="239.01723681580407" type="curve"/>
      <point x="424.75188055569157" y="117.1368914272537"/>
      <point x="288.6801437263066" y="38.35324701827432"/>
      <point x="172.56928214313137" y="38.35324701827432" type="curve"/>
      <point x="172.56928214313137" y="38.35324701827432"/>
      <point x="172.56928214313137" y="38.35324701827432"/>
      <point x="172.56928214313137" y="38.35324701827432" type="curve"/>
      <point x="66.50326496514924" y="38.35324701827432" type="line" smooth="yes"/>
      <point x="60.013724587491055" y="38.35324701827432"/>
      <point x="56.22455443376953" y="45.673361641640994"/>
    </contour>
  </outline>
</glyph>
<glyph name="E" format="2">
  <advance width="389"/>
  <unicode hex="0045"/>
  <outline>
    <contour>
      <point x="523.0501129223492" y="426.57675079111505" type="line"/>
      <point x="475.62706108819236" y="430.09141966643335"/>
      <point x="394.43151063545747" y="432.91370995950206"/>
      <point x="344.9349816779199" y="431.5078424093747" type="curve" smooth="yes"/>
      <point x="342.41899173035404" y="431.436379850318"/>
      <point x="352.6930123782042" y="436.9409408800508"/>
      <point x="351.2398190768159" y="434.88581520447775" type="curve" smooth="yes"/>
      <point x="73.23981907681593" y="41.734444864757315" type="line" smooth="yes"/>
      <point x="69.55343125375556" y="36.52110520921832"/>
      <point x="60.55530813826373" y="54.53338382166565"/>
      <point x="66.93768353146586" y="54.349944768377874" type="curve" smooth="yes"/>
      <point x="115.85188308284039" y="52.944077218250555"/>
      <point x="197.70067143490644" y="55.0600773419107"/>
      <point x="250.59126489886157" y="59.27767999229262" type="curve"/>
      <point x="251.8630999274391" y="43.32830898086765" type="line"/>
      <point x="198.35562842979598" y="39.06151523128548"/>
      <point x="115.96270909929356" y="36.934284684976696"/>
      <point x="66.47800932732238" y="38.35654926817076" type="curve" smooth="yes"/>
      <point x="60.095633934120265" y="38.53998832145854"/>
      <point x="56.489485958911956" y="45.75870951625234"/>
      <point x="60.175873781972314" y="50.97204917179132" type="curve" smooth="yes"/>
      <point x="338.17587378197226" y="444.1234195115117" type="line" smooth="yes"/>
      <point x="339.62906708336055" y="446.17854518708475"/>
      <point x="341.9647212333024" y="447.4299297475581"/>
      <point x="344.48071118086824" y="447.5013923066148" type="curve" smooth="yes"/>
      <point x="394.55453223248117" y="448.9236568898088"/>
      <point x="476.2565186538534" y="446.08865044624804"/>
      <point x="524.2326790286977" y="442.5329889882628" type="curve"/>
    </contour>
    <contour>
      <point x="374.0495128834866" y="242.0" type="line"/>
      <point x="210.70784642939412" y="242.0" type="line"/>
      <point x="210.70784642939412" y="258.0" type="line"/>
      <point x="374.0495128834866" y="258.0" type="line"/>
    </contour>
    <contour>
      <point x="108.90427939580633" y="159.3155846672377" type="line"/>
      <point x="74.37127080681526" y="44.05717933383046" type="line" smooth="yes"/>
      <point x="73.20512110520025" y="40.16500310939852"/>
      <point x="69.30659796546706" y="37.76514878045888"/>
      <point x="65.30631682659408" y="38.47697158044996" type="curve" smooth="yes"/>
      <point x="-85.69725451087412" y="65.34702926553877" type="line"/>
      <point x="-82.89419530527404" y="81.09958014118746" type="line"/>
      <point x="68.10937603219416" y="54.22952245609867" type="line" smooth="yes"/>
      <point x="72.10965717106716" y="53.51769965610759"/>
      <point x="57.87827235035797" y="44.75713847828623"/>
      <point x="59.04442205197298" y="48.64931470271817" type="curve" smooth="yes"/>
      <point x="93.57743064096405" y="163.90772003612543" type="line"/>
    </contour>
    <contour>
      <point x="262.0215476686618" y="558.9642829697598" type="line"/>
      <point x="351.02511900613" y="444.41298441753906" type="line" smooth="yes"/>
      <point x="357.04473503067317" y="436.6654881987341"/>
      <point x="346.5181174194262" y="426.9753558599661"/>
      <point x="339.2943848580323" y="433.61441924457023" type="curve" smooth="yes"/>
      <point x="310.8273934470234" y="459.7773701484725" type="line"/>
      <point x="321.65431658974694" y="471.55776637532153" type="line"/>
      <point x="350.12130800075585" y="445.39481547141924" type="line" smooth="yes"/>
      <point x="357.34504056214973" y="438.7557520868151"/>
      <point x="344.4101898772013" y="426.84875407964546"/>
      <point x="338.3905738526581" y="434.5962502984504" type="curve" smooth="yes"/>
      <point x="249.38700251518992" y="549.147548850671" type="line"/>
    </contour>
    <contour>
      <point x="559.7661070366615" y="552.2098571078631" type="line"/>
      <point x="531.4254866030957" y="432.7088110873366" type="line" smooth="yes"/>
      <point x="530.4416700353091" y="428.56045063706307"/>
      <point x="526.3774688779109" y="425.91249206080033"/>
      <point x="522.1852628495567" y="426.6885062876513" type="curve" smooth="yes"/>
      <point x="472.5258832831226" y="435.8808944430764" type="line"/>
      <point x="475.43814953505597" y="451.6136216471516" type="line"/>
      <point x="525.0975291014902" y="442.4212334917265" type="line" smooth="yes"/>
      <point x="529.2897351298444" y="441.64521926487555"/>
      <point x="514.8734887801646" y="432.25256824176773"/>
      <point x="515.8573053479512" y="436.40092869204125" type="curve" smooth="yes"/>
      <point x="544.197925781517" y="555.9019747125677" type="line"/>
    </contour>
    <contour>
      <point x="315.1236715856379" y="187.59694300689517" type="line"/>
      <point x="258.64091552834105" y="48.296907113145295" type="line" smooth="yes"/>
      <point x="256.85096375912127" y="43.88245634789825"/>
      <point x="251.62379053012475" y="42.00062893278291"/>
      <point x="247.43078633556962" y="44.26116398435063" type="curve" smooth="yes"/>
      <point x="206.77140676913558" y="66.18147420113361" type="line"/>
      <point x="214.364198924297" y="80.26513520559261" type="line"/>
      <point x="255.02357849073104" y="58.344824988809634" type="line" smooth="yes"/>
      <point x="259.2165826852862" y="56.08428993724191"/>
      <point x="242.02349752873982" y="49.89463109476793"/>
      <point x="243.8134492979596" y="54.30908186001497" type="curve" smooth="yes"/>
      <point x="300.29620535525646" y="193.60911775376485" type="line"/>
    </contour>
    <contour>
      <point x="416.612153967036" y="376.60288470721656" type="line"/>
      <point x="381.7715335334701" y="247.9094505312649" type="line" smooth="yes"/>
      <point x="380.6038979591182" y="243.59646671928363"/>
      <point x="376.1297320789912" y="241.07599359617225"/>
      <point x="371.8359404363815" y="242.3123412522786" type="curve" smooth="yes"/>
      <point x="325.1765608699475" y="255.747370094823" type="line"/>
      <point x="329.60370576415767" y="271.1226875902658" type="line"/>
      <point x="376.2630853305917" y="257.6876587477214" type="line" smooth="yes"/>
      <point x="380.5568769732014" y="256.451311091615"/>
      <point x="365.1598566591512" y="247.77756565675384"/>
      <point x="366.3274922335031" y="252.0905494687351" type="curve" smooth="yes"/>
      <point x="401.168112667069" y="380.78398364468677" type="line"/>
    </contour>
    <contour>
      <point x="248.6417170288331" y="361.07357112641705" type="line"/>
      <point x="218.43713556458823" y="247.9364861365694" type="line" smooth="yes"/>
      <point x="216.8715804371948" y="242.07239748121518"/>
      <point x="209.60198003048282" y="240.0192406039159"/>
      <point x="205.2000391037073" y="244.19792636524573" type="curve" smooth="yes"/>
      <point x="175.40462056795218" y="272.48219761270764" type="line"/>
      <point x="186.42023521932583" y="284.08634488221617" type="line"/>
      <point x="216.21565375508095" y="255.80207363475427" type="line" smooth="yes"/>
      <point x="220.61759468185647" y="251.62338787342443"/>
      <point x="201.4130021668066" y="246.19942520807635"/>
      <point x="202.97855729420002" y="252.0635138634306" type="curve" smooth="yes"/>
      <point x="233.1831387584449" y="365.20059885327817" type="line"/>
    </contour>
  </outline>
</glyph>
